<svg width="174" height="135" viewBox="0 0 174 135" fill="none" xmlns="http://www.w3.org/2000/svg">
<path d="M67.5316 125H65.3316L62.4516 119.77H62.4116C62.4183 119.897 62.4249 120.067 62.4316 120.28C62.4449 120.493 62.4583 120.727 62.4716 120.98C62.4849 121.227 62.4949 121.467 62.5016 121.7V125H60.9816V117.86H63.1716L66.0416 123.03H66.0716C66.0649 122.91 66.0549 122.747 66.0416 122.54C66.0349 122.333 66.0249 122.11 66.0116 121.87C66.0049 121.623 66.0016 121.39 66.0016 121.17V117.86H67.5316V125ZM73.384 125H69.214V117.86H73.384V119.24H70.914V120.61H73.204V121.99H70.914V123.6H73.384V125ZM77.5409 120.91H80.4909V124.68C80.1176 124.807 79.7109 124.91 79.2709 124.99C78.8376 125.063 78.3642 125.1 77.8509 125.1C76.8042 125.1 75.9776 124.793 75.3709 124.18C74.7709 123.56 74.4709 122.64 74.4709 121.42C74.4709 120.673 74.6142 120.027 74.9009 119.48C75.1876 118.933 75.6076 118.51 76.1609 118.21C76.7209 117.91 77.4042 117.76 78.2109 117.76C78.6176 117.76 79.0109 117.8 79.3909 117.88C79.7776 117.96 80.1176 118.067 80.4109 118.2L79.8609 119.55C79.6276 119.437 79.3709 119.347 79.0909 119.28C78.8176 119.207 78.5242 119.17 78.2109 119.17C77.7776 119.17 77.4109 119.27 77.1109 119.47C76.8176 119.663 76.5976 119.933 76.4509 120.28C76.3042 120.62 76.2309 121.01 76.2309 121.45C76.2309 122.137 76.3709 122.683 76.6509 123.09C76.9376 123.49 77.3809 123.69 77.9809 123.69C78.1476 123.69 78.3076 123.68 78.4609 123.66C78.6209 123.64 78.7542 123.62 78.8609 123.6V122.28H77.5409V120.91ZM88.6454 121.42C88.6454 122.16 88.5254 122.807 88.2854 123.36C88.0454 123.907 87.672 124.333 87.1654 124.64C86.6654 124.947 86.0154 125.1 85.2154 125.1C84.4287 125.1 83.782 124.947 83.2754 124.64C82.7687 124.333 82.392 123.903 82.1454 123.35C81.9054 122.797 81.7854 122.15 81.7854 121.41C81.7854 120.67 81.9054 120.027 82.1454 119.48C82.392 118.933 82.7687 118.51 83.2754 118.21C83.782 117.903 84.432 117.75 85.2254 117.75C86.0187 117.75 86.6654 117.903 87.1654 118.21C87.672 118.51 88.0454 118.937 88.2854 119.49C88.5254 120.037 88.6454 120.68 88.6454 121.42ZM83.5754 121.42C83.5754 122.12 83.702 122.67 83.9554 123.07C84.2154 123.47 84.6354 123.67 85.2154 123.67C85.802 123.67 86.222 123.47 86.4754 123.07C86.7287 122.67 86.8554 122.12 86.8554 121.42C86.8554 120.72 86.7287 120.17 86.4754 119.77C86.2287 119.363 85.812 119.16 85.2254 119.16C84.6387 119.16 84.2154 119.363 83.9554 119.77C83.702 120.17 83.5754 120.72 83.5754 121.42ZM87.3554 115.69V115.79C87.2487 115.883 87.112 115.997 86.9454 116.13C86.7787 116.263 86.5987 116.403 86.4054 116.55C86.2187 116.697 86.0354 116.837 85.8554 116.97C85.682 117.097 85.5287 117.203 85.3954 117.29H84.2754V117.16C84.382 117.033 84.512 116.887 84.6654 116.72C84.8187 116.547 84.9687 116.37 85.1154 116.19C85.262 116.003 85.3854 115.837 85.4854 115.69H87.3554ZM93.1343 119.17C92.6077 119.17 92.201 119.373 91.9143 119.78C91.6343 120.18 91.4943 120.737 91.4943 121.45C91.4943 122.177 91.631 122.733 91.9043 123.12C92.1777 123.5 92.6043 123.69 93.1843 123.69C93.4843 123.69 93.781 123.653 94.0743 123.58C94.3677 123.5 94.6777 123.4 95.0043 123.28V124.72C94.691 124.853 94.3743 124.95 94.0543 125.01C93.7343 125.07 93.3877 125.1 93.0143 125.1C92.2543 125.1 91.6343 124.947 91.1543 124.64C90.6743 124.333 90.3177 123.907 90.0843 123.36C89.8577 122.813 89.7443 122.173 89.7443 121.44C89.7443 120.72 89.8743 120.083 90.1343 119.53C90.401 118.977 90.7877 118.543 91.2943 118.23C91.801 117.917 92.4177 117.76 93.1443 117.76C93.4977 117.76 93.8577 117.803 94.2243 117.89C94.591 117.97 94.9443 118.093 95.2843 118.26L94.7543 119.62C94.4877 119.493 94.221 119.387 93.9543 119.3C93.6877 119.213 93.4143 119.17 93.1343 119.17ZM99.4201 125H95.9501V124.03L96.8301 123.66V119.2L95.9501 118.83V117.86H99.4201V118.83L98.5401 119.2V123.66L99.4201 124.03V125ZM107.161 121.42C107.161 122.16 107.041 122.807 106.801 123.36C106.561 123.907 106.188 124.333 105.681 124.64C105.181 124.947 104.531 125.1 103.731 125.1C102.944 125.1 102.298 124.947 101.791 124.64C101.284 124.333 100.908 123.903 100.661 123.35C100.421 122.797 100.301 122.15 100.301 121.41C100.301 120.67 100.421 120.027 100.661 119.48C100.908 118.933 101.284 118.51 101.791 118.21C102.298 117.903 102.948 117.75 103.741 117.75C104.534 117.75 105.181 117.903 105.681 118.21C106.188 118.51 106.561 118.937 106.801 119.49C107.041 120.037 107.161 120.68 107.161 121.42ZM102.091 121.42C102.091 122.12 102.218 122.67 102.471 123.07C102.731 123.47 103.151 123.67 103.731 123.67C104.318 123.67 104.738 123.47 104.991 123.07C105.244 122.67 105.371 122.12 105.371 121.42C105.371 120.72 105.244 120.17 104.991 119.77C104.744 119.363 104.328 119.16 103.741 119.16C103.154 119.16 102.731 119.363 102.471 119.77C102.218 120.17 102.091 120.72 102.091 121.42ZM112.97 122.93C112.97 123.337 112.87 123.707 112.67 124.04C112.47 124.367 112.17 124.627 111.77 124.82C111.37 125.007 110.867 125.1 110.26 125.1C109.833 125.1 109.453 125.063 109.12 124.99C108.793 124.917 108.473 124.807 108.16 124.66V123.11C108.52 123.277 108.887 123.417 109.26 123.53C109.64 123.643 110.003 123.7 110.35 123.7C110.683 123.7 110.92 123.64 111.06 123.52C111.207 123.4 111.28 123.243 111.28 123.05C111.28 122.817 111.163 122.63 110.93 122.49C110.703 122.35 110.373 122.18 109.94 121.98C109.66 121.847 109.387 121.697 109.12 121.53C108.86 121.357 108.647 121.137 108.48 120.87C108.313 120.597 108.23 120.247 108.23 119.82C108.23 119.153 108.46 118.643 108.92 118.29C109.38 117.937 109.997 117.76 110.77 117.76C111.183 117.76 111.567 117.807 111.92 117.9C112.28 117.993 112.627 118.113 112.96 118.26L112.42 119.59C112.1 119.45 111.8 119.343 111.52 119.27C111.247 119.19 110.98 119.15 110.72 119.15C110.447 119.15 110.243 119.207 110.11 119.32C109.977 119.433 109.91 119.577 109.91 119.75C109.91 119.89 109.957 120.013 110.05 120.12C110.143 120.22 110.29 120.323 110.49 120.43C110.69 120.537 110.953 120.667 111.28 120.82C111.633 120.98 111.937 121.153 112.19 121.34C112.443 121.527 112.637 121.747 112.77 122C112.903 122.253 112.97 122.563 112.97 122.93Z" fill="white"/>
<path d="M84.9316 55.8937C84.6686 55.8451 84.6039 55.6185 84.5027 55.4323C83.3052 53.2633 81.4078 52.2799 78.9844 52.1302C77.3823 52.0331 75.8409 52.3851 74.2833 52.636C72.7742 52.8829 71.2611 53.1176 69.7602 53.3968C68.0246 53.7206 66.2809 53.9917 64.5412 54.3033C62.393 54.6877 60.2366 55.0155 58.0843 55.3919C57.2226 55.5416 56.3689 55.7399 55.495 55.8087C55.3454 55.8208 55.1957 55.8694 55.05 55.7601C54.9327 55.493 55.0338 55.2867 55.228 55.0924C57.619 52.6846 60.006 50.2687 62.4051 47.8689C63.0686 47.2053 63.7725 46.578 64.4401 45.9144C64.8325 45.5299 65.3301 45.4773 65.8278 45.3923C67.9518 45.0362 70.0758 44.6922 72.1957 44.3199C74.7283 43.8707 77.2569 43.4054 79.8097 43.0938C81.0396 42.944 82.2938 42.9602 83.5075 43.3528C84.438 43.6522 84.972 44.2754 85.1338 45.2143C85.2309 45.7646 85.0893 45.9103 84.527 45.9144C83.5843 45.9184 82.6417 45.9265 81.699 45.9144C81.2662 45.9103 81.0801 46.0843 81.1084 46.5173C81.1286 46.833 81.1084 47.1567 81.1124 47.4724C81.1205 48.1522 81.165 48.2331 81.8487 48.2655C82.7388 48.3019 83.6329 48.2979 84.5229 48.2817C84.9639 48.2736 85.1581 48.3991 85.1581 48.8806C85.1419 51.0133 85.1541 53.1459 85.15 55.2745C85.15 55.5011 85.1905 55.752 84.9275 55.8937H84.9316Z" fill="white"/>
<path d="M117.625 55.6187C117.419 55.8494 117.16 55.7684 116.913 55.7522C115.788 55.6754 114.684 55.4325 113.571 55.2545C111.067 54.8539 108.567 54.4168 106.066 53.9717C103.352 53.4901 100.629 53.0571 97.9263 52.5189C96.923 52.3206 95.9035 52.1587 94.884 52.098C92.2826 51.9402 90.0251 52.6443 88.4432 54.87C88.2126 55.1938 88.1034 55.5985 87.7797 55.8898C87.5167 55.7401 87.5572 55.4892 87.541 55.2666C87.4358 53.7815 88.1155 52.5715 88.9287 51.4182C89.6852 50.3458 90.6198 49.4191 91.5139 48.464C92.5091 47.3957 93.5772 46.3961 94.6048 45.3561C95.1105 44.8422 95.7093 44.4253 96.1543 43.8467C96.3687 43.5674 96.7126 43.6484 97.0039 43.6969C98.1124 43.8871 99.221 44.0935 100.329 44.2918C102.53 44.6843 104.727 45.1133 106.944 45.3925C107.49 45.4613 107.919 45.6677 108.304 46.0602C109.489 47.2743 110.703 48.46 111.904 49.6578C113.676 51.4262 115.448 53.1906 117.216 54.9631C117.398 55.1452 117.653 55.295 117.617 55.6187H117.625Z" fill="white"/>
<path d="M91.0203 6.44218C91.2995 6.59191 91.2995 6.8428 91.2995 7.06538C91.2995 8.47365 91.4168 9.89002 91.1902 11.2861C91.0001 12.4799 90.3285 13.4593 89.5517 14.3576C85.8054 18.7039 81.5453 22.5442 77.532 26.6274C76.2009 27.9831 74.8618 29.3185 73.9434 31.0141C73.4741 31.8842 73.2031 32.8109 73.0331 33.77C72.932 34.3527 73.1343 34.895 73.288 35.4453C73.3406 35.6315 73.462 35.8176 73.3082 36.0402C72.9522 36.1009 72.8349 35.8055 72.6933 35.5789C71.5443 33.7578 71.52 31.8113 72.1067 29.8163C72.7176 27.7443 73.9111 26.0123 75.3109 24.3977C76.3587 23.1917 77.5724 22.1517 78.6526 20.9781C79.8461 19.6832 81.1893 18.5299 82.3787 17.2389C83.3699 16.1665 84.527 15.256 85.4777 14.1513C86.481 12.9817 87.7312 12.0631 88.7062 10.8612C89.5315 9.84146 90.1667 8.73669 90.547 7.47815C90.6562 7.11798 90.7331 6.73759 91.0163 6.43408L91.0203 6.44218Z" fill="white"/>
<path d="M91.0163 0C91.2833 0.157824 91.2105 0.396583 91.2105 0.602968C91.2186 1.76034 91.1943 2.92176 91.2267 4.07914C91.2631 5.32959 90.6077 6.29272 89.932 7.23156C88.5727 9.1295 86.7966 10.643 85.1702 12.29C82.4394 15.0499 79.6357 17.741 76.9413 20.5333C75.4322 22.0994 73.8747 23.6493 72.8025 25.5836C72.2159 26.6439 71.8397 27.7567 71.8194 28.9789C71.8194 29.1407 71.8478 29.3188 71.6778 29.4807C71.3016 29.4281 71.2247 29.1205 71.16 28.8089C70.8121 27.1376 71.0103 25.5067 71.4998 23.8921C72.224 21.4883 73.5915 19.4933 75.3352 17.7086C78.5393 14.4227 81.8245 11.2217 85.0529 7.96403C86.3192 6.68525 87.6422 5.46718 88.8357 4.1196C89.7459 3.08768 90.2638 1.85746 90.6805 0.570593C90.7452 0.372302 90.7533 0.129496 91.0163 0.00404676V0Z" fill="white"/>
<path d="M77.0384 40.5649C76.7552 40.7348 76.5812 40.5891 76.3992 40.4718C74.2104 39.0433 73.2637 36.4533 73.9758 33.912C74.433 32.2771 75.3675 30.9417 76.5327 29.7519C78.2359 28.0118 79.9796 26.3122 81.699 24.5842C83.6167 22.6539 85.5141 20.7074 87.4439 18.7852C88.2207 18.0123 88.957 17.2231 89.5517 16.2964C90.106 15.4345 90.4418 14.4956 90.7493 13.5365C90.8019 13.3666 90.7897 13.1642 91.0041 13.0469C91.2347 13.1764 91.2105 13.407 91.2105 13.6134C91.2186 14.9569 91.255 16.3005 91.2105 17.6399C91.1741 18.6678 90.5915 19.5015 90.0251 20.323C89.2685 21.4196 88.3704 22.3949 87.4277 23.3297C85.1621 25.5757 82.8966 27.8257 80.6512 30.0918C79.5386 31.2128 78.3168 32.2285 77.358 33.4911C76.4679 34.6687 75.7883 35.9475 75.768 37.4893C75.7559 38.331 75.9825 39.0676 76.5489 39.711C76.7552 39.9457 77.0627 40.1602 77.0465 40.5649H77.0384Z" fill="white"/>
<path d="M99.4394 22.2008C99.5972 22.1765 99.6781 22.2656 99.7428 22.3667C100.394 23.3622 100.851 24.4063 100.928 25.6325C101.046 27.4899 100.451 29.1208 99.5972 30.7152C98.6181 32.5443 97.279 34.0619 95.7862 35.4904C93.8442 37.3478 91.8861 39.1972 90.1222 41.2287C89.0946 42.4103 88.423 43.8024 88.0063 45.3119C87.9739 45.4252 87.9415 45.5344 87.9011 45.6437C87.893 45.672 87.8525 45.6882 87.8202 45.7166C87.541 45.7368 87.4844 45.5264 87.4803 45.3281C87.4641 44.021 87.3751 42.7098 87.5167 41.4067C87.6745 39.9418 88.5039 38.7885 89.3899 37.6797C90.8585 35.8384 92.586 34.2359 94.269 32.5969C95.4018 31.4962 96.5265 30.3793 97.4975 29.1451C98.695 27.6154 99.6458 25.9279 99.5851 23.8681C99.5729 23.5079 99.5082 23.172 99.399 22.8321C99.3302 22.6217 99.1967 22.387 99.4475 22.2049L99.4394 22.2008Z" fill="white"/>
<path d="M87.7393 39.0065C87.5006 38.881 87.5612 38.6746 87.5612 38.5047C87.5532 37.5334 87.6098 36.5541 87.5329 35.587C87.4156 34.1301 87.978 32.9363 88.8033 31.8154C90.2112 29.8972 91.9427 28.2825 93.6298 26.6193C94.8071 25.4579 95.9197 24.256 96.5225 22.6778C97.1576 21.0267 97.0929 19.493 95.77 18.1616C95.6648 18.0564 95.5636 17.939 95.5475 17.7448C95.7416 17.5222 95.9723 17.6193 96.1584 17.7448C97.716 18.805 98.7638 20.1566 98.8973 22.1315C99.0551 24.4624 98.1569 26.3441 96.6438 28.0155C95.2926 29.5087 93.8159 30.8806 92.412 32.3253C91.1902 33.5838 89.7823 34.6845 88.953 36.2951C88.6131 36.9548 88.3663 37.6468 88.1195 38.3428C88.0346 38.5816 87.9982 38.8689 87.7352 39.0024L87.7393 39.0065Z" fill="white"/>
<path d="M101.005 28.6431C101.483 29.072 101.58 29.59 101.604 30.1039C101.681 31.8683 101.697 33.6246 100.936 35.2879C100.245 36.8013 99.4394 38.2298 98.3147 39.4924C96.9877 40.9897 95.5596 42.3818 94.1557 43.8022C93.5327 44.4335 92.8814 45.0405 92.2502 45.6637C92.1127 45.7973 91.9792 45.9146 91.7769 45.9146C90.7007 45.9146 89.6246 45.9146 88.5484 45.9106C88.4877 45.9106 88.427 45.8701 88.3057 45.8256C88.6536 45.2024 89.0541 44.6521 89.487 44.1341C90.8625 42.483 92.5132 41.0909 93.9656 39.5127C95.5151 37.8211 97.2831 36.34 98.6667 34.4906C99.7145 33.0905 100.532 31.5891 100.847 29.849C100.916 29.4767 100.811 29.0801 101.009 28.6512L101.005 28.6431Z" fill="white"/>
<path d="M89.6327 48.4279C88.7669 49.5569 88.3097 50.864 87.8768 52.1833C87.8606 52.2318 87.7797 52.2601 87.7352 52.2925C87.4763 52.1954 87.4682 51.9809 87.4642 51.7826C87.4561 50.775 87.4601 49.7714 87.452 48.7637C87.452 48.4279 87.5855 48.27 87.9294 48.2781C88.4635 48.2903 88.9975 48.2781 89.5315 48.2781C89.5639 48.3267 89.6003 48.3712 89.6327 48.4198V48.4279Z" fill="white"/>
<path d="M117.633 48.1804C117.633 49.0707 116.998 49.7061 116.104 49.7061C115.23 49.7061 114.578 49.0545 114.587 48.1642C114.595 47.3266 115.173 46.6588 116.112 46.6548C117.038 46.6508 117.637 47.3589 117.633 48.1804ZM116.104 49.4754C116.795 49.5159 117.406 48.9412 117.402 48.1885C117.398 47.4439 116.856 46.8855 116.12 46.8855C115.363 46.8855 114.825 47.4196 114.821 48.1723C114.813 49.0181 115.517 49.524 116.104 49.4794V49.4754Z" fill="white"/>
<path d="M115.533 48.1844C115.533 47.9132 115.533 47.6381 115.533 47.3669C115.533 47.2941 115.553 47.2658 115.63 47.2658C115.865 47.2739 116.1 47.2455 116.334 47.3022C116.706 47.3912 116.86 47.8202 116.626 48.1237C116.593 48.1682 116.549 48.2006 116.504 48.2289C116.411 48.2855 116.407 48.2855 116.468 48.3827C116.581 48.5729 116.694 48.7631 116.808 48.9533C116.824 48.9775 116.836 49.0018 116.848 49.0302C116.868 49.0747 116.864 49.103 116.804 49.0949C116.787 49.0949 116.775 49.0868 116.759 49.0909C116.573 49.1313 116.484 49.0302 116.407 48.8804C116.334 48.7307 116.241 48.5891 116.16 48.4474C116.128 48.3908 115.942 48.3543 115.889 48.3908C115.861 48.411 115.869 48.4434 115.869 48.4717C115.869 48.6376 115.869 48.8035 115.869 48.9694C115.869 49.0868 115.853 49.103 115.744 49.103C115.505 49.103 115.537 49.1273 115.537 48.9007C115.537 48.6619 115.537 48.4231 115.537 48.1844H115.533ZM115.869 47.8242C115.869 47.8971 115.869 47.9659 115.869 48.0387C115.869 48.0832 115.885 48.1115 115.934 48.1115C116.027 48.1115 116.124 48.1115 116.217 48.0913C116.342 48.0589 116.427 47.9254 116.415 47.7918C116.399 47.6381 116.318 47.5571 116.164 47.5531C116.1 47.5531 116.031 47.5531 115.966 47.5531C115.897 47.549 115.865 47.5733 115.869 47.6462C115.873 47.7069 115.869 47.7676 115.869 47.8283V47.8242Z" fill="white"/>
<path d="M9.54459 80.8547C8.85277 80.3852 8.74759 79.673 8.784 78.8839C8.82446 78.0098 9.54863 77.6375 10.0179 77.0952C10.0058 76.9576 9.92084 76.901 9.83588 76.8443C8.16905 75.6546 7.66334 73.4127 8.44416 71.4581C8.83254 70.4828 9.54863 69.7625 10.556 69.4185C11.5796 69.0705 12.6395 68.8398 13.7278 69.0624C15.4473 69.4104 17.1748 69.2283 18.967 69.2243C19.1127 69.637 18.7728 70.0093 18.7324 70.4181C18.6676 71.0332 18.2105 71.017 17.7533 71.0089C17.5591 71.0089 17.3447 70.9603 17.1626 71.1546C17.1626 71.2153 17.1343 71.3083 17.1667 71.3731C17.5672 72.1339 17.5308 72.9675 17.5429 73.785C17.5632 75.3511 16.3009 76.8565 14.6422 77.2935C13.9463 77.4756 13.2424 77.4756 12.5344 77.4432C11.6767 77.4028 11.2033 77.9086 10.8392 78.5682C10.6693 78.8798 10.7785 79.1348 11.0779 79.3412C11.6929 79.7701 12.4009 79.8065 13.1048 79.8268C13.7926 79.847 14.4844 79.8389 15.1762 79.8268C16.5113 79.7985 17.6319 80.2436 18.4209 81.3322C18.9468 82.0606 18.9468 82.9347 18.9063 83.7967C18.8254 85.4761 17.814 86.4958 16.3575 87.0341C14.1284 87.8596 11.8345 88.0255 9.53245 87.2566C7.65525 86.6294 6.78542 85.1402 7.17381 83.2099C7.38418 82.1618 8.18119 81.6316 9.0591 81.1865C9.21689 81.1056 9.42727 81.1056 9.54864 80.8466L9.54459 80.8547ZM12.7731 81.7854C12.587 81.7854 12.2148 81.7611 11.8466 81.7935C11.4623 81.8299 11.0779 81.8947 10.7057 81.9918C10.2769 82.1011 9.85206 82.267 9.63359 82.6797C8.91346 84.0314 9.10765 85.3101 10.7988 85.727C12.1298 86.0547 13.5053 86.0183 14.8323 85.6177C15.6576 85.3708 16.3616 84.9217 16.6731 84.0395C16.9968 83.1128 16.5113 82.1739 15.5605 81.9716C14.7029 81.7895 13.829 81.7449 12.7731 81.7814V81.7854ZM15.2733 73.4248C15.2773 71.713 14.7595 71.0008 13.3192 70.7418C12.2593 70.5516 11.1952 70.9522 10.6895 71.7333C10.2 72.494 10.1959 74.1654 10.6855 74.8776C11.2964 75.7638 12.591 76.1199 13.829 75.7355C14.8364 75.4239 15.2693 74.7319 15.2733 73.4248Z" fill="white"/>
<path d="M97.6383 96.3699C98.3179 95.5362 99.0178 94.9009 99.9443 94.6176C101.348 94.1846 102.76 94.1361 104.128 94.7674C105.151 95.2408 105.677 96.1271 105.94 97.1792C106.069 97.7013 106.13 98.2354 106.13 98.7737C106.13 101.424 106.13 104.075 106.134 106.726C106.134 107.426 106.102 107.458 105.374 107.381C104.908 107.333 104.435 107.434 103.99 107.308C103.816 107.082 103.873 106.839 103.873 106.608C103.869 104.326 103.873 102.043 103.865 99.7611C103.865 99.2269 103.824 98.6887 103.759 98.1545C103.61 96.9243 102.441 96.0623 101.134 96.1959C99.5033 96.3618 98.5769 97.1954 98.2289 98.7979C98.1076 99.3564 98.0428 99.9189 98.0469 100.494C98.059 102.574 98.055 104.654 98.055 106.734C98.055 106.916 98.0792 107.102 97.9619 107.345C97.3793 107.345 96.7644 107.369 96.1535 107.333C95.8541 107.316 95.9027 107.017 95.9027 106.811C95.8986 105.584 95.9188 104.362 95.8986 103.136C95.8703 101.477 96.02 99.8177 95.7085 98.1666C95.49 97.0012 94.5271 96.1473 93.3336 96.1878C91.6628 96.2444 90.5866 96.9162 90.2346 98.628C90.0849 99.3523 89.9676 100.077 89.9717 100.821C89.9838 102.816 89.9797 104.815 89.9797 106.811C89.9797 107.426 89.9272 107.462 89.3041 107.397C88.9885 107.365 88.6649 107.357 88.3453 107.369C87.9529 107.385 87.8072 107.219 87.8112 106.835C87.8234 105.427 87.8315 104.014 87.8153 102.606C87.7951 100.846 87.8881 99.0853 87.7465 97.3249C87.6818 96.5075 87.8962 95.69 87.7951 94.8645C87.7667 94.6176 87.8962 94.4841 88.1592 94.5084C88.1754 94.5084 88.1916 94.5124 88.2077 94.5124C89.1032 94.5286 89.6507 94.963 89.8503 95.8155C89.8665 95.8924 89.8988 95.9652 89.9514 96.1352C90.9912 94.8321 92.306 94.3141 93.9041 94.3182C95.5183 94.3182 96.7968 94.8362 97.6383 96.3699Z" fill="white"/>
<path d="M129.292 107.369C129.118 107.211 129.134 107.017 129.146 106.839C129.304 104.391 129.195 101.942 129.215 99.49C129.235 96.6046 129.223 93.7153 129.207 90.8299C129.207 90.4698 129.308 90.2957 129.684 90.3079C131.719 90.3645 133.758 90.1703 135.785 90.4212C137.242 90.6033 138.666 90.927 139.908 91.793C140.814 92.4243 141.546 93.2296 141.975 94.2211C143.266 97.2117 143.363 100.251 141.995 103.241C140.915 105.601 138.884 106.722 136.416 107.159C134.414 107.515 132.387 107.325 130.372 107.369C130.004 107.377 129.64 107.369 129.288 107.369H129.292ZM131.481 98.8344C131.481 100.829 131.481 102.829 131.481 104.824C131.481 105.16 131.525 105.414 131.958 105.423C133.338 105.443 134.717 105.451 136.068 105.099C138.087 104.573 139.491 103.387 140.138 101.364C140.697 99.6276 140.624 97.8915 140.134 96.1635C139.653 94.4801 138.621 93.3146 136.926 92.7643C135.397 92.2706 133.823 92.2139 132.237 92.2503C131.537 92.2665 131.489 92.3029 131.485 92.9949C131.485 94.9414 131.485 96.8879 131.485 98.8344H131.481Z" fill="white"/>
<path d="M88.104 70.4748C88.2092 70.1794 88.0514 69.8921 88.0554 69.5967C88.0716 68.1358 88.0676 66.6749 88.0554 65.214C88.0554 64.862 88.1525 64.6434 88.5247 64.5625C89.0952 64.4371 89.5928 64.089 90.1471 64C90.3696 64.1942 90.317 64.4087 90.317 64.603C90.321 70.1915 90.317 75.7842 90.3291 81.3728C90.3291 81.826 90.1875 82.0364 89.7223 81.9838C89.3096 81.9393 88.816 82.1538 88.5045 81.8624C88.2011 81.5832 88.3993 81.0531 88.2051 80.6646C87.9745 80.6079 87.8896 80.8103 87.7642 80.9236C85.8505 82.6677 82.8041 82.7567 80.8217 81.0773C79.8953 80.2882 79.3653 79.2077 79.1185 78.0504C78.7261 76.1889 78.7463 74.3152 79.3491 72.482C79.9964 70.5072 81.3598 69.362 83.4272 69.0544C85.0171 68.8156 86.421 69.2365 87.6509 70.2563C87.7722 70.3575 87.8855 70.5031 88.104 70.4708V70.4748ZM88.0716 75.9825C88.0312 75.3431 88.019 74.7037 87.9422 74.0724C87.8289 73.1578 87.5821 72.2433 86.8417 71.6524C85.2963 70.4182 82.614 70.5234 81.7563 72.826C81.0523 74.7077 81.0604 76.634 81.7523 78.5279C82.173 79.6853 83.0752 80.3044 84.2768 80.3813C85.361 80.4501 86.3927 80.2316 87.1533 79.3534C87.9988 78.3741 87.9948 77.1641 88.0716 75.9825Z" fill="white"/>
<path d="M24.0915 105.916C23.6383 106.418 23.1205 106.835 22.4934 107.106C20.8509 107.81 19.18 107.822 17.6224 107C16.4694 106.389 15.7007 105.325 15.3163 104.054C14.6609 101.881 14.7135 99.7123 15.4701 97.5756C16.7607 93.9213 20.863 93.6704 23.0072 95.107C23.3066 95.3094 23.5615 95.5926 23.9054 95.6938C24.1319 95.5805 24.0996 95.3984 24.0955 95.2365C24.0834 93.6259 24.0712 92.0153 24.051 90.4047C24.051 90.2469 24.0267 90.0729 24.1886 90.0081C24.8156 89.7451 25.4508 89.4982 26.09 89.3525C26.2883 89.5468 26.2397 89.741 26.2397 89.9191C26.2397 95.5077 26.2438 101.096 26.2438 106.685C26.2438 107.332 26.2114 107.373 25.556 107.361C24.3585 107.344 24.4839 107.563 24.2857 106.248C24.2695 106.151 24.2735 106.045 24.0915 105.916ZM24.0996 101.315C24.1157 100.097 23.9418 99.0405 23.5574 98.0288C23.0922 96.7986 22.0848 96.2644 20.8428 96.1997C19.5765 96.1349 18.5084 96.5841 17.9177 97.7779C17.0722 99.4897 17.0479 101.282 17.4525 103.128C18.0067 105.665 20.4665 106.07 22.2911 105.321C23.0517 105.009 23.5291 104.402 23.7476 103.617C23.9701 102.824 24.1805 102.027 24.0996 101.323V101.315Z" fill="white"/>
<path d="M67.7096 76.8849C67.1351 78.3822 66.5485 79.8471 66.0145 81.3282C65.8365 81.8179 65.5856 82.0324 65.0597 81.9959C64.5621 81.9595 64.0604 81.9878 63.5668 81.9878C63.4131 81.6236 63.5709 81.3606 63.6801 81.1138C65.181 77.6295 66.4028 74.036 67.8755 70.5436C68.5916 68.844 69.2713 67.1241 69.7932 65.3516C69.8862 65.04 70.0642 64.9105 70.3757 64.9227C70.4769 64.9227 70.578 64.9227 70.6792 64.9227C72.1518 64.9631 71.9778 64.696 72.5604 66.2176C74.4498 71.1506 76.3836 76.0715 78.2932 81.0004C78.4064 81.2878 78.629 81.5468 78.5723 82C77.8603 82 77.1482 82.0121 76.4321 81.9919C76.2177 81.9879 76.157 81.7693 76.0923 81.5953C75.5421 80.1547 74.9878 78.714 74.4578 77.2653C74.3446 76.9577 74.1625 76.8444 73.855 76.8485C72.9326 76.8646 72.0062 76.8201 71.0837 76.9051C70.4162 76.9658 69.7406 76.9577 69.069 76.8808C68.6361 76.8323 68.1991 76.8242 67.7096 76.8849ZM70.9381 67.7554C70.3595 70.1915 69.2834 72.3727 68.5511 74.6753C69.0285 74.8332 72.9609 74.8372 73.406 74.6996C73.406 74.2383 71.3265 68.3138 70.9381 67.7554Z" fill="white"/>
<path d="M53.2165 107.559C51.8571 107.64 50.5382 107.405 49.2274 107.074C48.8026 106.964 48.6934 106.746 48.7702 106.341C48.8552 105.908 49.0656 105.52 49.1991 105.107C49.3043 104.795 49.5389 104.876 49.7817 104.953C50.9711 105.337 52.1767 105.625 53.439 105.613C54.1348 105.605 54.7983 105.455 55.4578 105.228C56.5542 104.856 57.1408 104.059 57.1691 102.974C57.1974 101.958 56.6472 101.185 55.7086 100.68C54.5354 100.044 53.2933 99.5789 52.0715 99.0609C50.1256 98.2394 48.9199 96.8635 48.835 94.6783C48.7541 92.6225 49.8788 91.4004 51.4687 90.6477C52.6015 90.1095 53.8314 90.0448 55.0734 90.1459C56.2386 90.243 57.3714 90.4373 58.4759 90.8258C58.9007 90.9755 59.0382 91.1981 58.8804 91.6189C58.7591 91.9467 58.6782 92.2948 58.5568 92.6225C58.4314 92.9665 58.221 93.0515 57.8488 92.9018C56.5906 92.3959 55.296 92.0843 53.9204 92.1369C53.1801 92.1653 52.5287 92.4242 51.9583 92.8492C50.9954 93.5654 50.9145 95.1477 51.7196 96.0421C52.5813 97.0011 53.7788 97.3411 54.9116 97.8024C56.0161 98.2516 57.1206 98.6886 58.0511 99.4818C59.8919 101.048 59.9121 104.103 58.2979 105.827C57.2055 106.993 55.8057 107.494 54.2279 107.551C53.8921 107.563 53.5563 107.551 53.2165 107.551V107.559Z" fill="white"/>
<path d="M111.363 76.136C110.185 76.136 109.008 76.136 107.831 76.136C106.941 76.136 106.961 76.136 107.074 77.0061C107.248 78.3577 107.92 79.3451 109.142 79.9683C109.716 80.2597 110.351 80.3163 110.962 80.3001C111.966 80.2718 112.985 80.2273 113.932 79.8226C114.263 79.681 114.482 79.7862 114.628 80.0978C114.664 80.1747 114.704 80.2475 114.741 80.3244C115.23 81.3644 115.194 81.4575 114.114 81.7974C112.532 82.2952 110.934 82.3842 109.287 82.1131C106.961 81.7327 105.064 79.5798 104.78 77.4755C104.574 75.9256 104.663 74.4323 105.088 72.9472C105.929 69.993 108.871 68.3865 111.86 69.1918C114.077 69.7907 115.182 71.3163 115.574 73.4854C115.708 74.2179 115.639 74.9584 115.712 75.6909C115.752 76.0996 115.469 76.1441 115.149 76.1401C113.887 76.1401 112.625 76.1401 111.363 76.1401V76.132V76.136ZM107.034 74.141C107.212 74.3109 107.386 74.2826 107.548 74.2826C107.985 74.2866 108.422 74.2826 108.858 74.2826C110.169 74.2826 111.48 74.2826 112.787 74.2826C113.054 74.2826 113.365 74.2583 113.293 73.9022C113.102 72.9674 112.936 71.9881 112.063 71.4054C111.015 70.7053 109.894 70.6243 108.786 71.2718C107.689 71.9152 107.22 72.9512 107.034 74.1369V74.141Z" fill="white"/>
<path d="M38.9932 81.4617C36.2462 82.4896 33.5599 82.789 30.9787 81.1541C29.7812 80.3974 29.1541 79.1874 28.8264 77.856C28.2924 75.691 28.5027 73.5664 29.5991 71.6159C30.7279 69.6087 33.0784 68.6941 35.3521 69.0988C38.2124 69.6087 39.4059 71.7818 39.5192 74.2584C39.5394 74.6753 39.503 75.1002 39.5354 75.517C39.5758 76.0147 39.3533 76.1523 38.884 76.1483C36.6629 76.1321 34.4418 76.1402 32.2207 76.1361C32.0023 76.1361 31.7838 76.1361 31.5653 76.1361C31.0151 76.1523 30.8897 76.2737 30.9585 76.7998C31.2336 78.8798 32.5363 80.2922 34.6927 80.2517C35.789 80.2315 36.8814 80.2274 37.9171 79.7985C38.0991 79.7216 38.3176 79.7094 38.4147 79.8996C38.6655 80.3852 38.9083 80.8789 38.9973 81.4576L38.9932 81.4617ZM37.2253 74.1451C37.1605 73.6433 37.0634 73.1415 36.8976 72.6478C36.4404 71.276 34.8262 70.6325 33.6408 70.9118C32.1843 71.2557 31.4521 72.2472 31.0556 73.5867C30.8857 74.1654 30.9544 74.2746 31.5653 74.2787C33.2807 74.2827 34.9961 74.2787 36.7115 74.2787C36.8612 74.2787 37.0149 74.2989 37.2212 74.1411L37.2253 74.1451Z" fill="white"/>
<path d="M67.4573 101.42C66.2477 101.42 65.0339 101.42 63.8243 101.42C63.1203 101.42 63.1082 101.44 63.1851 102.124C63.2417 102.63 63.3671 103.108 63.5734 103.573C64.1843 104.941 65.3171 105.503 66.7372 105.613C67.8902 105.702 69.019 105.524 70.1194 105.192C70.5159 105.074 70.7182 105.155 70.8355 105.604C71.1349 106.762 71.1591 106.75 70.0061 107.154C68.3838 107.721 66.721 107.733 65.0906 107.324C62.6268 106.709 61.2391 105.05 60.8831 102.545C60.6605 100.963 60.7738 99.4089 61.3321 97.8914C62.7117 94.136 66.9152 93.3995 69.6946 95.2933C70.8476 96.0784 71.414 97.2844 71.6689 98.6319C71.8145 99.3927 71.7903 100.17 71.7903 100.939C71.7903 101.287 71.6689 101.457 71.2846 101.453C70.0061 101.436 68.7277 101.444 67.4492 101.444C67.4492 101.432 67.4492 101.424 67.4492 101.412L67.4573 101.42ZM66.2477 99.5667C66.9354 99.5667 67.6232 99.5667 68.315 99.5667C69.5449 99.5667 69.6015 99.4939 69.2334 98.3122C68.6993 96.5762 67.3683 95.8235 65.6084 96.2767C64.2572 96.6247 63.6463 97.6405 63.2943 98.8828C63.1365 99.4291 63.2215 99.5586 63.7798 99.5667C64.6011 99.5748 65.4264 99.5667 66.2477 99.5667Z" fill="white"/>
<path d="M171.534 80.6479C171.348 80.6398 171.271 80.7369 171.195 80.8219C169.92 82.2342 168.261 82.392 166.514 82.2301C165.397 82.1249 164.458 81.6312 163.844 80.7045C162.788 79.1101 162.917 76.3502 165.102 75.2697C166.259 74.6991 167.493 74.5089 168.755 74.3956C169.491 74.3309 170.228 74.258 170.968 74.2904C171.332 74.3066 171.47 74.1528 171.486 73.7886C171.522 73.0966 171.36 72.4572 171.053 71.8461C170.733 71.2149 169.524 70.7252 168.617 70.8345C167.586 70.9599 166.619 71.2796 165.68 71.7086C165.591 71.749 165.498 71.7774 165.369 71.8219C165.021 71.3443 164.887 70.7859 164.693 70.2598C164.641 70.1141 164.758 70.0049 164.891 69.9523C166.914 69.1631 168.969 68.6694 171.134 69.3372C172.785 69.847 173.598 70.8749 173.618 72.5867C173.65 75.557 173.622 78.5274 173.63 81.4977C173.63 81.8659 173.476 82.0197 173.116 81.9954C172.983 81.9873 172.845 81.9792 172.712 81.9954C172.182 82.0602 171.874 81.8902 171.858 81.3075C171.85 81.0647 171.773 80.8097 171.53 80.6559L171.534 80.6479ZM171.482 76.678C171.49 75.8484 171.437 75.8201 170.588 75.9091C169.985 75.9738 169.382 75.9941 168.779 76.0386C167.788 76.1074 166.837 76.2976 166.105 77.0381C165.239 77.9163 165.47 79.6119 166.522 80.1218C167.112 80.4051 167.736 80.5062 168.387 80.3889C170.438 80.0166 171.462 78.7904 171.482 76.678Z" fill="white"/>
<path d="M157.838 105.702C157.235 106.268 156.782 106.823 156.115 107.102C154.497 107.774 152.878 107.826 151.296 107.013C149.977 106.333 149.536 105.123 149.528 103.739C149.52 102.387 150.083 101.319 151.292 100.615C152.421 99.9592 153.675 99.8176 154.925 99.68C155.71 99.595 156.503 99.5829 157.292 99.5707C157.689 99.5626 157.846 99.4008 157.802 99.0163C157.794 98.9313 157.79 98.8504 157.782 98.7654C157.547 96.2119 156.086 95.7668 153.501 96.4345C153.016 96.5599 152.551 96.7704 152.089 96.9687C151.745 97.1184 151.567 97.0132 151.422 96.6894C150.823 95.3661 150.819 95.3702 152.211 94.9129C153.615 94.4556 155.043 94.1521 156.523 94.4111C158.886 94.8239 159.898 95.9367 159.946 98.3405C160.003 101.173 159.958 104.01 159.966 106.847C159.966 107.203 159.837 107.389 159.465 107.365C159.364 107.357 159.262 107.365 159.161 107.365C158.36 107.365 158.364 107.365 158.154 106.604C158.081 106.337 157.976 106.074 157.846 105.702H157.838ZM157.705 102.149C157.713 101.21 157.713 101.222 156.77 101.214C155.925 101.206 155.095 101.331 154.266 101.452C153.667 101.541 153.093 101.736 152.595 102.112C151.936 102.614 151.737 103.302 151.871 104.075C152.012 104.904 152.486 105.503 153.368 105.617C155.735 105.916 157.717 104.957 157.705 102.149Z" fill="white"/>
<path d="M34.0803 94.3386C37.4504 94.2172 39.6634 96.4065 40.0841 99.6277C40.2945 101.222 40.1893 102.768 39.5784 104.269C38.8057 106.175 36.8071 107.523 34.7357 107.567C33.1619 107.6 31.6771 107.369 30.4472 106.297C29.363 105.354 28.6671 104.188 28.4001 102.756C28.0279 100.773 28.2707 98.8629 29.1364 97.0702C30.0022 95.2815 31.6165 94.5612 33.5058 94.3427C33.7364 94.3143 33.9751 94.3427 34.0803 94.3427V94.3386ZM30.601 100.923C30.5241 101.712 30.6819 102.493 30.9044 103.246C31.2766 104.5 32.0858 105.362 33.4208 105.568C35.3709 105.868 36.6533 105.326 37.4261 103.428C38.037 101.922 37.9844 100.34 37.5313 98.782C37.1955 97.6448 36.5522 96.7991 35.3628 96.3944C33.4411 95.7388 31.398 96.7829 30.8801 98.7334C30.69 99.4497 30.5363 100.17 30.605 100.927L30.601 100.923Z" fill="white"/>
<path d="M114.234 94.3346C117.357 94.2536 119.578 96.2851 120.059 99.5509C120.29 101.105 120.201 102.618 119.631 104.103C118.947 105.88 117.628 106.952 115.832 107.402C114.363 107.766 112.891 107.636 111.491 107.009C110.334 106.491 109.504 105.609 108.986 104.488C107.87 102.076 107.943 99.6196 109.023 97.2361C109.893 95.3139 111.62 94.5733 113.615 94.3427C113.845 94.3143 114.084 94.3427 114.234 94.3427V94.3346ZM110.58 101.048C110.516 101.692 110.669 102.396 110.835 103.1C111.159 104.48 112.316 105.516 113.696 105.613C115.735 105.755 116.734 105.115 117.349 103.59C118.02 101.926 118 100.19 117.406 98.4704C116.948 97.1511 115.998 96.4753 114.679 96.2244C113.331 95.9695 111.79 96.7303 111.179 97.9402C110.698 98.8912 110.548 99.911 110.58 101.048Z" fill="white"/>
<path d="M54.2091 80.4945C53.7479 80.9113 53.3069 81.3403 52.785 81.6843C51.5753 82.4774 48.3792 82.5827 46.9997 81.1865C45.6727 79.847 45.4906 76.3425 47.999 75.2014C49.0751 74.7117 50.2079 74.5215 51.365 74.392C52.1539 74.303 52.9387 74.2706 53.7317 74.2868C54.0999 74.2949 54.2293 74.1371 54.2455 73.7769C54.3305 71.5431 52.696 70.3088 50.5032 70.9846C49.7345 71.2193 48.9456 71.4014 48.2295 71.8425C47.8412 71.3934 47.6712 70.8875 47.5216 70.3776C47.4609 70.1753 47.562 70.0053 47.7562 69.9284C49.7103 69.1434 51.7048 68.6982 53.8045 69.2931C55.4633 69.7625 56.3574 70.8268 56.3816 72.5305C56.4221 75.517 56.3938 78.5035 56.4019 81.49C56.4019 81.8623 56.24 82.0121 55.884 81.9837C55.8152 81.9797 55.7505 81.9837 55.6817 81.9837C55.0641 81.9864 54.6905 81.687 54.5611 81.0854C54.5166 80.879 54.5368 80.6402 54.2131 80.4905L54.2091 80.4945ZM50.5316 80.446C53.1451 80.3246 54.2172 78.8353 54.2293 76.4478C54.2293 75.9783 54.023 75.7962 53.5618 75.8691C53.1289 75.9338 52.692 75.9095 52.2591 75.9541C51.3771 76.0431 50.483 76.0836 49.6577 76.4639C48.6341 76.9374 48.1082 77.9491 48.355 78.9648C48.5815 79.8996 49.3907 80.45 50.5356 80.4419L50.5316 80.446Z" fill="white"/>
<path d="M119.899 81.9347C119.296 82.0318 118.661 81.9833 118.03 81.963C117.876 81.959 117.791 81.8497 117.771 81.7C117.759 81.5988 117.755 81.4977 117.755 81.4005C117.755 77.4549 117.747 73.5134 117.747 69.5678C117.747 69.4869 117.775 69.4059 117.799 69.2522C118.333 69.2522 118.867 69.2238 119.393 69.2643C119.669 69.2845 119.656 69.5718 119.693 69.7823C119.741 70.0696 119.648 70.3933 119.907 70.6119C120.085 70.6402 120.174 70.5269 120.267 70.4379C121.756 69.0215 123.528 68.7706 125.47 69.1429C127.804 69.588 128.525 71.3767 128.569 72.9995C128.65 75.9334 128.605 78.8713 128.614 81.8093C128.614 81.8578 128.585 81.9023 128.549 82.0197C127.857 82.044 127.145 81.9226 126.494 82.0237C126.291 81.87 126.32 81.7121 126.32 81.5665C126.324 78.9968 126.267 76.4271 126.352 73.8614C126.433 71.4657 124.714 70.6645 122.832 70.9437C121.157 71.1946 120.215 72.3479 120.097 74.0597C119.936 76.4433 120.057 78.8227 120.012 81.2063C120.008 81.437 120.061 81.6757 119.891 81.9347H119.899Z" fill="white"/>
<path d="M153.628 69.9201C153.438 70.4502 153.28 70.9399 153.082 71.4174C152.957 71.7209 152.722 71.6926 152.451 71.5752C151.294 71.0775 150.096 70.8023 148.822 70.8873C148.268 70.9237 147.766 71.0856 147.313 71.3972C146.698 71.8221 146.613 72.5303 147.098 73.0968C147.414 73.461 147.831 73.6836 148.264 73.8697C149.453 74.3796 150.667 74.8329 151.828 75.4035C153.875 76.4111 154.255 77.876 153.551 80.0411C153.159 81.247 152.062 81.769 150.934 82.0361C149.052 82.4772 147.159 82.3598 145.314 81.765C144.715 81.5707 144.691 81.4898 144.869 80.8868C144.873 80.8706 144.881 80.8545 144.885 80.8383C145.237 79.6323 145.221 79.6809 146.411 80.0451C147.689 80.4376 148.996 80.6359 150.327 80.211C151.027 79.9884 151.545 79.5919 151.67 78.8634C151.799 78.0905 151.322 77.6009 150.703 77.2447C149.858 76.7551 148.935 76.4233 148.041 76.0348C147.268 75.6989 146.516 75.3306 145.812 74.8612C144.242 73.8131 144.303 71.0411 145.856 69.9849C146.993 69.2119 148.28 68.9732 149.599 68.9853C150.845 68.9974 152.071 69.2564 153.236 69.7218C153.341 69.7663 153.442 69.823 153.624 69.9161L153.628 69.9201Z" fill="white"/>
<path d="M91.911 69.3902C92.2508 69.1393 92.6513 69.2688 93.0236 69.2647C94.2494 69.2607 94.1928 69.0583 94.6702 70.4342C95.4672 72.7328 96.3087 75.0152 97.1218 77.3056C97.2999 77.8115 97.4415 78.3295 97.6114 78.8394C97.7004 79.1024 97.757 79.3897 97.9674 79.6042C98.1373 79.5394 98.113 79.3816 98.1495 79.2643C99.1528 76.0795 100.423 72.9877 101.475 69.8191C101.604 69.4306 101.855 69.2485 102.264 69.2566C102.814 69.2688 103.364 69.2566 103.923 69.2566C103.991 69.637 103.846 69.9122 103.741 70.1833C103.154 71.7009 102.539 73.2063 101.965 74.7278C101.127 76.9536 100.31 79.1914 99.4926 81.4252C99.3632 81.7814 99.1568 81.9877 98.7563 81.9796C98.2021 81.9675 97.6437 81.9594 97.0895 81.9837C96.7173 81.9999 96.5676 81.8299 96.4462 81.4981C95.3862 78.6006 94.3667 75.6869 93.2177 72.8218C92.8253 71.8425 92.4288 70.8632 92.0364 69.8798C91.9757 69.7301 91.8624 69.5885 91.911 69.3821V69.3902Z" fill="white"/>
<path d="M0.033136 65.0723H6.25947C6.14214 65.7643 5.8468 66.3349 5.62429 66.9216C5.52719 67.1766 5.20759 67.0714 4.98103 67.0795C4.33371 67.0997 4.28516 67.1402 4.28516 67.7715C4.28516 71.5835 4.28516 75.3915 4.28516 79.2036C4.28516 79.9886 4.33371 80.0331 5.11453 80.0372C5.46651 80.0372 5.81849 80.0372 6.21497 80.0372C6.36466 80.6361 6.32015 81.2148 6.26351 81.7894C6.23924 82.0161 6.00055 82.0282 5.81849 82.0282C4.03434 82.0201 2.25018 82.0039 0.470072 81.9877C0.356793 81.9877 0.243513 81.9554 0.0655023 81.927C0.166645 81.2876 0.381064 80.717 0.688537 80.1788C0.834183 79.9239 1.11334 80.0331 1.3399 80.0331C1.9508 80.0331 2.02362 79.9805 2.02362 79.3857C2.02362 75.4563 2.02362 71.5309 2.02362 67.6015C2.02362 67.4518 2.04789 67.298 1.91034 67.1361C1.3399 66.9823 0.708766 67.1766 0.0695458 67.0107C-0.0437338 66.3713 0.00885953 65.7481 0.0371794 65.0723H0.033136Z" fill="white"/>
<path d="M162.116 71.0051C161.129 71.0051 160.19 71.0051 159.252 71.0051C158.544 71.0051 158.499 71.0496 158.495 71.7375C158.495 73.9025 158.487 76.0676 158.495 78.2326C158.495 79.4183 159.078 80.1345 160.186 80.3976C160.627 80.5028 161.012 80.2762 161.416 80.2033C161.788 80.1386 161.966 80.2317 162.088 80.5959C162.541 81.9354 162.521 81.9677 161.088 82.1984C160.417 82.3077 159.753 82.3198 159.082 82.1944C157.492 81.8949 156.594 80.9884 156.339 79.394C156.266 78.9286 156.226 78.4632 156.226 77.9898C156.23 74.5662 156.238 71.1426 156.217 67.7191C156.217 67.2051 156.375 66.9461 156.881 66.8531C157.387 66.76 157.832 66.4484 158.402 66.3877C158.564 66.9138 158.487 67.4156 158.491 67.9052C158.499 69.4511 158.378 69.2488 159.834 69.2609C160.441 69.2649 161.044 69.2649 161.651 69.2609C161.958 69.2609 162.148 69.3823 162.124 69.702C162.092 70.1148 162.27 70.5275 162.116 71.0091V71.0051Z" fill="white"/>
<path d="M75.9776 91.6798C76.0989 92.2059 76.0342 92.6713 76.0423 93.1326C76.0706 94.7675 75.8238 94.5126 77.4704 94.5328C78.2229 94.5409 78.9754 94.5328 79.8008 94.5328C79.8008 95.0427 79.821 95.5081 79.7927 95.9694C79.7724 96.2931 79.4892 96.2769 79.2546 96.2769C78.3807 96.2769 77.5068 96.2931 76.6289 96.2729C76.192 96.2608 76.0342 96.4226 76.0382 96.8597C76.0544 98.8709 76.0382 100.886 76.0504 102.897C76.0504 103.298 76.107 103.703 76.1798 104.095C76.4145 105.354 77.3369 105.852 78.8905 105.576C79.1008 105.54 79.3072 105.435 79.5823 105.516C79.6996 105.92 79.8331 106.349 79.9423 106.782C80.0071 107.037 79.8655 107.207 79.6227 107.272C78.1946 107.677 76.7705 107.798 75.4152 107.033C74.3997 106.463 73.9102 105.504 73.8981 104.403C73.8495 100.562 73.8778 96.718 73.8778 92.8777C73.8778 92.6308 73.9062 92.3921 74.1772 92.299C74.7598 92.0926 75.3424 91.8943 75.9776 91.6758V91.6798Z" fill="white"/>
<path d="M133.537 66.3955C133.707 66.8164 133.614 67.2049 133.638 67.5853C133.65 67.8038 133.638 68.0223 133.642 68.2408C133.65 69.2363 133.671 69.2566 134.65 69.2606C135.52 69.2606 136.389 69.2606 137.194 69.2606C137.437 69.5034 137.393 69.7381 137.425 69.9486C137.563 70.9076 137.453 71.025 136.519 71.0129C135.746 71.0007 134.969 71.0129 134.197 71.0007C133.824 70.9926 133.638 71.1221 133.638 71.5228C133.646 73.7363 133.638 75.954 133.646 78.1675C133.646 78.6086 133.792 79.0255 133.934 79.4382C134.205 80.2354 135.079 80.4378 135.803 80.4014C135.868 80.4014 135.932 80.369 135.997 80.3568C137.073 80.1059 137.296 80.2516 137.53 81.3483C137.583 81.5951 137.518 81.7611 137.304 81.9027C135.694 82.9225 132.805 82.1981 131.911 80.5308C131.611 79.9724 131.486 79.3735 131.486 78.7381C131.486 75.1972 131.486 71.6563 131.486 68.1154C131.486 67.4544 131.789 67.0039 132.396 66.7638C132.752 66.6262 133.104 66.4643 133.529 66.4036L133.537 66.3955Z" fill="white"/>
<path d="M43.9694 76.5083C43.9694 78.5721 43.9775 80.6319 43.9694 82.6958C43.9654 83.8167 43.7793 84.8931 43.2129 85.8886C42.78 86.6494 42.1529 87.1715 41.3519 87.5114C40.9918 87.6652 40.7774 87.5681 40.6398 87.216C40.5185 86.9044 40.4011 86.5887 40.2514 86.2893C40.0775 85.9453 40.1503 85.7268 40.5023 85.5649C41.1172 85.2816 41.4611 84.7879 41.5582 84.1283C41.6796 83.3351 41.8212 82.542 41.8171 81.7326C41.8171 77.8275 41.8171 73.9183 41.8171 70.0132C41.8171 69.2726 41.8333 69.2565 42.5818 69.2565C42.8488 69.2565 43.1239 69.2848 43.3868 69.2484C43.8481 69.1877 43.9735 69.39 43.9735 69.8149C43.9613 72.0447 43.9694 74.2744 43.9694 76.5042V76.5083Z" fill="white"/>
<path d="M23.0248 71.4173C24.4085 69.483 26.1158 68.625 28.4461 69.1309C28.4299 69.7096 28.4623 70.3045 28.3045 70.8872C28.2397 71.13 28.0375 71.1583 27.819 71.1421C27.552 71.1219 27.2809 71.1017 27.0139 71.0855C25.0356 70.9681 23.5306 72.6111 23.2635 74.2865C23.1422 75.0392 23.1664 75.7919 23.1745 76.5486C23.1907 78.2442 23.1138 79.9398 23.219 81.6313C23.2312 81.8418 23.1826 82.036 22.952 82.032C22.2845 82.0198 21.621 81.9753 20.9575 81.9429C20.824 81.5828 20.9089 81.2631 20.9089 80.9515C20.9049 77.2932 20.9089 73.6349 20.9089 69.9726C20.9089 69.2847 20.9373 69.2604 21.6129 69.2563C22.3762 69.2536 22.7956 69.6246 22.8711 70.3692C22.9035 70.6646 22.9561 70.96 23.0208 71.4133L23.0248 71.4173Z" fill="white"/>
<path d="M145.313 107.377V94.5566H147.493V107.304C146.769 107.425 146.086 107.344 145.313 107.377Z" fill="white"/>
<path d="M82.3091 94.5449H84.2632C84.4574 94.7027 84.4129 94.9172 84.4169 95.1115C84.4169 99.0004 84.4169 102.893 84.429 106.782C84.429 107.211 84.2874 107.401 83.8424 107.373C83.5066 107.349 83.1708 107.353 82.835 107.373C82.4345 107.397 82.2605 107.252 82.2605 106.827C82.2646 102.784 82.2605 98.7455 82.2565 94.7027C82.2565 94.6704 82.2767 94.642 82.3131 94.5449H82.3091Z" fill="white"/>
<path d="M142.033 69.3696V81.9672C141.402 81.9672 140.771 81.9712 140.14 81.9672C139.954 81.9672 139.889 81.8174 139.881 81.6515C139.873 81.4856 139.873 81.3156 139.873 81.1497C139.873 77.6088 139.873 74.0679 139.873 70.531C139.873 70.3813 139.873 70.2275 139.869 70.0778C139.828 69.2644 139.824 69.2522 140.67 69.2684C141.115 69.2765 141.572 69.1632 142.033 69.3736V69.3696Z" fill="white"/>
<path d="M64.7346 92.8775C64.9085 92.4283 65.216 92.0479 65.479 91.6513C65.9604 90.9269 66.4621 90.2106 66.8667 89.4377C66.9557 89.2677 67.0689 89.1099 67.2753 89.1099C67.9792 89.1059 68.6832 89.1099 69.3871 89.1221C69.5044 89.1221 69.6137 89.1787 69.6986 89.3608C69.4964 89.9071 69.0918 90.3806 68.6832 90.8298C68.1208 91.4489 67.514 92.0276 66.9112 92.6104C66.3933 93.1122 65.3981 93.2336 64.7305 92.8775H64.7346Z" fill="white"/>
<path d="M139.67 65.95C139.67 65.0152 140.095 64.5215 140.9 64.5215C141.803 64.5215 142.248 64.9545 142.252 65.8326C142.252 66.8727 141.892 67.2733 140.949 67.2733C140.095 67.2733 139.67 66.8362 139.67 65.95Z" fill="white"/>
<path d="M145 91.4285C145 90.4937 145.425 90 146.23 90C147.132 90 147.577 90.433 147.581 91.3112C147.581 92.3512 147.221 92.7518 146.278 92.7518C145.425 92.7518 145 92.3147 145 91.4285Z" fill="white"/>
<path d="M44.1798 65.9299C44.1798 66.8161 43.7469 67.2815 42.9297 67.2694C42.0518 67.2613 41.6068 66.7554 41.6149 65.7883C41.6229 64.9749 42.1125 64.5176 42.9621 64.5176C43.8157 64.5176 44.1798 64.9384 44.1798 65.9299Z" fill="white"/>
<path d="M84.6273 91.2544C84.6273 92.1609 84.2793 92.5534 83.4823 92.5575C82.6044 92.5575 82.0582 92.0233 82.0623 91.1573C82.0663 90.2913 82.5194 89.8057 83.3286 89.8057C84.2389 89.8057 84.6273 90.2387 84.6273 91.2585V91.2544Z" fill="white"/>
</svg>
