<svg xmlns="http://www.w3.org/2000/svg" width="586" height="128" viewBox="0 0 586 128" fill="none"><g filter="url(#filter0_b_338_6437)"><path fill-rule="evenodd" clip-rule="evenodd" d="M16 0.0566711C7.16344 0.0566711 0 7.22012 0 16.0567V111.057C0 119.893 7.16344 127.057 16 127.057H157C162.029 127.057 166.516 124.736 169.449 121.108L215.631 74.9264C221.879 68.678 221.879 58.5474 215.631 52.299L169.838 6.5063C166.922 2.59186 162.257 0.0566711 157 0.0566711H16Z" fill="#004D99" fill-opacity="0.8"></path></g><g filter="url(#filter1_b_338_6437)"><path fill-rule="evenodd" clip-rule="evenodd" d="M338.966 127.057H178.954C179.127 126.898 179.297 126.735 179.465 126.568L230.703 75.3298C236.951 69.0814 236.951 58.9507 230.703 52.7023L179.465 1.4644C178.954 0.95336 178.417 0.484116 177.858 0.0566686L338.966 0.0566686C343.498 -0.324664 348.162 1.21855 351.63 4.6863L399.186 52.243C405.435 58.4914 405.435 68.622 399.186 74.8704L351.63 122.427C348.162 125.895 343.498 127.438 338.966 127.057Z" fill="#004D99" fill-opacity="0.8"></path></g><g filter="url(#filter2_b_338_6437)"><path fill-rule="evenodd" clip-rule="evenodd" d="M533.387 122.296C530.486 125.235 526.456 127.057 522 127.057H362.954C363.127 126.898 363.298 126.735 363.465 126.568L414.703 75.3298C420.951 69.0814 420.952 58.9507 414.703 52.7023L363.465 1.46441C362.954 0.953366 362.417 0.484122 361.858 0.0566752L520.966 0.0566752C525.498 -0.324738 530.162 1.21846 533.63 4.68627L581.002 52.0588C587.251 58.3072 587.251 68.4379 581.002 74.6863L533.63 122.059C533.55 122.139 533.469 122.218 533.387 122.296Z" fill="#004D99" fill-opacity="0.8"></path></g><path d="M56.1028 56.6326L52.2788 68.0566H49.1908L45.3828 56.6326H48.3108L50.1668 62.9686C50.2201 63.1286 50.2841 63.3739 50.3588 63.7046C50.4335 64.0246 50.5081 64.3606 50.5828 64.7126C50.6681 65.0539 50.7215 65.3366 50.7428 65.5606C50.7748 65.3366 50.8228 65.0539 50.8868 64.7126C50.9615 64.3713 51.0361 64.0406 51.1108 63.7206C51.1855 63.3899 51.2495 63.1446 51.3028 62.9846L53.1908 56.6326H56.1028ZM65.1171 63.6406C65.1171 64.3766 65.0157 65.0273 64.8131 65.5926C64.6211 66.1579 64.3331 66.6379 63.9491 67.0326C63.5757 67.4273 63.1224 67.7259 62.5891 67.9286C62.0664 68.1206 61.4637 68.2166 60.7811 68.2166C60.1624 68.2166 59.5864 68.1206 59.0531 67.9286C58.5304 67.7259 58.0771 67.4326 57.6931 67.0486C57.3197 66.6539 57.0264 66.1739 56.8131 65.6086C56.5997 65.0326 56.4931 64.3766 56.4931 63.6406C56.4931 62.6699 56.6637 61.8486 57.0051 61.1766C57.3571 60.5046 57.8584 59.9926 58.5091 59.6406C59.1597 59.2886 59.9331 59.1126 60.8291 59.1126C61.6717 59.1126 62.4131 59.2886 63.0531 59.6406C63.6931 59.9926 64.1944 60.5046 64.5571 61.1766C64.9304 61.8486 65.1171 62.6699 65.1171 63.6406ZM59.2291 63.6406C59.2291 64.1846 59.2824 64.6433 59.3891 65.0166C59.4957 65.3899 59.6664 65.6726 59.9011 65.8646C60.1357 66.0459 60.4397 66.1366 60.8131 66.1366C61.1971 66.1366 61.5011 66.0459 61.7251 65.8646C61.9491 65.6726 62.1144 65.3899 62.2211 65.0166C62.3277 64.6433 62.3811 64.1846 62.3811 63.6406C62.3811 63.0966 62.3277 62.6433 62.2211 62.2806C62.1144 61.9179 61.9437 61.6459 61.7091 61.4646C61.4851 61.2833 61.1811 61.1926 60.7971 61.1926C60.2531 61.1926 59.8531 61.4006 59.5971 61.8166C59.3517 62.2219 59.2291 62.8299 59.2291 63.6406ZM70.7483 68.2166C69.8736 68.2166 69.1163 68.0619 68.4763 67.7526C67.847 67.4326 67.3616 66.9419 67.0203 66.2806C66.6896 65.6086 66.5243 64.7499 66.5243 63.7046C66.5243 62.6379 66.711 61.7686 67.0843 61.0966C67.4683 60.4139 67.9963 59.9126 68.6683 59.5926C69.3403 59.2726 70.1083 59.1126 70.9723 59.1126C71.5483 59.1126 72.0656 59.1713 72.5243 59.2886C72.9936 59.4059 73.4096 59.5553 73.7723 59.7366L72.9883 61.7686C72.615 61.6193 72.2683 61.4966 71.9483 61.4006C71.6283 61.3046 71.303 61.2566 70.9723 61.2566C70.6096 61.2566 70.3003 61.3473 70.0443 61.5286C69.7883 61.6993 69.591 61.9659 69.4523 62.3286C69.3243 62.6913 69.2603 63.1446 69.2603 63.6886C69.2603 64.2326 69.3296 64.6806 69.4683 65.0326C69.607 65.3739 69.8043 65.6299 70.0603 65.8006C70.3163 65.9713 70.6256 66.0566 70.9883 66.0566C71.4576 66.0566 71.895 65.9873 72.3003 65.8486C72.7163 65.7099 73.111 65.5233 73.4843 65.2886V67.4966C73.1216 67.7313 72.727 67.9126 72.3003 68.0406C71.8736 68.1579 71.3563 68.2166 70.7483 68.2166ZM79.1862 59.1126C80.0182 59.1126 80.7329 59.2673 81.3302 59.5766C81.9382 59.8753 82.4022 60.3233 82.7222 60.9206C83.0529 61.5073 83.2182 62.2379 83.2182 63.1126V64.3606H77.6662C77.6875 64.9366 77.8742 65.3953 78.2262 65.7366C78.5782 66.0779 79.0795 66.2486 79.7302 66.2486C80.2955 66.2486 80.8075 66.1953 81.2662 66.0886C81.7249 65.9819 82.1995 65.8113 82.6902 65.5766V67.5766C82.2635 67.8006 81.8049 67.9606 81.3142 68.0566C80.8235 68.1633 80.2209 68.2166 79.5062 68.2166C78.6209 68.2166 77.8315 68.0566 77.1382 67.7366C76.4555 67.4166 75.9169 66.9259 75.5222 66.2646C75.1382 65.5926 74.9462 64.7446 74.9462 63.7206C74.9462 62.6753 75.1222 61.8166 75.4742 61.1446C75.8262 60.4619 76.3222 59.9553 76.9622 59.6246C77.6022 59.2833 78.3435 59.1126 79.1862 59.1126ZM79.2342 60.9846C78.8182 60.9846 78.4715 61.1179 78.1942 61.3846C77.9275 61.6406 77.7675 62.0513 77.7142 62.6166H80.7382C80.7382 62.3073 80.6795 62.0299 80.5622 61.7846C80.4555 61.5393 80.2902 61.3473 80.0662 61.2086C79.8422 61.0593 79.5649 60.9846 79.2342 60.9846ZM80.5462 55.8006C80.7062 56.0353 80.9035 56.3019 81.1382 56.6006C81.3835 56.8886 81.6289 57.1713 81.8742 57.4486C82.1302 57.7259 82.3542 57.9606 82.5462 58.1526V58.3606H80.7702C80.4929 58.1899 80.2102 58.0033 79.9222 57.8006C79.6342 57.5873 79.3515 57.3473 79.0742 57.0806C78.7969 57.3473 78.5142 57.5819 78.2262 57.7846C77.9489 57.9873 77.6715 58.1793 77.3942 58.3606H75.6182V58.1526C75.8209 57.9499 76.0449 57.7153 76.2902 57.4486C76.5462 57.1713 76.7915 56.8886 77.0262 56.6006C77.2715 56.3019 77.4689 56.0353 77.6182 55.8006H80.5462ZM95.5111 65.4006C95.5111 65.9766 95.3777 66.4779 95.1111 66.9046C94.8551 67.3206 94.4497 67.6459 93.8951 67.8806C93.3404 68.1046 92.6364 68.2166 91.7831 68.2166C91.1644 68.2166 90.6204 68.1793 90.1511 68.1046C89.6924 68.0299 89.2284 67.8966 88.7591 67.7046V65.5286C89.2711 65.7526 89.8044 65.9286 90.3591 66.0566C90.9244 66.1846 91.3937 66.2486 91.7671 66.2486C92.1724 66.2486 92.4657 66.1953 92.6471 66.0886C92.8284 65.9819 92.9191 65.8326 92.9191 65.6406C92.9191 65.5019 92.8711 65.3793 92.7751 65.2726C92.6897 65.1659 92.5084 65.0433 92.2311 64.9046C91.9644 64.7659 91.5644 64.5899 91.0311 64.3766C90.5084 64.1526 90.0764 63.9233 89.7351 63.6886C89.4044 63.4539 89.1537 63.1713 88.9831 62.8406C88.8231 62.5099 88.7431 62.1046 88.7431 61.6246C88.7431 60.7926 89.0631 60.1686 89.7031 59.7526C90.3537 59.3259 91.2124 59.1126 92.2791 59.1126C92.8444 59.1126 93.3777 59.1713 93.8791 59.2886C94.3804 59.4059 94.8977 59.5873 95.4311 59.8326L94.6631 61.6566C94.3751 61.5286 94.0871 61.4166 93.7991 61.3206C93.5217 61.2246 93.2551 61.1499 92.9991 61.0966C92.7431 61.0433 92.5031 61.0166 92.2791 61.0166C91.9804 61.0166 91.7511 61.0593 91.5911 61.1446C91.4311 61.2193 91.3511 61.3366 91.3511 61.4966C91.3511 61.6139 91.3937 61.7259 91.4791 61.8326C91.5751 61.9286 91.7511 62.0353 92.0071 62.1526C92.2737 62.2699 92.6577 62.4353 93.1591 62.6486C93.6604 62.8513 94.0871 63.0646 94.4391 63.2886C94.7911 63.5126 95.0577 63.7899 95.2391 64.1206C95.4204 64.4513 95.5111 64.8779 95.5111 65.4006ZM105.461 63.6406C105.461 64.3766 105.359 65.0273 105.157 65.5926C104.965 66.1579 104.677 66.6379 104.293 67.0326C103.919 67.4273 103.466 67.7259 102.933 67.9286C102.41 68.1206 101.807 68.2166 101.125 68.2166C100.506 68.2166 99.9301 68.1206 99.3968 67.9286C98.8741 67.7259 98.4208 67.4326 98.0368 67.0486C97.6635 66.6539 97.3701 66.1739 97.1568 65.6086C96.9435 65.0326 96.8368 64.3766 96.8368 63.6406C96.8368 62.6699 97.0075 61.8486 97.3488 61.1766C97.7008 60.5046 98.2021 59.9926 98.8528 59.6406C99.5035 59.2886 100.277 59.1126 101.173 59.1126C102.015 59.1126 102.757 59.2886 103.397 59.6406C104.037 59.9926 104.538 60.5046 104.901 61.1766C105.274 61.8486 105.461 62.6699 105.461 63.6406ZM99.5728 63.6406C99.5728 64.1846 99.6261 64.6433 99.7328 65.0166C99.8395 65.3899 100.01 65.6726 100.245 65.8646C100.479 66.0459 100.783 66.1366 101.157 66.1366C101.541 66.1366 101.845 66.0459 102.069 65.8646C102.293 65.6726 102.458 65.3899 102.565 65.0166C102.671 64.6433 102.725 64.1846 102.725 63.6406C102.725 63.0966 102.671 62.6433 102.565 62.2806C102.458 61.9179 102.287 61.6459 102.053 61.4646C101.829 61.2833 101.525 61.1926 101.141 61.1926C100.597 61.1926 100.197 61.4006 99.9408 61.8166C99.6955 62.2219 99.5728 62.8299 99.5728 63.6406ZM110.02 68.0566H107.316V55.8966H110.02V68.0566ZM115.036 59.2726V68.0566H112.348V59.2726H115.036ZM113.708 55.7846C114.092 55.7846 114.428 55.8699 114.716 56.0406C115.004 56.2113 115.148 56.5419 115.148 57.0326C115.148 57.5126 115.004 57.8433 114.716 58.0246C114.428 58.1953 114.092 58.2806 113.708 58.2806C113.302 58.2806 112.956 58.1953 112.668 58.0246C112.39 57.8433 112.252 57.5126 112.252 57.0326C112.252 56.5419 112.39 56.2113 112.668 56.0406C112.956 55.8699 113.302 55.7846 113.708 55.7846ZM121.139 68.2166C120.264 68.2166 119.507 68.0619 118.867 67.7526C118.238 67.4326 117.752 66.9419 117.411 66.2806C117.08 65.6086 116.915 64.7499 116.915 63.7046C116.915 62.6379 117.102 61.7686 117.475 61.0966C117.859 60.4139 118.387 59.9126 119.059 59.5926C119.731 59.2726 120.499 59.1126 121.363 59.1126C121.939 59.1126 122.456 59.1713 122.915 59.2886C123.384 59.4059 123.8 59.5553 124.163 59.7366L123.379 61.7686C123.006 61.6193 122.659 61.4966 122.339 61.4006C122.019 61.3046 121.694 61.2566 121.363 61.2566C121 61.2566 120.691 61.3473 120.435 61.5286C120.179 61.6993 119.982 61.9659 119.843 62.3286C119.715 62.6913 119.651 63.1446 119.651 63.6886C119.651 64.2326 119.72 64.6806 119.859 65.0326C119.998 65.3739 120.195 65.6299 120.451 65.8006C120.707 65.9713 121.016 66.0566 121.379 66.0566C121.848 66.0566 122.286 65.9873 122.691 65.8486C123.107 65.7099 123.502 65.5233 123.875 65.2886V67.4966C123.512 67.7313 123.118 67.9126 122.691 68.0406C122.264 68.1579 121.747 68.2166 121.139 68.2166ZM128.489 59.2726V68.0566H125.801V59.2726H128.489ZM127.161 55.7846C127.545 55.7846 127.881 55.8699 128.169 56.0406C128.457 56.2113 128.601 56.5419 128.601 57.0326C128.601 57.5126 128.457 57.8433 128.169 58.0246C127.881 58.1953 127.545 58.2806 127.161 58.2806C126.755 58.2806 126.409 58.1953 126.121 58.0246C125.843 57.8433 125.705 57.5126 125.705 57.0326C125.705 56.5419 125.843 56.2113 126.121 56.0406C126.409 55.8699 126.755 55.7846 127.161 55.7846ZM134.8 66.0726C135.077 66.0726 135.333 66.0459 135.568 65.9926C135.803 65.9393 136.043 65.8699 136.288 65.7846V67.7686C136 67.8966 135.669 68.0033 135.296 68.0886C134.923 68.1739 134.48 68.2166 133.968 68.2166C133.424 68.2166 132.939 68.1313 132.512 67.9606C132.096 67.7793 131.765 67.4753 131.52 67.0486C131.285 66.6113 131.168 66.0086 131.168 65.2406V61.2886H130.048V60.1686L131.392 59.3046L132.128 57.4486H133.856V59.2726H136.192V61.2886H133.856V65.1446C133.856 65.4539 133.941 65.6886 134.112 65.8486C134.283 65.9979 134.512 66.0726 134.8 66.0726ZM141.893 59.0966C143.034 59.0966 143.919 59.3633 144.549 59.8966C145.178 60.4193 145.493 61.1979 145.493 62.2326V68.0566H143.621L143.093 66.8726H143.029C142.783 67.1819 142.527 67.4379 142.261 67.6406C142.005 67.8433 141.706 67.9873 141.365 68.0726C141.034 68.1686 140.623 68.2166 140.133 68.2166C139.621 68.2166 139.157 68.1153 138.741 67.9126C138.335 67.7099 138.015 67.4006 137.781 66.9846C137.546 66.5686 137.429 66.0406 137.429 65.4006C137.429 64.4619 137.754 63.7686 138.405 63.3206C139.066 62.8726 140.031 62.6219 141.301 62.5686L142.805 62.5206V62.2646C142.805 61.8379 142.693 61.5286 142.469 61.3366C142.255 61.1446 141.957 61.0486 141.573 61.0486C141.189 61.0486 140.789 61.1126 140.373 61.2406C139.957 61.3579 139.535 61.5073 139.109 61.6886L138.293 59.8966C138.773 59.6406 139.317 59.4433 139.925 59.3046C140.533 59.1659 141.189 59.0966 141.893 59.0966ZM141.989 64.0886C141.317 64.1099 140.847 64.2326 140.581 64.4566C140.314 64.6699 140.181 64.9633 140.181 65.3366C140.181 65.6673 140.277 65.9073 140.469 66.0566C140.661 66.2059 140.906 66.2806 141.205 66.2806C141.653 66.2806 142.031 66.1473 142.341 65.8806C142.65 65.6033 142.805 65.2299 142.805 64.7606V64.0566L141.989 64.0886Z" fill="#F2F6FC"></path><path d="M266.824 47.0566H263.304L258.696 38.6886H258.632C258.643 38.9126 258.653 39.1579 258.664 39.4246C258.685 39.6806 258.701 39.9473 258.712 40.2246C258.723 40.4913 258.733 40.7579 258.744 41.0246C258.755 41.2806 258.765 41.5313 258.776 41.7766V47.0566H256.344V35.6326H259.848L264.44 43.9046H264.488C264.477 43.6806 264.467 43.4459 264.456 43.2006C264.445 42.9446 264.435 42.6886 264.424 42.4326C264.413 42.1659 264.403 41.9099 264.392 41.6646C264.392 41.4086 264.387 41.1633 264.376 40.9286V35.6326H266.824V47.0566ZM277.5 42.6406C277.5 43.3766 277.399 44.0273 277.196 44.5926C277.004 45.1579 276.716 45.6379 276.332 46.0326C275.959 46.4273 275.505 46.7259 274.972 46.9286C274.449 47.1206 273.847 47.2166 273.164 47.2166C272.545 47.2166 271.969 47.1206 271.436 46.9286C270.913 46.7259 270.46 46.4326 270.076 46.0486C269.703 45.6539 269.409 45.1739 269.196 44.6086C268.983 44.0326 268.876 43.3766 268.876 42.6406C268.876 41.6699 269.047 40.8486 269.388 40.1766C269.74 39.5046 270.241 38.9926 270.892 38.6406C271.543 38.2886 272.316 38.1126 273.212 38.1126C274.055 38.1126 274.796 38.2886 275.436 38.6406C276.076 38.9926 276.577 39.5046 276.94 40.1766C277.313 40.8486 277.5 41.6699 277.5 42.6406ZM271.612 42.6406C271.612 43.1846 271.665 43.6433 271.772 44.0166C271.879 44.3899 272.049 44.6726 272.284 44.8646C272.519 45.0459 272.823 45.1366 273.196 45.1366C273.58 45.1366 273.884 45.0459 274.108 44.8646C274.332 44.6726 274.497 44.3899 274.604 44.0166C274.711 43.6433 274.764 43.1846 274.764 42.6406C274.764 42.0966 274.711 41.6433 274.604 41.2806C274.497 40.9179 274.327 40.6459 274.092 40.4646C273.868 40.2833 273.564 40.1926 273.18 40.1926C272.636 40.1926 272.236 40.4006 271.98 40.8166C271.735 41.2219 271.612 41.8299 271.612 42.6406ZM276.78 34.9606C276.609 35.1099 276.391 35.2913 276.124 35.5046C275.857 35.7179 275.569 35.9419 275.26 36.1766C274.961 36.4113 274.668 36.6353 274.38 36.8486C274.092 37.0513 273.847 37.2219 273.644 37.3606H271.852V37.1526C272.023 36.9499 272.231 36.7153 272.476 36.4486C272.721 36.1713 272.961 35.8886 273.196 35.6006C273.441 35.3019 273.639 35.0353 273.788 34.8006H276.78V34.9606ZM285.675 44.4006C285.675 44.9766 285.542 45.4779 285.275 45.9046C285.019 46.3206 284.614 46.6459 284.059 46.8806C283.504 47.1046 282.8 47.2166 281.947 47.2166C281.328 47.2166 280.784 47.1793 280.315 47.1046C279.856 47.0299 279.392 46.8966 278.923 46.7046V44.5286C279.435 44.7526 279.968 44.9286 280.523 45.0566C281.088 45.1846 281.558 45.2486 281.931 45.2486C282.336 45.2486 282.63 45.1953 282.811 45.0886C282.992 44.9819 283.083 44.8326 283.083 44.6406C283.083 44.5019 283.035 44.3793 282.939 44.2726C282.854 44.1659 282.672 44.0433 282.395 43.9046C282.128 43.7659 281.728 43.5899 281.195 43.3766C280.672 43.1526 280.24 42.9233 279.899 42.6886C279.568 42.4539 279.318 42.1713 279.147 41.8406C278.987 41.5099 278.907 41.1046 278.907 40.6246C278.907 39.7926 279.227 39.1686 279.867 38.7526C280.518 38.3259 281.376 38.1126 282.443 38.1126C283.008 38.1126 283.542 38.1713 284.043 38.2886C284.544 38.4059 285.062 38.5873 285.595 38.8326L284.827 40.6566C284.539 40.5286 284.251 40.4166 283.963 40.3206C283.686 40.2246 283.419 40.1499 283.163 40.0966C282.907 40.0433 282.667 40.0166 282.443 40.0166C282.144 40.0166 281.915 40.0593 281.755 40.1446C281.595 40.2193 281.515 40.3366 281.515 40.4966C281.515 40.6139 281.558 40.7259 281.643 40.8326C281.739 40.9286 281.915 41.0353 282.171 41.1526C282.438 41.2699 282.822 41.4353 283.323 41.6486C283.824 41.8513 284.251 42.0646 284.603 42.2886C284.955 42.5126 285.222 42.7899 285.403 43.1206C285.584 43.4513 285.675 43.8779 285.675 44.4006ZM258.344 71.0566L255 62.2726H257.816L259.416 67.3606C259.448 67.4779 259.48 67.6219 259.512 67.7926C259.555 67.9526 259.587 68.1179 259.608 68.2886C259.64 68.4486 259.656 68.5979 259.656 68.7366H259.72C259.72 68.5873 259.731 68.4326 259.752 68.2726C259.784 68.1126 259.816 67.9579 259.848 67.8086C259.891 67.6486 259.933 67.5046 259.976 67.3766L261.608 62.2726H264.408L261.064 71.0566H258.344ZM268.262 62.2726V71.0566H265.574V62.2726H268.262ZM266.934 58.7846C267.318 58.7846 267.654 58.8699 267.942 59.0406C268.23 59.2113 268.374 59.5419 268.374 60.0326C268.374 60.5126 268.23 60.8433 267.942 61.0246C267.654 61.1953 267.318 61.2806 266.934 61.2806C266.529 61.2806 266.182 61.1953 265.894 61.0246C265.617 60.8433 265.478 60.5126 265.478 60.0326C265.478 59.5419 265.617 59.2113 265.894 59.0406C266.182 58.8699 266.529 58.7846 266.934 58.7846ZM274.526 62.0966C275.667 62.0966 276.552 62.3633 277.182 62.8966C277.811 63.4193 278.126 64.1979 278.126 65.2326V71.0566H276.254L275.726 69.8726H275.662C275.416 70.1819 275.16 70.4379 274.894 70.6406C274.638 70.8433 274.339 70.9873 273.998 71.0726C273.667 71.1686 273.256 71.2166 272.766 71.2166C272.254 71.2166 271.79 71.1153 271.374 70.9126C270.968 70.7099 270.648 70.4006 270.414 69.9846C270.179 69.5686 270.062 69.0406 270.062 68.4006C270.062 67.4619 270.387 66.7686 271.038 66.3206C271.699 65.8726 272.664 65.6219 273.934 65.5686L275.438 65.5206V65.2646C275.438 64.8379 275.326 64.5286 275.102 64.3366C274.888 64.1446 274.59 64.0486 274.206 64.0486C273.822 64.0486 273.422 64.1126 273.006 64.2406C272.59 64.3579 272.168 64.5073 271.742 64.6886L270.926 62.8966C271.406 62.6406 271.95 62.4433 272.558 62.3046C273.166 62.1659 273.822 62.0966 274.526 62.0966ZM274.622 67.0886C273.95 67.1099 273.48 67.2326 273.214 67.4566C272.947 67.6699 272.814 67.9633 272.814 68.3366C272.814 68.6673 272.91 68.9073 273.102 69.0566C273.294 69.2059 273.539 69.2806 273.838 69.2806C274.286 69.2806 274.664 69.1473 274.974 68.8806C275.283 68.6033 275.438 68.2299 275.438 67.7606V67.0566L274.622 67.0886ZM283.106 61.6966C283.106 62.0166 283.095 62.3313 283.074 62.6406C283.053 62.9393 283.026 63.1953 282.994 63.4086H283.106C283.33 63.0459 283.634 62.7419 284.018 62.4966C284.413 62.2406 284.914 62.1126 285.522 62.1126C286.471 62.1126 287.245 62.4966 287.842 63.2646C288.45 64.0326 288.754 65.1579 288.754 66.6406C288.754 67.6433 288.61 68.4859 288.322 69.1686C288.045 69.8513 287.661 70.3633 287.17 70.7046C286.679 71.0459 286.103 71.2166 285.442 71.2166C284.813 71.2166 284.322 71.1046 283.97 70.8806C283.618 70.6566 283.33 70.4113 283.106 70.1446H282.93L282.498 71.0566H280.402V58.8966H283.106V61.6966ZM284.594 64.2406C284.242 64.2406 283.954 64.3206 283.73 64.4806C283.517 64.6299 283.357 64.8593 283.25 65.1686C283.154 65.4779 283.106 65.8726 283.106 66.3526V66.6886C283.106 67.4566 283.213 68.0433 283.426 68.4486C283.65 68.8433 284.05 69.0406 284.626 69.0406C285.053 69.0406 285.389 68.8326 285.634 68.4166C285.879 68.0006 286.002 67.3979 286.002 66.6086C286.002 65.8299 285.879 65.2433 285.634 64.8486C285.389 64.4433 285.042 64.2406 284.594 64.2406ZM293.309 62.2726V71.0566H290.621V62.2726H293.309ZM291.981 58.7846C292.365 58.7846 292.701 58.8699 292.989 59.0406C293.277 59.2113 293.421 59.5419 293.421 60.0326C293.421 60.5126 293.277 60.8433 292.989 61.0246C292.701 61.1953 292.365 61.2806 291.981 61.2806C291.576 61.2806 291.229 61.1953 290.941 61.0246C290.664 60.8433 290.525 60.5126 290.525 60.0326C290.525 59.5419 290.664 59.2113 290.941 59.0406C291.229 58.8699 291.576 58.7846 291.981 58.7846ZM298.34 71.0566H295.636V58.8966H298.34V71.0566ZM303.356 62.2726V71.0566H300.668V62.2726H303.356ZM302.028 58.7846C302.412 58.7846 302.748 58.8699 303.036 59.0406C303.324 59.2113 303.468 59.5419 303.468 60.0326C303.468 60.5126 303.324 60.8433 303.036 61.0246C302.748 61.1953 302.412 61.2806 302.028 61.2806C301.623 61.2806 301.276 61.1953 300.988 61.0246C300.711 60.8433 300.572 60.5126 300.572 60.0326C300.572 59.5419 300.711 59.2113 300.988 59.0406C301.276 58.8699 301.623 58.7846 302.028 58.7846ZM312.035 71.0566H304.947V69.4886L308.819 64.3366H305.171V62.2726H311.875V63.9686L308.147 68.9926H312.035V71.0566ZM317.572 62.0966C318.714 62.0966 319.599 62.3633 320.228 62.8966C320.858 63.4193 321.172 64.1979 321.172 65.2326V71.0566H319.3L318.772 69.8726H318.708C318.463 70.1819 318.207 70.4379 317.94 70.6406C317.684 70.8433 317.386 70.9873 317.044 71.0726C316.714 71.1686 316.303 71.2166 315.812 71.2166C315.3 71.2166 314.836 71.1153 314.42 70.9126C314.015 70.7099 313.695 70.4006 313.46 69.9846C313.226 69.5686 313.108 69.0406 313.108 68.4006C313.108 67.4619 313.434 66.7686 314.084 66.3206C314.746 65.8726 315.711 65.6219 316.98 65.5686L318.484 65.5206V65.2646C318.484 64.8379 318.372 64.5286 318.148 64.3366C317.935 64.1446 317.636 64.0486 317.252 64.0486C316.868 64.0486 316.468 64.1126 316.052 64.2406C315.636 64.3579 315.215 64.5073 314.788 64.6886L313.972 62.8966C314.452 62.6406 314.996 62.4433 315.604 62.3046C316.212 62.1659 316.868 62.0966 317.572 62.0966ZM317.668 67.0886C316.996 67.1099 316.527 67.2326 316.26 67.4566C315.994 67.6699 315.86 67.9633 315.86 68.3366C315.86 68.6673 315.956 68.9073 316.148 69.0566C316.34 69.2059 316.586 69.2806 316.884 69.2806C317.332 69.2806 317.711 69.1473 318.02 68.8806C318.33 68.6033 318.484 68.2299 318.484 67.7606V67.0566L317.668 67.0886ZM333.961 62.1126C334.964 62.1126 335.721 62.3686 336.233 62.8806C336.756 63.3819 337.017 64.1979 337.017 65.3286V71.0566H334.329V66.0806C334.329 65.4406 334.228 64.9766 334.025 64.6886C333.833 64.3899 333.534 64.2406 333.129 64.2406C332.564 64.2406 332.164 64.4646 331.929 64.9126C331.694 65.3499 331.577 65.9793 331.577 66.8006V71.0566H328.889V66.0806C328.889 65.6646 328.846 65.3233 328.761 65.0566C328.676 64.7793 328.548 64.5766 328.377 64.4486C328.206 64.3099 327.982 64.2406 327.705 64.2406C327.31 64.2406 326.996 64.3526 326.761 64.5766C326.537 64.7899 326.377 65.1046 326.281 65.5206C326.196 65.9366 326.153 66.4486 326.153 67.0566V71.0566H323.449V62.2726H325.497L325.881 63.3766H325.993C326.164 63.0993 326.377 62.8699 326.633 62.6886C326.889 62.4966 327.182 62.3526 327.513 62.2566C327.844 62.1606 328.201 62.1126 328.585 62.1126C329.225 62.1126 329.764 62.2193 330.201 62.4326C330.638 62.6459 330.98 62.9553 331.225 63.3606H331.385C331.662 62.9446 332.03 62.6353 332.489 62.4326C332.948 62.2193 333.438 62.1126 333.961 62.1126ZM347.469 66.6406C347.469 67.3766 347.367 68.0273 347.165 68.5926C346.973 69.1579 346.685 69.6379 346.301 70.0326C345.927 70.4273 345.474 70.7259 344.941 70.9286C344.418 71.1206 343.815 71.2166 343.133 71.2166C342.514 71.2166 341.938 71.1206 341.405 70.9286C340.882 70.7259 340.429 70.4326 340.045 70.0486C339.671 69.6539 339.378 69.1739 339.165 68.6086C338.951 68.0326 338.845 67.3766 338.845 66.6406C338.845 65.6699 339.015 64.8486 339.357 64.1766C339.709 63.5046 340.21 62.9926 340.861 62.6406C341.511 62.2886 342.285 62.1126 343.181 62.1126C344.023 62.1126 344.765 62.2886 345.405 62.6406C346.045 62.9926 346.546 63.5046 346.909 64.1766C347.282 64.8486 347.469 65.6699 347.469 66.6406ZM341.581 66.6406C341.581 67.1846 341.634 67.6433 341.741 68.0166C341.847 68.3899 342.018 68.6726 342.253 68.8646C342.487 69.0459 342.791 69.1366 343.165 69.1366C343.549 69.1366 343.853 69.0459 344.077 68.8646C344.301 68.6726 344.466 68.3899 344.573 68.0166C344.679 67.6433 344.733 67.1846 344.733 66.6406C344.733 66.0966 344.679 65.6433 344.573 65.2806C344.466 64.9179 344.295 64.6459 344.061 64.4646C343.837 64.2833 343.533 64.1926 343.149 64.1926C342.605 64.1926 342.205 64.4006 341.949 64.8166C341.703 65.2219 341.581 65.8299 341.581 66.6406ZM355.644 68.4006C355.644 68.9766 355.511 69.4779 355.244 69.9046C354.988 70.3206 354.583 70.6459 354.028 70.8806C353.473 71.1046 352.769 71.2166 351.916 71.2166C351.297 71.2166 350.753 71.1793 350.284 71.1046C349.825 71.0299 349.361 70.8966 348.892 70.7046V68.5286C349.404 68.7526 349.937 68.9286 350.492 69.0566C351.057 69.1846 351.527 69.2486 351.9 69.2486C352.305 69.2486 352.599 69.1953 352.78 69.0886C352.961 68.9819 353.052 68.8326 353.052 68.6406C353.052 68.5019 353.004 68.3793 352.908 68.2726C352.823 68.1659 352.641 68.0433 352.364 67.9046C352.097 67.7659 351.697 67.5899 351.164 67.3766C350.641 67.1526 350.209 66.9233 349.868 66.6886C349.537 66.4539 349.287 66.1713 349.116 65.8406C348.956 65.5099 348.876 65.1046 348.876 64.6246C348.876 63.7926 349.196 63.1686 349.836 62.7526C350.487 62.3259 351.345 62.1126 352.412 62.1126C352.977 62.1126 353.511 62.1713 354.012 62.2886C354.513 62.4059 355.031 62.5873 355.564 62.8326L354.796 64.6566C354.508 64.5286 354.22 64.4166 353.932 64.3206C353.655 64.2246 353.388 64.1499 353.132 64.0966C352.876 64.0433 352.636 64.0166 352.412 64.0166C352.113 64.0166 351.884 64.0593 351.724 64.1446C351.564 64.2193 351.484 64.3366 351.484 64.4966C351.484 64.6139 351.527 64.7259 351.612 64.8326C351.708 64.9286 351.884 65.0353 352.14 65.1526C352.407 65.2699 352.791 65.4353 353.292 65.6486C353.793 65.8513 354.22 66.0646 354.572 66.2886C354.924 66.5126 355.191 66.7899 355.372 67.1206C355.553 67.4513 355.644 67.8779 355.644 68.4006ZM369.75 66.6406C369.75 67.3766 369.649 68.0273 369.446 68.5926C369.254 69.1579 368.966 69.6379 368.582 70.0326C368.209 70.4273 367.755 70.7259 367.222 70.9286C366.699 71.1206 366.097 71.2166 365.414 71.2166C364.795 71.2166 364.219 71.1206 363.686 70.9286C363.163 70.7259 362.71 70.4326 362.326 70.0486C361.953 69.6539 361.659 69.1739 361.446 68.6086C361.233 68.0326 361.126 67.3766 361.126 66.6406C361.126 65.6699 361.297 64.8486 361.638 64.1766C361.99 63.5046 362.491 62.9926 363.142 62.6406C363.793 62.2886 364.566 62.1126 365.462 62.1126C366.305 62.1126 367.046 62.2886 367.686 62.6406C368.326 62.9926 368.827 63.5046 369.19 64.1766C369.563 64.8486 369.75 65.6699 369.75 66.6406ZM363.862 66.6406C363.862 67.1846 363.915 67.6433 364.022 68.0166C364.129 68.3899 364.299 68.6726 364.534 68.8646C364.769 69.0459 365.073 69.1366 365.446 69.1366C365.83 69.1366 366.134 69.0459 366.358 68.8646C366.582 68.6726 366.747 68.3899 366.854 68.0166C366.961 67.6433 367.014 67.1846 367.014 66.6406C367.014 66.0966 366.961 65.6433 366.854 65.2806C366.747 64.9179 366.577 64.6459 366.342 64.4646C366.118 64.2833 365.814 64.1926 365.43 64.1926C364.886 64.1926 364.486 64.4006 364.23 64.8166C363.985 65.2219 363.862 65.8299 363.862 66.6406ZM261.384 86.1126C262.312 86.1126 263.059 86.3686 263.624 86.8806C264.2 87.3819 264.488 88.1979 264.488 89.3286V95.0566H261.8V90.0806C261.8 89.4726 261.699 89.0139 261.496 88.7046C261.293 88.3953 260.973 88.2406 260.536 88.2406C259.885 88.2406 259.443 88.4859 259.208 88.9766C258.973 89.4566 258.856 90.1499 258.856 91.0566V95.0566H256.152V86.2726H258.2L258.568 87.4086H258.696C258.888 87.1206 259.117 86.8806 259.384 86.6886C259.651 86.4966 259.955 86.3526 260.296 86.2566C260.637 86.1606 261 86.1126 261.384 86.1126ZM270.553 86.1126C271.385 86.1126 272.1 86.2673 272.697 86.5766C273.305 86.8753 273.769 87.3233 274.089 87.9206C274.42 88.5073 274.585 89.2379 274.585 90.1126V91.3606H269.033C269.055 91.9366 269.241 92.3953 269.593 92.7366C269.945 93.0779 270.447 93.2486 271.097 93.2486C271.663 93.2486 272.175 93.1953 272.633 93.0886C273.092 92.9819 273.567 92.8113 274.057 92.5766V94.5766C273.631 94.8006 273.172 94.9606 272.681 95.0566C272.191 95.1633 271.588 95.2166 270.873 95.2166C269.988 95.2166 269.199 95.0566 268.505 94.7366C267.823 94.4166 267.284 93.9259 266.889 93.2646C266.505 92.5926 266.313 91.7446 266.313 90.7206C266.313 89.6753 266.489 88.8166 266.841 88.1446C267.193 87.4619 267.689 86.9553 268.329 86.6246C268.969 86.2833 269.711 86.1126 270.553 86.1126ZM270.601 87.9846C270.185 87.9846 269.839 88.1179 269.561 88.3846C269.295 88.6406 269.135 89.0513 269.081 89.6166H272.105C272.105 89.3073 272.047 89.0299 271.929 88.7846C271.823 88.5393 271.657 88.3473 271.433 88.2086C271.209 88.0593 270.932 87.9846 270.601 87.9846ZM279.234 86.1126C279.81 86.1126 280.301 86.2246 280.706 86.4486C281.111 86.6726 281.447 86.9819 281.714 87.3766H281.778L281.986 86.2726H284.29V95.0726C284.29 95.9046 284.125 96.6033 283.794 97.1686C283.463 97.7339 282.962 98.1606 282.29 98.4486C281.618 98.7473 280.775 98.8966 279.762 98.8966C279.101 98.8966 278.498 98.8593 277.954 98.7846C277.421 98.7099 276.903 98.5766 276.402 98.3846V96.1926C276.765 96.3419 277.117 96.4646 277.458 96.5606C277.81 96.6673 278.173 96.7419 278.546 96.7846C278.93 96.8379 279.335 96.8646 279.762 96.8646C280.381 96.8646 280.839 96.7206 281.138 96.4326C281.447 96.1553 281.602 95.7393 281.602 95.1846V95.0086C281.602 94.8486 281.607 94.6726 281.618 94.4806C281.639 94.2886 281.661 94.1019 281.682 93.9206H281.602C281.346 94.3366 281.021 94.6566 280.626 94.8806C280.231 95.1046 279.751 95.2166 279.186 95.2166C278.194 95.2166 277.405 94.8219 276.818 94.0326C276.242 93.2433 275.954 92.1233 275.954 90.6726C275.954 89.6913 276.087 88.8646 276.354 88.1926C276.621 87.5099 276.999 86.9926 277.49 86.6406C277.991 86.2886 278.573 86.1126 279.234 86.1126ZM280.178 88.2406C279.847 88.2406 279.57 88.3366 279.346 88.5286C279.122 88.7099 278.957 88.9819 278.85 89.3446C278.743 89.7073 278.69 90.1659 278.69 90.7206C278.69 91.5419 278.813 92.1499 279.058 92.5446C279.303 92.9286 279.687 93.1206 280.21 93.1206C280.498 93.1206 280.738 93.0833 280.93 93.0086C281.133 92.9233 281.293 92.7953 281.41 92.6246C281.538 92.4433 281.634 92.2193 281.698 91.9526C281.762 91.6859 281.794 91.3659 281.794 90.9926V90.6566C281.794 90.1126 281.741 89.6646 281.634 89.3126C281.527 88.9499 281.357 88.6833 281.122 88.5126C280.887 88.3313 280.573 88.2406 280.178 88.2406ZM294.781 90.6406C294.781 91.3766 294.68 92.0273 294.477 92.5926C294.285 93.1579 293.997 93.6379 293.613 94.0326C293.24 94.4273 292.786 94.7259 292.253 94.9286C291.73 95.1206 291.128 95.2166 290.445 95.2166C289.826 95.2166 289.25 95.1206 288.717 94.9286C288.194 94.7259 287.741 94.4326 287.357 94.0486C286.984 93.6539 286.69 93.1739 286.477 92.6086C286.264 92.0326 286.157 91.3766 286.157 90.6406C286.157 89.6699 286.328 88.8486 286.669 88.1766C287.021 87.5046 287.522 86.9926 288.173 86.6406C288.824 86.2886 289.597 86.1126 290.493 86.1126C291.336 86.1126 292.077 86.2886 292.717 86.6406C293.357 86.9926 293.858 87.5046 294.221 88.1766C294.594 88.8486 294.781 89.6699 294.781 90.6406ZM288.893 90.6406C288.893 91.1846 288.946 91.6433 289.053 92.0166C289.16 92.3899 289.33 92.6726 289.565 92.8646C289.8 93.0459 290.104 93.1366 290.477 93.1366C290.861 93.1366 291.165 93.0459 291.389 92.8646C291.613 92.6726 291.778 92.3899 291.885 92.0166C291.992 91.6433 292.045 91.1846 292.045 90.6406C292.045 90.0966 291.992 89.6433 291.885 89.2806C291.778 88.9179 291.608 88.6459 291.373 88.4646C291.149 88.2833 290.845 88.1926 290.461 88.1926C289.917 88.1926 289.517 88.4006 289.261 88.8166C289.016 89.2219 288.893 89.8299 288.893 90.6406ZM294.061 82.9606C293.89 83.1099 293.672 83.2913 293.405 83.5046C293.138 83.7179 292.85 83.9419 292.541 84.1766C292.242 84.4113 291.949 84.6353 291.661 84.8486C291.373 85.0513 291.128 85.2219 290.925 85.3606H289.133V85.1526C289.304 84.9499 289.512 84.7153 289.757 84.4486C290.002 84.1713 290.242 83.8886 290.477 83.6006C290.722 83.3019 290.92 83.0353 291.069 82.8006H294.061V82.9606ZM300.412 95.2166C299.538 95.2166 298.78 95.0619 298.14 94.7526C297.511 94.4326 297.026 93.9419 296.684 93.2806C296.354 92.6086 296.188 91.7499 296.188 90.7046C296.188 89.6379 296.375 88.7686 296.748 88.0966C297.132 87.4139 297.66 86.9126 298.332 86.5926C299.004 86.2726 299.772 86.1126 300.636 86.1126C301.212 86.1126 301.73 86.1713 302.188 86.2886C302.658 86.4059 303.074 86.5553 303.436 86.7366L302.652 88.7686C302.279 88.6193 301.932 88.4966 301.612 88.4006C301.292 88.3046 300.967 88.2566 300.636 88.2566C300.274 88.2566 299.964 88.3473 299.708 88.5286C299.452 88.6993 299.255 88.9659 299.116 89.3286C298.988 89.6913 298.924 90.1446 298.924 90.6886C298.924 91.2326 298.994 91.6806 299.132 92.0326C299.271 92.3739 299.468 92.6299 299.724 92.8006C299.98 92.9713 300.29 93.0566 300.652 93.0566C301.122 93.0566 301.559 92.9873 301.964 92.8486C302.38 92.7099 302.775 92.5233 303.148 92.2886V94.4966C302.786 94.7313 302.391 94.9126 301.964 95.0406C301.538 95.1579 301.02 95.2166 300.412 95.2166ZM307.762 86.2726V95.0566H305.074V86.2726H307.762ZM306.434 82.7846C306.818 82.7846 307.154 82.8699 307.442 83.0406C307.73 83.2113 307.874 83.5419 307.874 84.0326C307.874 84.5126 307.73 84.8433 307.442 85.0246C307.154 85.1953 306.818 85.2806 306.434 85.2806C306.029 85.2806 305.682 85.1953 305.394 85.0246C305.117 84.8433 304.978 84.5126 304.978 84.0326C304.978 83.5419 305.117 83.2113 305.394 83.0406C305.682 82.8699 306.029 82.7846 306.434 82.7846ZM318.266 90.6406C318.266 91.3766 318.164 92.0273 317.962 92.5926C317.77 93.1579 317.482 93.6379 317.098 94.0326C316.724 94.4273 316.271 94.7259 315.738 94.9286C315.215 95.1206 314.612 95.2166 313.93 95.2166C313.311 95.2166 312.735 95.1206 312.202 94.9286C311.679 94.7259 311.226 94.4326 310.842 94.0486C310.468 93.6539 310.175 93.1739 309.962 92.6086C309.748 92.0326 309.642 91.3766 309.642 90.6406C309.642 89.6699 309.812 88.8486 310.154 88.1766C310.506 87.5046 311.007 86.9926 311.658 86.6406C312.308 86.2886 313.082 86.1126 313.978 86.1126C314.82 86.1126 315.562 86.2886 316.202 86.6406C316.842 86.9926 317.343 87.5046 317.706 88.1766C318.079 88.8486 318.266 89.6699 318.266 90.6406ZM312.378 90.6406C312.378 91.1846 312.431 91.6433 312.538 92.0166C312.644 92.3899 312.815 92.6726 313.049 92.8646C313.284 93.0459 313.588 93.1366 313.962 93.1366C314.346 93.1366 314.65 93.0459 314.874 92.8646C315.098 92.6726 315.263 92.3899 315.37 92.0166C315.476 91.6433 315.53 91.1846 315.53 90.6406C315.53 90.0966 315.476 89.6433 315.37 89.2806C315.263 88.9179 315.092 88.6459 314.858 88.4646C314.634 88.2833 314.33 88.1926 313.946 88.1926C313.402 88.1926 313.002 88.4006 312.746 88.8166C312.5 89.2219 312.378 89.8299 312.378 90.6406Z" fill="#F2F6FC"></path><path d="M445.032 56H442.312V46.832H439.352V44.576H447.992V46.832H445.032V56ZM456.562 51.584C456.562 52.32 456.461 52.9707 456.258 53.536C456.066 54.1013 455.778 54.5813 455.394 54.976C455.021 55.3707 454.568 55.6693 454.034 55.872C453.512 56.064 452.909 56.16 452.226 56.16C451.608 56.16 451.032 56.064 450.498 55.872C449.976 55.6693 449.522 55.376 449.138 54.992C448.765 54.5973 448.472 54.1173 448.258 53.552C448.045 52.976 447.938 52.32 447.938 51.584C447.938 50.6133 448.109 49.792 448.45 49.12C448.802 48.448 449.304 47.936 449.954 47.584C450.605 47.232 451.378 47.056 452.274 47.056C453.117 47.056 453.858 47.232 454.498 47.584C455.138 47.936 455.64 48.448 456.002 49.12C456.376 49.792 456.562 50.6133 456.562 51.584ZM450.674 51.584C450.674 52.128 450.728 52.5867 450.834 52.96C450.941 53.3333 451.112 53.616 451.346 53.808C451.581 53.9893 451.885 54.08 452.258 54.08C452.642 54.08 452.946 53.9893 453.17 53.808C453.394 53.616 453.56 53.3333 453.666 52.96C453.773 52.5867 453.826 52.128 453.826 51.584C453.826 51.04 453.773 50.5867 453.666 50.224C453.56 49.8613 453.389 49.5893 453.154 49.408C452.93 49.2267 452.626 49.136 452.242 49.136C451.698 49.136 451.298 49.344 451.042 49.76C450.797 50.1653 450.674 50.7733 450.674 51.584ZM461.186 56.16C460.247 56.16 459.474 55.776 458.866 55.008C458.268 54.24 457.97 53.1093 457.97 51.616C457.97 50.112 458.274 48.976 458.882 48.208C459.49 47.44 460.284 47.056 461.266 47.056C461.671 47.056 462.028 47.1147 462.338 47.232C462.647 47.3387 462.908 47.488 463.122 47.68C463.346 47.872 463.538 48.0907 463.698 48.336H463.762C463.73 48.144 463.692 47.872 463.65 47.52C463.618 47.1573 463.602 46.8 463.602 46.448V43.84H466.306V56H464.258L463.714 54.864H463.602C463.463 55.0987 463.282 55.3173 463.058 55.52C462.834 55.712 462.567 55.8667 462.258 55.984C461.959 56.1013 461.602 56.16 461.186 56.16ZM462.21 54.016C462.796 54.016 463.207 53.84 463.442 53.488C463.676 53.136 463.799 52.6027 463.81 51.888V51.648C463.81 50.8693 463.692 50.272 463.458 49.856C463.234 49.44 462.807 49.232 462.178 49.232C461.73 49.232 461.367 49.4347 461.09 49.84C460.823 50.2453 460.69 50.8533 460.69 51.664C460.69 52.464 460.823 53.056 461.09 53.44C461.367 53.824 461.74 54.016 462.21 54.016ZM476.797 51.584C476.797 52.32 476.695 52.9707 476.493 53.536C476.301 54.1013 476.013 54.5813 475.629 54.976C475.255 55.3707 474.802 55.6693 474.269 55.872C473.746 56.064 473.143 56.16 472.461 56.16C471.842 56.16 471.266 56.064 470.733 55.872C470.21 55.6693 469.757 55.376 469.373 54.992C468.999 54.5973 468.706 54.1173 468.493 53.552C468.279 52.976 468.173 52.32 468.173 51.584C468.173 50.6133 468.343 49.792 468.685 49.12C469.037 48.448 469.538 47.936 470.189 47.584C470.839 47.232 471.613 47.056 472.509 47.056C473.351 47.056 474.093 47.232 474.733 47.584C475.373 47.936 475.874 48.448 476.237 49.12C476.61 49.792 476.797 50.6133 476.797 51.584ZM470.909 51.584C470.909 52.128 470.962 52.5867 471.069 52.96C471.175 53.3333 471.346 53.616 471.581 53.808C471.815 53.9893 472.119 54.08 472.493 54.08C472.877 54.08 473.181 53.9893 473.405 53.808C473.629 53.616 473.794 53.3333 473.901 52.96C474.007 52.5867 474.061 52.128 474.061 51.584C474.061 51.04 474.007 50.5867 473.901 50.224C473.794 49.8613 473.623 49.5893 473.389 49.408C473.165 49.2267 472.861 49.136 472.477 49.136C471.933 49.136 471.533 49.344 471.277 49.76C471.031 50.1653 470.909 50.7733 470.909 51.584ZM484.972 53.344C484.972 53.92 484.839 54.4213 484.572 54.848C484.316 55.264 483.911 55.5893 483.356 55.824C482.801 56.048 482.097 56.16 481.244 56.16C480.625 56.16 480.081 56.1227 479.612 56.048C479.153 55.9733 478.689 55.84 478.22 55.648V53.472C478.732 53.696 479.265 53.872 479.82 54C480.385 54.128 480.855 54.192 481.228 54.192C481.633 54.192 481.927 54.1387 482.108 54.032C482.289 53.9253 482.38 53.776 482.38 53.584C482.38 53.4453 482.332 53.3227 482.236 53.216C482.151 53.1093 481.969 52.9867 481.692 52.848C481.425 52.7093 481.025 52.5333 480.492 52.32C479.969 52.096 479.537 51.8667 479.196 51.632C478.865 51.3973 478.615 51.1147 478.444 50.784C478.284 50.4533 478.204 50.048 478.204 49.568C478.204 48.736 478.524 48.112 479.164 47.696C479.815 47.2693 480.673 47.056 481.74 47.056C482.305 47.056 482.839 47.1147 483.34 47.232C483.841 47.3493 484.359 47.5307 484.892 47.776L484.124 49.6C483.836 49.472 483.548 49.36 483.26 49.264C482.983 49.168 482.716 49.0933 482.46 49.04C482.204 48.9867 481.964 48.96 481.74 48.96C481.441 48.96 481.212 49.0027 481.052 49.088C480.892 49.1627 480.812 49.28 480.812 49.44C480.812 49.5573 480.855 49.6693 480.94 49.776C481.036 49.872 481.212 49.9787 481.468 50.096C481.735 50.2133 482.119 50.3787 482.62 50.592C483.121 50.7947 483.548 51.008 483.9 51.232C484.252 51.456 484.519 51.7333 484.7 52.064C484.881 52.3947 484.972 52.8213 484.972 53.344ZM443.944 71.056C444.776 71.056 445.491 71.2107 446.088 71.52C446.696 71.8187 447.16 72.2667 447.48 72.864C447.811 73.4507 447.976 74.1813 447.976 75.056V76.304H442.424C442.445 76.88 442.632 77.3387 442.984 77.68C443.336 78.0213 443.837 78.192 444.488 78.192C445.053 78.192 445.565 78.1387 446.024 78.032C446.483 77.9253 446.957 77.7547 447.448 77.52V79.52C447.021 79.744 446.563 79.904 446.072 80C445.581 80.1067 444.979 80.16 444.264 80.16C443.379 80.16 442.589 80 441.896 79.68C441.213 79.36 440.675 78.8693 440.28 78.208C439.896 77.536 439.704 76.688 439.704 75.664C439.704 74.6187 439.88 73.76 440.232 73.088C440.584 72.4053 441.08 71.8987 441.72 71.568C442.36 71.2267 443.101 71.056 443.944 71.056ZM443.992 72.928C443.576 72.928 443.229 73.0613 442.952 73.328C442.685 73.584 442.525 73.9947 442.472 74.56H445.496C445.496 74.2507 445.437 73.9733 445.32 73.728C445.213 73.4827 445.048 73.2907 444.824 73.152C444.6 73.0027 444.323 72.928 443.992 72.928ZM453.569 80.16C452.694 80.16 451.937 80.0053 451.297 79.696C450.667 79.376 450.182 78.8853 449.841 78.224C449.51 77.552 449.345 76.6933 449.345 75.648C449.345 74.5813 449.531 73.712 449.905 73.04C450.289 72.3573 450.817 71.856 451.489 71.536C452.161 71.216 452.929 71.056 453.793 71.056C454.369 71.056 454.886 71.1147 455.345 71.232C455.814 71.3493 456.23 71.4987 456.593 71.68L455.809 73.712C455.435 73.5627 455.089 73.44 454.769 73.344C454.449 73.248 454.123 73.2 453.793 73.2C453.43 73.2 453.121 73.2907 452.865 73.472C452.609 73.6427 452.411 73.9093 452.273 74.272C452.145 74.6347 452.081 75.088 452.081 75.632C452.081 76.176 452.15 76.624 452.289 76.976C452.427 77.3173 452.625 77.5733 452.881 77.744C453.137 77.9147 453.446 78 453.809 78C454.278 78 454.715 77.9307 455.121 77.792C455.537 77.6533 455.931 77.4667 456.305 77.232V79.44C455.942 79.6747 455.547 79.856 455.121 79.984C454.694 80.1013 454.177 80.16 453.569 80.16ZM466.391 75.584C466.391 76.32 466.289 76.9707 466.087 77.536C465.895 78.1013 465.607 78.5813 465.223 78.976C464.849 79.3707 464.396 79.6693 463.863 79.872C463.34 80.064 462.737 80.16 462.055 80.16C461.436 80.16 460.86 80.064 460.327 79.872C459.804 79.6693 459.351 79.376 458.967 78.992C458.593 78.5973 458.3 78.1173 458.087 77.552C457.873 76.976 457.767 76.32 457.767 75.584C457.767 74.6133 457.937 73.792 458.279 73.12C458.631 72.448 459.132 71.936 459.783 71.584C460.433 71.232 461.207 71.056 462.103 71.056C462.945 71.056 463.687 71.232 464.327 71.584C464.967 71.936 465.468 72.448 465.831 73.12C466.204 73.792 466.391 74.6133 466.391 75.584ZM460.503 75.584C460.503 76.128 460.556 76.5867 460.663 76.96C460.769 77.3333 460.94 77.616 461.174 77.808C461.409 77.9893 461.713 78.08 462.087 78.08C462.471 78.08 462.775 77.9893 462.999 77.808C463.223 77.616 463.388 77.3333 463.495 76.96C463.601 76.5867 463.655 76.128 463.655 75.584C463.655 75.04 463.601 74.5867 463.495 74.224C463.388 73.8613 463.217 73.5893 462.983 73.408C462.759 73.2267 462.455 73.136 462.071 73.136C461.527 73.136 461.127 73.344 460.871 73.76C460.625 74.1653 460.503 74.7733 460.503 75.584ZM473.478 71.056C474.406 71.056 475.152 71.312 475.718 71.824C476.294 72.3253 476.582 73.1413 476.582 74.272V80H473.894V75.024C473.894 74.416 473.792 73.9573 473.59 73.648C473.387 73.3387 473.067 73.184 472.63 73.184C471.979 73.184 471.536 73.4293 471.302 73.92C471.067 74.4 470.95 75.0933 470.95 76V80H468.246V71.216H470.294L470.662 72.352H470.79C470.982 72.064 471.211 71.824 471.478 71.632C471.744 71.44 472.048 71.296 472.39 71.2C472.731 71.104 473.094 71.056 473.478 71.056ZM487.031 75.584C487.031 76.32 486.93 76.9707 486.727 77.536C486.535 78.1013 486.247 78.5813 485.863 78.976C485.49 79.3707 485.036 79.6693 484.503 79.872C483.98 80.064 483.378 80.16 482.695 80.16C482.076 80.16 481.5 80.064 480.967 79.872C480.444 79.6693 479.991 79.376 479.607 78.992C479.234 78.5973 478.94 78.1173 478.727 77.552C478.514 76.976 478.407 76.32 478.407 75.584C478.407 74.6133 478.578 73.792 478.919 73.12C479.271 72.448 479.772 71.936 480.423 71.584C481.074 71.232 481.847 71.056 482.743 71.056C483.586 71.056 484.327 71.232 484.967 71.584C485.607 71.936 486.108 72.448 486.471 73.12C486.844 73.792 487.031 74.6133 487.031 75.584ZM481.143 75.584C481.143 76.128 481.196 76.5867 481.303 76.96C481.41 77.3333 481.58 77.616 481.815 77.808C482.05 77.9893 482.354 78.08 482.727 78.08C483.111 78.08 483.415 77.9893 483.639 77.808C483.863 77.616 484.028 77.3333 484.135 76.96C484.242 76.5867 484.295 76.128 484.295 75.584C484.295 75.04 484.242 74.5867 484.135 74.224C484.028 73.8613 483.858 73.5893 483.623 73.408C483.399 73.2267 483.095 73.136 482.711 73.136C482.167 73.136 481.767 73.344 481.511 73.76C481.266 74.1653 481.143 74.7733 481.143 75.584ZM499.398 71.056C500.401 71.056 501.158 71.312 501.67 71.824C502.193 72.3253 502.454 73.1413 502.454 74.272V80H499.766V75.024C499.766 74.384 499.665 73.92 499.462 73.632C499.27 73.3333 498.972 73.184 498.566 73.184C498.001 73.184 497.601 73.408 497.366 73.856C497.132 74.2933 497.014 74.9227 497.014 75.744V80H494.326V75.024C494.326 74.608 494.284 74.2667 494.198 74C494.113 73.7227 493.985 73.52 493.814 73.392C493.644 73.2533 493.42 73.184 493.142 73.184C492.748 73.184 492.433 73.296 492.198 73.52C491.974 73.7333 491.814 74.048 491.718 74.464C491.633 74.88 491.59 75.392 491.59 76V80H488.886V71.216H490.934L491.318 72.32H491.43C491.601 72.0427 491.814 71.8133 492.07 71.632C492.326 71.44 492.62 71.296 492.95 71.2C493.281 71.104 493.638 71.056 494.022 71.056C494.662 71.056 495.201 71.1627 495.638 71.376C496.076 71.5893 496.417 71.8987 496.662 72.304H496.822C497.1 71.888 497.468 71.5787 497.926 71.376C498.385 71.1627 498.876 71.056 499.398 71.056ZM507.434 71.216V80H504.746V71.216H507.434ZM506.106 67.728C506.49 67.728 506.826 67.8133 507.114 67.984C507.402 68.1547 507.546 68.4853 507.546 68.976C507.546 69.456 507.402 69.7867 507.114 69.968C506.826 70.1387 506.49 70.224 506.106 70.224C505.701 70.224 505.354 70.1387 505.066 69.968C504.789 69.7867 504.65 69.456 504.65 68.976C504.65 68.4853 504.789 68.1547 505.066 67.984C505.354 67.8133 505.701 67.728 506.106 67.728ZM516.113 80H509.025V78.432L512.897 73.28H509.249V71.216H515.953V72.912L512.225 77.936H516.113V80ZM521.651 71.04C522.792 71.04 523.677 71.3067 524.307 71.84C524.936 72.3627 525.251 73.1413 525.251 74.176V80H523.379L522.851 78.816H522.787C522.541 79.1253 522.285 79.3813 522.019 79.584C521.763 79.7867 521.464 79.9307 521.123 80.016C520.792 80.112 520.381 80.16 519.891 80.16C519.379 80.16 518.915 80.0587 518.499 79.856C518.093 79.6533 517.773 79.344 517.539 78.928C517.304 78.512 517.187 77.984 517.187 77.344C517.187 76.4053 517.512 75.712 518.163 75.264C518.824 74.816 519.789 74.5653 521.059 74.512L522.563 74.464V74.208C522.563 73.7813 522.451 73.472 522.227 73.28C522.013 73.088 521.715 72.992 521.331 72.992C520.947 72.992 520.547 73.056 520.131 73.184C519.715 73.3013 519.293 73.4507 518.867 73.632L518.051 71.84C518.531 71.584 519.075 71.3867 519.683 71.248C520.291 71.1093 520.947 71.04 521.651 71.04ZM521.747 76.032C521.075 76.0533 520.605 76.176 520.339 76.4C520.072 76.6133 519.939 76.9067 519.939 77.28C519.939 77.6107 520.035 77.8507 520.227 78C520.419 78.1493 520.664 78.224 520.963 78.224C521.411 78.224 521.789 78.0907 522.099 77.824C522.408 77.5467 522.563 77.1733 522.563 76.704V76L521.747 76.032ZM538.039 71.056C539.042 71.056 539.799 71.312 540.311 71.824C540.834 72.3253 541.095 73.1413 541.095 74.272V80H538.407V75.024C538.407 74.384 538.306 73.92 538.103 73.632C537.911 73.3333 537.612 73.184 537.207 73.184C536.642 73.184 536.242 73.408 536.007 73.856C535.772 74.2933 535.655 74.9227 535.655 75.744V80H532.967V75.024C532.967 74.608 532.924 74.2667 532.839 74C532.754 73.7227 532.626 73.52 532.455 73.392C532.284 73.2533 532.06 73.184 531.783 73.184C531.388 73.184 531.074 73.296 530.839 73.52C530.615 73.7333 530.455 74.048 530.359 74.464C530.274 74.88 530.231 75.392 530.231 76V80H527.527V71.216H529.575L529.959 72.32H530.071C530.242 72.0427 530.455 71.8133 530.711 71.632C530.967 71.44 531.26 71.296 531.591 71.2C531.922 71.104 532.279 71.056 532.663 71.056C533.303 71.056 533.842 71.1627 534.279 71.376C534.716 71.5893 535.058 71.8987 535.303 72.304H535.463C535.74 71.888 536.108 71.5787 536.567 71.376C537.026 71.1627 537.516 71.056 538.039 71.056Z" fill="#F2F6FC"></path><defs><filter id="filter0_b_338_6437" x="-16" y="-15.9433" width="252.317" height="159" filterUnits="userSpaceOnUse" color-interpolation-filters="sRGB"><feGaussianBlur stdDeviation="8"></feGaussianBlur></filter><filter id="filter1_b_338_6437" x="161.858" y="-16" width="258.014" height="159.113" filterUnits="userSpaceOnUse" color-interpolation-filters="sRGB"><feGaussianBlur stdDeviation="8"></feGaussianBlur></filter><filter id="filter2_b_338_6437" x="345.858" y="-16" width="255.83" height="159.057" filterUnits="userSpaceOnUse" color-interpolation-filters="sRGB"><feGaussianBlur stdDeviation="8"></feGaussianBlur></filter></defs></svg>