<svg xmlns="http://www.w3.org/2000/svg" width="16" height="16" viewBox="0 0 16 16" fill="none"><path d="M5.5 0.750061C5.5 0.334436 5.16563 6.10352e-05 4.75 6.10352e-05C4.33437 6.10352e-05 4 0.334436 4 0.750061V2.00006C2.89687 2.00006 2 2.89694 2 4.00006H0.75C0.334375 4.00006 0 4.33444 0 4.75006C0 5.16569 0.334375 5.50006 0.75 5.50006H2V7.25006H0.75C0.334375 7.25006 0 7.58444 0 8.00006C0 8.41569 0.334375 8.75006 0.75 8.75006H2V10.5001H0.75C0.334375 10.5001 0 10.8344 0 11.2501C0 11.6657 0.334375 12.0001 0.75 12.0001H2C2 13.1032 2.89687 14.0001 4 14.0001V15.2501C4 15.6657 4.33437 16.0001 4.75 16.0001C5.16563 16.0001 5.5 15.6657 5.5 15.2501V14.0001H7.25V15.2501C7.25 15.6657 7.58437 16.0001 8 16.0001C8.41562 16.0001 8.75 15.6657 8.75 15.2501V14.0001H10.5V15.2501C10.5 15.6657 10.8344 16.0001 11.25 16.0001C11.6656 16.0001 12 15.6657 12 15.2501V14.0001C13.1031 14.0001 14 13.1032 14 12.0001H15.25C15.6656 12.0001 16 11.6657 16 11.2501C16 10.8344 15.6656 10.5001 15.25 10.5001H14V8.75006H15.25C15.6656 8.75006 16 8.41569 16 8.00006C16 7.58444 15.6656 7.25006 15.25 7.25006H14V5.50006H15.25C15.6656 5.50006 16 5.16569 16 4.75006C16 4.33444 15.6656 4.00006 15.25 4.00006H14C14 2.89694 13.1031 2.00006 12 2.00006V0.750061C12 0.334436 11.6656 6.10352e-05 11.25 6.10352e-05C10.8344 6.10352e-05 10.5 0.334436 10.5 0.750061V2.00006H8.75V0.750061C8.75 0.334436 8.41562 6.10352e-05 8 6.10352e-05C7.58437 6.10352e-05 7.25 0.334436 7.25 0.750061V2.00006H5.5V0.750061ZM5 4.00006H11C11.5531 4.00006 12 4.44694 12 5.00006V11.0001C12 11.5532 11.5531 12.0001 11 12.0001H5C4.44688 12.0001 4 11.5532 4 11.0001V5.00006C4 4.44694 4.44688 4.00006 5 4.00006ZM11 5.00006H5V11.0001H11V5.00006Z" fill="url(#paint0_linear_378_1524)"></path><defs><linearGradient id="paint0_linear_378_1524" x1="0" y1="6.10352e-05" x2="19.2131" y2="6.49448" gradientUnits="userSpaceOnUse"><stop stop-color="#3DADFE"></stop><stop offset="0.509663" stop-color="#5C87FE"></stop><stop offset="1" stop-color="#004D99"></stop></linearGradient></defs></svg>