<svg xmlns="http://www.w3.org/2000/svg" width="16" height="16" viewBox="0 0 16 16" fill="none"><path d="M6.4 1.50009H14.4C15.2825 1.50009 16 2.21759 16 3.10009V8.70009C16 9.58259 15.2825 10.3001 14.4 10.3001H6.4C5.5175 10.3001 4.8 9.58259 4.8 8.70009V3.10009C4.8 2.21759 5.5175 1.50009 6.4 1.50009ZM11.9 4.16759C11.7875 4.00009 11.6 3.90009 11.4 3.90009C11.2 3.90009 11.0125 4.00009 10.9 4.16759L9.5 6.26759L9.0675 5.72509C8.9525 5.58259 8.78 5.50009 8.6 5.50009C8.42 5.50009 8.245 5.58259 8.1325 5.72509L6.5325 7.72509C6.3875 7.90509 6.36 8.15259 6.46 8.36009C6.56 8.56759 6.77 8.70009 7 8.70009H9H10.2H13.8C14.0225 8.70009 14.225 8.57759 14.33 8.38259C14.435 8.18759 14.4225 7.95009 14.3 7.76759L11.9 4.16759ZM8.4 3.90009C8.4 3.68792 8.31571 3.48444 8.16569 3.33441C8.01566 3.18438 7.81217 3.10009 7.6 3.10009C7.38783 3.10009 7.18434 3.18438 7.03431 3.33441C6.88429 3.48444 6.8 3.68792 6.8 3.90009C6.8 4.11226 6.88429 4.31575 7.03431 4.46578C7.18434 4.61581 7.38783 4.70009 7.6 4.70009C7.81217 4.70009 8.01566 4.61581 8.16569 4.46578C8.31571 4.31575 8.4 4.11226 8.4 3.90009ZM1.6 4.70009H4V11.1001V11.9001C4 12.3426 4.3575 12.7001 4.8 12.7001H8C8.4425 12.7001 8.8 12.3426 8.8 11.9001V11.1001H12.8V12.7001C12.8 13.5826 12.0825 14.3001 11.2 14.3001H1.6C0.7175 14.3001 0 13.5826 0 12.7001V6.30009C0 5.41759 0.7175 4.70009 1.6 4.70009ZM1.8 6.30009C1.58 6.30009 1.4 6.48009 1.4 6.70009V7.10009C1.4 7.32009 1.58 7.50009 1.8 7.50009H2.2C2.42 7.50009 2.6 7.32009 2.6 7.10009V6.70009C2.6 6.48009 2.42 6.30009 2.2 6.30009H1.8ZM1.8 8.90009C1.58 8.90009 1.4 9.08009 1.4 9.30009V9.70009C1.4 9.92009 1.58 10.1001 1.8 10.1001H2.2C2.42 10.1001 2.6 9.92009 2.6 9.70009V9.30009C2.6 9.08009 2.42 8.90009 2.2 8.90009H1.8ZM1.8 11.5001C1.58 11.5001 1.4 11.6801 1.4 11.9001V12.3001C1.4 12.5201 1.58 12.7001 1.8 12.7001H2.2C2.42 12.7001 2.6 12.5201 2.6 12.3001V11.9001C2.6 11.6801 2.42 11.5001 2.2 11.5001H1.8ZM10.2 11.9001V12.3001C10.2 12.5201 10.38 12.7001 10.6 12.7001H11C11.22 12.7001 11.4 12.5201 11.4 12.3001V11.9001C11.4 11.6801 11.22 11.5001 11 11.5001H10.6C10.38 11.5001 10.2 11.6801 10.2 11.9001Z" fill="url(#paint0_linear_378_1468)"></path><defs><linearGradient id="paint0_linear_378_1468" x1="0" y1="1.50009" x2="18.1653" y2="9.1754" gradientUnits="userSpaceOnUse"><stop stop-color="#3DADFE"></stop><stop offset="0.509663" stop-color="#5C87FE"></stop><stop offset="1" stop-color="#004D99"></stop></linearGradient></defs></svg>