<svg xmlns="http://www.w3.org/2000/svg" width="16" height="16" viewBox="0 0 16 16" fill="none"><g clip-path="url(#clip0_378_6114)"><path d="M5 3.00012V8.00012C5 9.65637 6.34375 11.0001 8 11.0001C9.65625 11.0001 11 9.65637 11 8.00012H8.5C8.225 8.00012 8 7.77512 8 7.50012C8 7.22512 8.225 7.00012 8.5 7.00012H11V6.00012H8.5C8.225 6.00012 8 5.77512 8 5.50012C8 5.22512 8.225 5.00012 8.5 5.00012H11V4.00012H8.5C8.225 4.00012 8 3.77512 8 3.50012C8 3.22512 8.225 3.00012 8.5 3.00012H11C11 1.34387 9.65625 0.00012207 8 0.00012207C6.34375 0.00012207 5 1.34387 5 3.00012ZM12 7.50012V8.00012C12 10.2095 10.2094 12.0001 8 12.0001C5.79063 12.0001 4 10.2095 4 8.00012V6.75012C4 6.3345 3.66563 6.00012 3.25 6.00012C2.83437 6.00012 2.5 6.3345 2.5 6.75012V8.00012C2.5 10.7845 4.56875 13.0845 7.25 13.4501V14.5001H5.75C5.33437 14.5001 5 14.8345 5 15.2501C5 15.6657 5.33437 16.0001 5.75 16.0001H8H10.25C10.6656 16.0001 11 15.6657 11 15.2501C11 14.8345 10.6656 14.5001 10.25 14.5001H8.75V13.4501C11.4313 13.0845 13.5 10.7845 13.5 8.00012V6.75012C13.5 6.3345 13.1656 6.00012 12.75 6.00012C12.3344 6.00012 12 6.3345 12 6.75012V7.50012Z" fill="url(#paint0_linear_378_6114)"></path></g><defs><linearGradient id="paint0_linear_378_6114" x1="2.5" y1="0.00012207" x2="16.4641" y2="3.24523" gradientUnits="userSpaceOnUse"><stop stop-color="#3DADFE"></stop><stop offset="0.509663" stop-color="#5C87FE"></stop><stop offset="1" stop-color="#004D99"></stop></linearGradient><clipPath id="clip0_378_6114"><rect width="16" height="16" fill="white"></rect></clipPath></defs></svg>