<svg xmlns="http://www.w3.org/2000/svg" width="16" height="16" viewBox="0 0 16 16" fill="none"><g clip-path="url(#clip0_378_1668)"><path d="M9.525 3.92917L4.6525 2.10167C4.235 1.94667 3.7725 1.96917 3.375 2.16917L2.2275 2.74167C1.95 2.88167 1.93 3.26917 2.19 3.43667L5.8625 5.79917L3.4 7.05667L1.945 6.40917C1.7275 6.31167 1.475 6.31667 1.2625 6.42417L0.4575 6.82667C0.225 6.94417 0.1625 7.24667 0.3325 7.44417L2.16 9.57667C2.3125 9.75417 2.535 9.85667 2.7675 9.85667H6.21C6.335 9.85667 6.4575 9.82667 6.5675 9.77167L13.39 6.36167C14.5525 5.77917 15.4525 4.77917 15.91 3.56167C16.1475 2.93167 15.68 2.25667 15.005 2.25667H13.57C13.065 2.25667 12.565 2.37667 12.115 2.60667L9.525 3.92917ZM0 13.0567C0 13.4992 0.3575 13.8567 0.8 13.8567H15.2C15.6425 13.8567 16 13.4992 16 13.0567C16 12.6142 15.6425 12.2567 15.2 12.2567H0.8C0.3575 12.2567 0 12.6142 0 13.0567Z" fill="url(#paint0_linear_378_1668)"></path></g><defs><linearGradient id="paint0_linear_378_1668" x1="0" y1="2.00015" x2="17.7211" y2="10.0836" gradientUnits="userSpaceOnUse"><stop stop-color="#3DADFE"></stop><stop offset="0.509663" stop-color="#5C87FE"></stop><stop offset="1" stop-color="#004D99"></stop></linearGradient><clipPath id="clip0_378_1668"><rect width="16" height="16" fill="white"></rect></clipPath></defs></svg>