<svg xmlns="http://www.w3.org/2000/svg" width="16" height="16" viewBox="0 0 16 16" fill="none"><g clip-path="url(#clip0_378_1495)"><path d="M14.7094 0.293811C14.8031 0.390686 14.875 0.500061 14.925 0.615686C14.975 0.731311 15 0.859436 15 0.996936V1.00006V4.00006C15 4.55319 14.5531 5.00006 14 5.00006C13.4469 5.00006 13 4.55319 13 4.00006V3.41569L9.70625 6.70631C9.3375 7.07506 8.74375 7.10006 8.34688 6.75944L5.5 4.31569L2.65 6.75944C2.23125 7.11881 1.6 7.06881 1.24063 6.65006C0.88125 6.23131 0.93125 5.60006 1.35 5.24069L4.85 2.24069C5.225 1.91881 5.77812 1.91881 6.15312 2.24069L8.95 4.63756L11.5844 2.00006H11C10.4469 2.00006 10 1.55319 10 1.00006C10 0.446936 10.4469 6.10352e-05 11 6.10352e-05H14C14.275 6.10352e-05 14.525 0.112561 14.7063 0.290686L14.7094 0.293811ZM0 9.50006C0 8.67194 0.671875 8.00006 1.5 8.00006H14.5C15.3281 8.00006 16 8.67194 16 9.50006V14.5001C16 15.3282 15.3281 16.0001 14.5 16.0001H1.5C0.671875 16.0001 0 15.3282 0 14.5001V9.50006ZM1.5 13.0001V14.5001H3C3 13.6719 2.32812 13.0001 1.5 13.0001ZM3 9.50006H1.5V11.0001C2.32812 11.0001 3 10.3282 3 9.50006ZM14.5 13.0001C13.6719 13.0001 13 13.6719 13 14.5001H14.5V13.0001ZM13 9.50006C13 10.3282 13.6719 11.0001 14.5 11.0001V9.50006H13ZM10 12.0001C10 11.4696 9.78929 10.9609 9.41421 10.5858C9.03914 10.2108 8.53043 10.0001 8 10.0001C7.46957 10.0001 6.96086 10.2108 6.58579 10.5858C6.21071 10.9609 6 11.4696 6 12.0001C6 12.5305 6.21071 13.0392 6.58579 13.4143C6.96086 13.7893 7.46957 14.0001 8 14.0001C8.53043 14.0001 9.03914 13.7893 9.41421 13.4143C9.78929 13.0392 10 12.5305 10 12.0001Z" fill="url(#paint0_linear_378_1495)"></path></g><defs><linearGradient id="paint0_linear_378_1495" x1="0" y1="6.10352e-05" x2="19.2131" y2="6.49448" gradientUnits="userSpaceOnUse"><stop stop-color="#3DADFE"></stop><stop offset="0.509663" stop-color="#5C87FE"></stop><stop offset="1" stop-color="#004D99"></stop></linearGradient><clipPath id="clip0_378_1495"><rect width="16" height="16" fill="white"></rect></clipPath></defs></svg>