<svg xmlns="http://www.w3.org/2000/svg" width="16" height="16" viewBox="0 0 16 16" fill="none"><g clip-path="url(#clip0_378_1631)"><path d="M1 3.00009C1 1.34384 2.34375 9.15527e-05 4 9.15527e-05H7V5.95947C7 6.37822 7.48438 6.61259 7.8125 6.35009L9.5 5.00009L11.1875 6.35009C11.5156 6.61259 12 6.37822 12 5.95947V9.15527e-05H13H14C14.5531 9.15527e-05 15 0.446967 15 1.00009V11.0001C15 11.5532 14.5531 12.0001 14 12.0001V14.0001C14.5531 14.0001 15 14.447 15 15.0001C15 15.5532 14.5531 16.0001 14 16.0001H13H4C2.34375 16.0001 1 14.6563 1 13.0001V3.00009ZM3 13.0001C3 13.5532 3.44687 14.0001 4 14.0001H12V12.0001H4C3.44687 12.0001 3 12.447 3 13.0001Z" fill="url(#paint0_linear_378_1631)"></path></g><defs><linearGradient id="paint0_linear_378_1631" x1="1" y1="9.15527e-05" x2="18.2254" y2="5.09482" gradientUnits="userSpaceOnUse"><stop stop-color="#3DADFE"></stop><stop offset="0.509663" stop-color="#5C87FE"></stop><stop offset="1" stop-color="#004D99"></stop></linearGradient><clipPath id="clip0_378_1631"><rect width="16" height="16" fill="white"></rect></clipPath></defs></svg>