<svg xmlns="http://www.w3.org/2000/svg" width="16" height="16" viewBox="0 0 16 16" fill="none"><g clip-path="url(#clip0_378_1536)"><path d="M15.9958 8.09734C15.9958 8.59734 15.5791 8.98901 15.1068 8.98901H14.2179L14.2373 13.439C14.2429 14.4251 13.4456 15.2251 12.4594 15.2251H3.55864C2.578 15.2251 1.78071 14.4279 1.78071 13.4473V8.98901H0.888965C0.388922 8.98901 0 8.60012 0 8.09734C0 7.84734 0.0833404 7.62512 0.277801 7.43068L7.40063 1.22234C7.59509 1.0279 7.81733 1.00012 8.01179 1.00012C8.20625 1.00012 8.42849 1.05568 8.59518 1.19457L11.5565 3.79734V2.7779C11.5565 2.28623 11.9538 1.88901 12.4455 1.88901H13.3345C13.8262 1.88901 14.2234 2.28623 14.2234 2.7779V6.13901L15.6902 7.4279C15.9125 7.62234 16.0236 7.84457 15.9958 8.09457V8.09734ZM7.5562 6.33346C7.31173 6.33346 7.11172 6.53346 7.11172 6.7779V8.11123H5.77827C5.5338 8.11123 5.33379 8.31123 5.33379 8.55568V9.44457C5.33379 9.68901 5.5338 9.88901 5.77827 9.88901H7.11172V11.2223C7.11172 11.4668 7.31173 11.6668 7.5562 11.6668H8.44516C8.68963 11.6668 8.88965 11.4668 8.88965 11.2223V9.88901H10.2231C10.4676 9.88901 10.6676 9.68901 10.6676 9.44457V8.55568C10.6676 8.31123 10.4676 8.11123 10.2231 8.11123H8.88965V6.7779C8.88965 6.53346 8.68963 6.33346 8.44516 6.33346H7.5562Z" fill="url(#paint0_linear_378_1536)"></path></g><defs><linearGradient id="paint0_linear_378_1536" x1="0" y1="1.00012" x2="18.7046" y2="8.11158" gradientUnits="userSpaceOnUse"><stop stop-color="#3DADFE"></stop><stop offset="0.509663" stop-color="#5C87FE"></stop><stop offset="1" stop-color="#004D99"></stop></linearGradient><clipPath id="clip0_378_1536"><rect width="16" height="16" fill="white"></rect></clipPath></defs></svg>