<svg xmlns="http://www.w3.org/2000/svg" width="16" height="16" viewBox="0 0 16 16" fill="none"><g clip-path="url(#clip0_378_1550)"><path d="M10.6667 3.00015C10.6667 3.44703 10.5727 3.87203 10.4 4.2564L12 7.1064C11.2818 7.89703 10.3576 8.48453 9.31818 8.7814L7.75758 6.00015L5.69697 9.67203C6.34848 9.88453 7.03939 10.0002 7.76061 10.0002C9.90303 10.0002 11.8152 8.97828 13.0606 7.37515C13.397 6.9439 14.0061 6.87515 14.4242 7.2189C14.8424 7.56265 14.9091 8.1939 14.5758 8.62515C12.9727 10.6814 10.5152 12.0002 7.75758 12.0002C6.68485 12.0002 5.65455 11.8002 4.70606 11.4345L2.99091 14.4908C2.84848 14.7439 2.63636 14.9502 2.38182 15.0814L0.70303 15.947C0.551515 16.0252 0.372727 16.0158 0.230303 15.9252C0.0878788 15.8345 0 15.672 0 15.5002V13.7689C0 13.5064 0.0666667 13.247 0.19697 13.0158L2.01515 9.77515C1.62727 9.42515 1.26667 9.04078 0.945455 8.62515C0.609091 8.1939 0.678788 7.56578 1.09697 7.2189C1.51515 6.87203 2.12424 6.9439 2.46061 7.37515C2.63333 7.59703 2.81818 7.8064 3.01212 8.00328L5.11515 4.2564C4.94545 3.87515 4.84848 3.45015 4.84848 3.00015C4.84848 1.3439 6.15151 0.000152588 7.75758 0.000152588C9.36364 0.000152588 10.6667 1.3439 10.6667 3.00015ZM11.303 12.3095C12.2909 11.9095 13.197 11.347 13.997 10.6564L15.3212 13.0158C15.4485 13.2439 15.5182 13.5033 15.5182 13.7689V15.5002C15.5182 15.672 15.4303 15.8345 15.2879 15.9252C15.1455 16.0158 14.9667 16.0252 14.8152 15.947L13.1364 15.0814C12.8818 14.9502 12.6697 14.7439 12.5273 14.4908L11.303 12.3095ZM7.75758 4.00015C8.01476 4.00015 8.2614 3.8948 8.44325 3.70726C8.62511 3.51972 8.72727 3.26537 8.72727 3.00015C8.72727 2.73494 8.62511 2.48058 8.44325 2.29305C8.2614 2.10551 8.01476 2.00015 7.75758 2.00015C7.5004 2.00015 7.25375 2.10551 7.0719 2.29305C6.89004 2.48058 6.78788 2.73494 6.78788 3.00015C6.78788 3.26537 6.89004 3.51972 7.0719 3.70726C7.25375 3.8948 7.5004 4.00015 7.75758 4.00015Z" fill="url(#paint0_linear_378_1550)"></path></g><defs><linearGradient id="paint0_linear_378_1550" x1="0" y1="0.000152588" x2="18.7485" y2="6.14678" gradientUnits="userSpaceOnUse"><stop stop-color="#3DADFE"></stop><stop offset="0.509663" stop-color="#5C87FE"></stop><stop offset="1" stop-color="#004D99"></stop></linearGradient><clipPath id="clip0_378_1550"><rect width="16" height="16" fill="white"></rect></clipPath></defs></svg>