<svg xmlns="http://www.w3.org/2000/svg" width="243" height="79" viewBox="0 0 243 79" fill="none"><path d="M74.3268 30.0501L75.0167 28.206H76.26V15.412H74.3274V13.5916H80.264L79.5737 15.412H78.3304V28.206H80.263V30.0501H74.3268Z" fill="#002E5C"></path><path d="M81.2057 32.1477C81.2057 30.5572 82.1031 29.543 83.898 29.105C83.1845 28.7594 82.8166 28.1596 82.8166 27.3762C82.8166 26.5228 83.3226 25.8087 84.3125 25.2092C82.9097 24.6327 82.1723 23.1572 82.1723 21.728C82.1723 18.8469 83.9669 17.4636 86.7743 17.4636C87.419 17.4636 87.9708 17.5323 88.4541 17.6939H92.7112L92.1128 19.2614H90.5022C90.9852 19.9075 91.238 20.7143 91.238 21.6593C91.238 24.2175 89.3742 25.6241 86.7051 25.6241C86.2907 25.6241 85.9685 25.6011 85.7385 25.5551C84.9794 25.9703 84.6112 26.4771 84.6112 27.0533C84.6112 27.6758 85.2322 27.9984 86.4284 27.9984H88.522C91.0087 27.9984 92.5489 29.128 92.5489 31.3407C92.5489 34.1761 90.432 35.5827 86.1982 35.5827C83.3226 35.5827 81.2057 34.5913 81.2057 32.1477ZM90.6173 31.5253C90.6173 30.8568 90.433 30.4189 90.0651 30.1883C89.6739 29.9581 88.9371 29.8428 87.8334 29.8428H85.7162C83.9902 29.8428 83.1393 30.5802 83.1393 32.0784C83.1393 33.369 84.1515 34.0375 86.1766 34.0375C89.1447 34.0365 90.6173 33.2081 90.6173 31.5253ZM89.2365 21.6363C89.2365 19.8379 88.385 18.9392 86.7055 18.9392C85.026 18.9392 84.1744 19.8612 84.1744 21.6593C84.1744 23.365 85.0259 24.2178 86.7287 24.2175C88.4079 24.2175 89.2365 23.3418 89.2365 21.6363Z" fill="#002E5C"></path><path d="M101.868 17.6022L101.615 19.4693C101.177 19.3688 100.73 19.3147 100.28 19.3077C98.3705 19.3077 96.691 20.9685 96.691 23.4571V30.05H94.6659V17.6942H96.3237L96.5529 19.9519H96.6447C97.4271 18.5917 98.6928 17.4626 100.418 17.4626C100.88 17.4639 101.454 17.5099 101.868 17.6022Z" fill="#002E5C"></path><path d="M112.637 23.0422V24.2635H104.191C104.26 27.053 105.664 28.5512 108.126 28.5512C109.323 28.5512 110.542 28.3209 111.509 27.9524L112.082 29.4732C110.817 30.0267 109.712 30.28 108.034 30.28C104.513 30.28 102.097 28.0907 102.097 23.964C102.097 19.9078 104.283 17.4636 107.551 17.4636C110.703 17.4639 112.637 19.6766 112.637 23.0422ZM104.238 22.6503H110.52C110.496 20.5527 109.576 19.1231 107.528 19.1231C105.595 19.1231 104.444 20.4377 104.238 22.6503Z" fill="#002E5C"></path><path d="M113.302 33.8996C114.614 33.302 114.913 32.4244 114.913 30.236V17.6943H116.938V30.35C116.938 32.7703 116.294 34.6833 113.947 35.5827L113.302 33.8996ZM115.948 13.061C116.569 13.061 117.121 13.4529 117.121 14.3516C117.121 15.228 116.569 15.6426 115.948 15.6426C115.281 15.6426 114.751 15.2274 114.751 14.3516C114.752 13.4529 115.281 13.061 115.949 13.061H115.948Z" fill="#002E5C"></path><path d="M129.018 21.6363V30.0501H127.545L127.154 28.2983H127.062C125.981 29.6582 124.991 30.2803 122.92 30.2803C120.688 30.2803 119.031 29.128 119.031 26.6155C119.031 24.1489 120.918 22.7887 124.944 22.6734L127.038 22.6047V21.8682C127.038 19.8165 126.095 19.1247 124.484 19.1247C123.195 19.1247 122.022 19.5862 121.009 20.0701L120.389 18.5467C121.47 17.9718 122.989 17.4863 124.599 17.4863C127.591 17.487 129.018 18.7546 129.018 21.6363ZM125.198 24.0799C122.115 24.1952 121.125 25.07 121.125 26.6381C121.125 28.0214 122.046 28.6438 123.38 28.6438C125.453 28.6438 127.015 27.5145 127.015 25.1173V24.0106L125.198 24.0799Z" fill="#002E5C"></path><path d="M146.504 24.9558H139.992L138.036 30.0502H135.942L142.362 13.522H144.226L150.623 30.0502H148.483L146.504 24.9558ZM144.042 18.1316C143.904 17.7627 143.421 16.2412 143.259 15.6647C143.029 16.6107 142.73 17.6024 142.546 18.1316L140.682 23.1107H145.882L144.042 18.1316Z" fill="#002E5C"></path><path d="M151.012 23.8952C151.012 19.6539 153.037 17.4639 156.098 17.4639C158.008 17.4639 159.158 18.2706 159.917 19.2844H160.055C160.01 18.8925 159.917 17.9241 159.917 17.4639V13.3145L161.943 12.5308V30.05H160.309L160.01 28.3892H159.917C159.181 29.4496 158.008 30.2793 156.075 30.2793C153.015 30.2803 151.012 28.1366 151.012 23.8952ZM159.939 24.2871V23.9182C159.939 20.8522 159.11 19.1464 156.373 19.1464C154.186 19.1464 153.105 21.0135 153.105 23.9415C153.105 26.8923 154.186 28.5978 156.396 28.5978C158.997 28.5978 159.941 27.1698 159.941 24.2871H159.939Z" fill="#002E5C"></path><path d="M163.622 17.6943H165.785L168.408 24.9787C168.777 25.9928 169.26 27.4913 169.397 28.2521H169.489C169.648 27.4913 170.179 25.9698 170.524 24.9787L173.147 17.6943H175.311L170.616 30.0502H168.292L163.622 17.6943Z" fill="#002E5C"></path><path d="M186.584 23.0422V24.2635H178.139C178.208 27.053 179.612 28.5512 182.074 28.5512C183.271 28.5512 184.49 28.3209 185.457 27.9524L186.031 29.4732C184.765 30.0267 183.661 30.28 181.982 30.28C178.461 30.28 176.045 28.0907 176.045 23.964C176.045 19.9078 178.231 17.4636 181.497 17.4636C184.651 17.4639 186.584 19.6766 186.584 23.0422ZM178.185 22.6503H184.466C184.443 20.5527 183.522 19.1231 181.474 19.1231C179.543 19.1231 178.392 20.4377 178.185 22.6503Z" fill="#002E5C"></path><path d="M199.169 22.0049V30.05H197.167V22.1432C197.167 20.1608 196.292 19.1694 194.405 19.1694C191.667 19.1694 190.793 20.7599 190.793 23.6407V30.05H188.768V17.6942H190.402L190.702 19.377H190.816C191.621 18.0858 193.141 17.4636 194.706 17.4636C197.651 17.4639 199.169 18.8239 199.169 22.0049Z" fill="#002E5C"></path><path d="M207.406 28.3214L207.958 29.7736C207.521 30.0502 206.647 30.2804 205.703 30.2804C203.771 30.2804 202.091 29.4501 202.091 26.4543V15.62L204.115 14.8589V17.6943H207.681V19.2615H204.115V26.408C204.115 27.9065 204.921 28.6213 206.049 28.6213C206.509 28.6213 207.13 28.4597 207.406 28.3214Z" fill="#002E5C"></path><path d="M212.445 14.3516C212.445 15.228 211.892 15.6426 211.271 15.6426C210.604 15.6426 210.075 15.2274 210.075 14.3516C210.075 13.4529 210.604 13.061 211.271 13.061C211.892 13.061 212.445 13.4529 212.445 14.3516ZM212.26 30.0501H210.235V17.6943H212.26V30.0501Z" fill="#002E5C"></path><path d="M218.818 30.2804C217.092 30.2804 215.895 30.0038 214.952 29.497L215.55 27.9294C216.356 28.275 217.69 28.6439 218.864 28.6439C220.912 28.6439 221.786 27.9294 221.786 26.8234C221.786 25.9014 221.165 25.3482 218.749 24.4262C216.356 23.5041 214.929 22.7654 214.929 20.7377C214.929 18.64 216.793 17.4647 219.554 17.4647C220.909 17.46 222.251 17.743 223.489 18.295L222.868 19.9315C221.809 19.4707 220.612 19.1245 219.416 19.1245C217.76 19.1245 216.862 19.6994 216.862 20.623C216.862 21.6607 217.667 22.0752 220.038 22.9746C222.384 23.8503 223.742 24.6571 223.742 26.6395C223.742 29.0361 221.832 30.2804 218.818 30.2804Z" fill="#002E5C"></path><path d="M231.541 28.3214L232.094 29.7736C231.657 30.0502 230.782 30.2804 229.839 30.2804C227.906 30.2804 226.226 29.4501 226.226 26.4543V15.62L228.251 14.8589V17.6943H231.818V19.2615H228.251V26.408C228.251 27.9065 229.056 28.6213 230.184 28.6213C230.644 28.6213 231.265 28.4597 231.541 28.3214Z" fill="#002E5C"></path><path d="M243 21.6363V30.0501H241.527L241.136 28.2983H241.044C239.963 29.6582 238.972 30.2803 236.902 30.2803C234.671 30.2803 233.013 29.128 233.013 26.6155C233.013 24.1489 234.899 22.7887 238.926 22.6734L241.02 22.6047V21.8682C241.02 19.8165 240.077 19.1247 238.466 19.1247C237.177 19.1247 236.004 19.5862 234.991 20.0701L234.371 18.5467C235.452 17.9718 236.971 17.4863 238.582 17.4863C241.573 17.487 243 18.7546 243 21.6363ZM239.179 24.0799C236.096 24.1952 235.107 25.07 235.107 26.6381C235.107 28.0214 236.027 28.6438 237.361 28.6438C239.434 28.6438 240.998 27.5145 240.998 25.1173V24.0106L239.179 24.0799Z" fill="#002E5C"></path><path d="M74.212 48.6133C74.212 44.3719 76.2362 42.1806 79.2967 42.1806C81.2067 42.1806 82.3573 42.9877 83.1164 44.0011H83.2544C83.2085 43.6092 83.1164 42.6409 83.1164 42.1806V38.0325L85.1411 37.2488V54.768H83.5082L83.2091 53.1072H83.117C82.3809 54.1676 81.2073 54.9973 79.2741 54.9973C76.2138 54.9983 74.212 52.8546 74.212 48.6133ZM83.1387 49.0051V48.6363C83.1387 45.5702 82.3098 43.8644 79.5722 43.8644C77.3861 43.8644 76.3044 45.7315 76.3044 48.6596C76.3044 51.61 77.3861 53.3158 79.5954 53.3158C82.1979 53.3158 83.14 51.8863 83.14 49.0051H83.1387Z" fill="#002E5C"></path><path d="M92.872 54.9983C89.6048 54.9983 87.2115 52.6704 87.2115 48.567C87.2115 44.4869 89.3973 42.1807 92.9418 42.1807C96.2785 42.1807 98.6252 44.4859 98.6252 48.566C98.6246 52.6704 96.3926 54.9983 92.872 54.9983ZM92.9182 53.3158C95.403 53.3158 96.5307 51.4954 96.5307 48.567C96.5307 45.6386 95.403 43.8874 92.8962 43.8874C90.3894 43.8874 89.3055 45.6395 89.3055 48.5683C89.3055 51.497 90.4102 53.3158 92.9182 53.3158Z" fill="#002E5C"></path><path d="M111.532 54.9985C109.691 54.9985 108.057 54.7219 107.021 54.2148L107.666 52.5093C108.379 52.8315 109.875 53.1995 111.624 53.1995C114.063 53.1995 115.328 52.1851 115.328 50.5486C115.328 48.9348 114.431 48.2437 111.463 47.1603C108.655 46.1456 107.229 44.8317 107.229 42.2738C107.229 39.669 109.369 38.0781 112.475 38.0781C114.27 38.0781 115.766 38.4473 117.009 39.0005L116.342 40.7756C115.191 40.2917 113.856 39.8999 112.43 39.8999C110.382 39.8999 109.324 40.8682 109.324 42.2971C109.324 43.9579 110.244 44.6257 112.913 45.6164C115.814 46.7001 117.401 47.7834 117.401 50.3653C117.399 53.293 115.121 54.9985 111.532 54.9985Z" fill="#002E5C"></path><path d="M129.364 47.7603V48.9835H120.919C120.987 51.7726 122.391 53.2712 124.853 53.2712C126.05 53.2712 127.27 53.0409 128.236 52.672L128.811 54.1932C127.546 54.7464 126.441 55 124.762 55C121.242 55 118.826 52.8103 118.826 48.6839C118.826 44.6278 121.012 42.1833 124.279 42.1833C127.431 42.1807 129.364 44.3947 129.364 47.7603ZM120.965 47.3684H127.246C127.224 45.2707 126.303 43.8415 124.255 43.8415C122.322 43.8415 121.172 45.1557 120.965 47.3684ZM127.362 37.3399C126.787 38.193 125.153 39.9677 124.071 40.7975H122.736V40.5209C123.404 39.6682 124.394 38.1466 124.923 37.1096H127.362L127.362 37.3399Z" fill="#002E5C"></path><path d="M136.842 53.0397L137.394 54.4919C136.958 54.7685 136.083 54.9988 135.139 54.9988C133.207 54.9988 131.527 54.1684 131.527 51.1726V40.338L133.552 39.5769V42.4124H137.117V43.9796H133.55V51.126C133.55 52.6242 134.356 53.339 135.483 53.339C135.943 53.339 136.564 53.1777 136.842 53.0397Z" fill="#002E5C"></path><path d="M141.879 39.0697C141.879 39.9451 141.327 40.3603 140.706 40.3603C140.039 40.3603 139.509 39.9451 139.509 39.0697C139.509 38.1709 140.039 37.7791 140.706 37.7791C141.327 37.7791 141.879 38.1709 141.879 39.0697ZM141.695 54.7681H139.67V42.4123H141.695L141.695 54.7681Z" fill="#002E5C"></path><path d="M162.749 46.7229V54.7681H160.748V46.8155C160.748 44.8794 159.942 43.8881 158.239 43.8881C155.846 43.8881 154.903 45.317 154.903 47.9442V54.7674H152.9V46.8149C152.9 44.8788 152.095 43.8874 150.369 43.8874C147.883 43.8874 147.079 45.478 147.079 48.3588V54.7671H145.054V42.4122H146.688L146.987 44.0954H147.102C147.861 42.8041 149.265 42.1816 150.737 42.1816C152.624 42.1816 153.913 42.8501 154.511 44.2576H154.626C155.454 42.8523 156.973 42.1816 158.584 42.1816C161.369 42.1807 162.749 43.5419 162.749 46.7229Z" fill="#002E5C"></path><path d="M170.617 54.9983C167.349 54.9983 164.956 52.6704 164.956 48.567C164.956 44.4869 167.142 42.1816 170.686 42.1816C174.022 42.1816 176.37 44.4869 176.37 48.567C176.37 52.6704 174.137 54.9983 170.617 54.9983ZM170.663 53.3158C173.149 53.3158 174.275 51.4954 174.275 48.567C174.275 45.6386 173.148 43.8874 170.641 43.8874C168.134 43.8874 167.05 45.6396 167.05 48.5683C167.05 51.497 168.154 53.3158 170.663 53.3158Z" fill="#002E5C"></path><path d="M189.943 54.7682H185.364V38.3093H190.426C195.374 38.3093 198.527 41.0985 198.527 46.3775C198.527 51.9328 195.351 54.7682 189.943 54.7682ZM190.128 40.0838H187.437V52.9931H189.668C194.11 52.9931 196.341 50.7805 196.341 46.4458C196.34 42.0668 194.085 40.0838 190.128 40.0838Z" fill="#002E5C"></path><path d="M203.173 39.0697C203.173 39.946 202.621 40.3603 202 40.3603C201.332 40.3603 200.803 39.9451 200.803 39.0697C200.803 38.1709 201.332 37.7791 202 37.7791C202.621 37.7791 203.173 38.1709 203.173 39.0697ZM202.989 54.7681H200.964V42.4123H202.989V54.7681Z" fill="#002E5C"></path><path d="M215.069 46.3544V54.7681H213.596L213.205 53.016H213.113C212.032 54.3763 211.041 54.9984 208.971 54.9984C206.739 54.9984 205.082 53.8461 205.082 51.3335C205.082 48.867 206.969 47.5067 210.995 47.3914L213.089 47.3224V46.5847C213.089 44.533 212.146 43.8412 210.535 43.8412C209.246 43.8412 208.073 44.3024 207.06 44.7862L206.44 43.2666C207.521 42.6902 209.04 42.2063 210.65 42.2063C213.643 42.205 215.069 43.4726 215.069 46.3544ZM211.249 48.798C208.166 48.913 207.176 49.788 207.176 51.3562C207.176 52.7394 208.097 53.3616 209.431 53.3616C211.504 53.3616 213.066 52.2326 213.066 49.835V48.728L211.249 48.798Z" fill="#002E5C"></path><path d="M215.551 39.0234C215.551 38.1247 216.172 37.4792 217.07 37.4792C217.921 37.4792 218.588 38.1247 218.588 39.0234C218.588 39.8998 217.944 40.545 217.07 40.545C216.172 40.545 215.551 39.8998 215.551 39.0234ZM218.358 39.0234C218.358 38.3093 217.829 37.7095 217.07 37.7095C216.311 37.7095 215.781 38.263 215.781 39.0234C215.781 39.7382 216.31 40.3147 217.07 40.3147C217.783 40.3147 218.358 39.7855 218.358 39.0234ZM216.494 38.1014H217.022C217.483 38.1014 217.689 38.286 217.689 38.6549C217.689 38.9085 217.528 39.0468 217.367 39.1161L217.851 39.9228H217.483L217.069 39.208H216.816V39.9228H216.493L216.494 38.1014ZM217.022 38.9551C217.229 38.9551 217.367 38.8401 217.367 38.6555C217.367 38.4709 217.252 38.3789 217.022 38.3789H216.815V38.9538L217.022 38.9551Z" fill="#002E5C"></path><path d="M36.2317 31.6882C33.7692 34.1548 32.5779 35.3291 31.9626 38.3204C31.9166 38.544 31.6616 38.544 31.6616 38.3204V34.6559C31.6616 32.3062 33.7514 30.158 36.2403 27.6646L38.2421 25.6593C41.0457 22.8506 41.7226 19.5958 39.4931 17.661C39.3066 17.4991 39.4036 17.3008 39.6474 17.4122C42.4278 18.6818 44.6209 23.2936 39.8528 28.069L36.2317 31.6882ZM31.6517 41.1067V44.7962C31.6517 45.0197 31.9068 45.0197 31.9527 44.7962C32.568 41.8058 33.759 40.6072 36.2212 38.1403L40.1225 34.2404C44.8887 29.4656 45.7134 24.8445 43.2892 21.8749C43.1276 21.6769 42.9538 21.7954 43.0593 22.0346C44.6617 25.6688 40.8187 29.519 38.9888 31.3538L36.2304 34.1171C33.7415 36.6089 31.6517 38.7573 31.6517 41.1067ZM21.079 29.237C16.3125 34.0123 18.5044 38.6242 21.2847 39.8937C21.5286 40.0051 21.6255 39.8068 21.439 39.6449C19.2092 37.7101 19.8864 34.4553 22.69 31.6467L30.6121 23.7104C33.1013 21.2167 35.1908 19.0686 35.1908 16.7189V13.0534C35.1908 12.8298 34.9358 12.8298 34.8899 13.0534C34.2746 16.044 33.0832 17.219 30.621 19.6859L21.079 29.237ZM35.2007 10.268V6.57858C35.2007 6.35501 34.9456 6.35501 34.8997 6.57858C34.2848 9.56925 33.0937 10.7676 30.6312 13.2344L20.8097 23.0653C16.0451 27.8406 15.2187 32.4614 17.6429 35.431C17.8046 35.629 17.9783 35.5105 17.8728 35.2713C16.2701 31.6387 20.1134 27.787 21.9433 25.9537L30.622 17.2593C33.1109 14.7659 35.2007 12.6174 35.2007 10.268ZM19.7751 17.6722C15.6768 21.7791 15.1052 26.1233 15.9813 28.9585C16.0559 29.1993 16.2638 29.214 16.2618 28.9629C16.2411 26.5819 16.9246 24.536 21.2627 20.1902L30.6146 10.8234C33.1036 8.33005 35.1934 6.18191 35.1934 3.83223V0.167674C35.1934 -0.0558914 34.9383 -0.0558914 34.8921 0.167674C34.2771 3.15834 33.0828 4.33813 30.62 6.80502L19.7751 17.6722ZM25.5073 47.3969C25.4876 47.3969 25.4682 47.393 25.45 47.3854C25.4319 47.3779 25.4154 47.3668 25.4015 47.3529C25.3876 47.3389 25.3766 47.3224 25.3691 47.3042C25.3616 47.286 25.3577 47.2665 25.3578 47.2468V45.119C25.3577 45.0993 25.3616 45.0798 25.3691 45.0616C25.3766 45.0434 25.3876 45.0269 25.4015 45.0129C25.4154 44.999 25.4319 44.9879 25.45 44.9804C25.4682 44.9728 25.4876 44.9689 25.5073 44.9689H29.0981C29.1377 44.9689 29.1758 44.9532 29.2039 44.9251C29.232 44.897 29.2478 44.8589 29.2479 44.8192C29.2383 42.9086 27.8008 41.6107 22.0428 42.6154L9.60735 44.7553C9.60735 44.7553 0.13585 54.2431 0.0580608 54.3367C-0.0710569 54.4906 0.0280878 54.688 0.2283 54.6707C0.400776 54.6554 20.919 51.1039 20.919 51.1039C25.6285 50.308 28.1958 52.5532 28.9642 54.6567C29.0321 54.8426 29.2511 54.8144 29.2511 54.6369C29.2511 54.5091 29.2511 47.5447 29.2511 47.5447C29.2511 47.5251 29.2472 47.5056 29.2397 47.4874C29.2322 47.4692 29.2212 47.4527 29.2073 47.4388C29.1934 47.4249 29.1769 47.4139 29.1588 47.4063C29.1406 47.3988 29.1212 47.3949 29.1016 47.3949L25.5073 47.3969ZM40.3501 42.8706L36.2375 46.9932C33.7485 49.4869 31.6587 51.635 31.6587 53.9847L31.661 54.6388C31.661 54.8164 31.8816 54.8445 31.9479 54.6586C32.7162 52.5552 35.2839 50.3099 39.9934 51.1058C39.9934 51.1058 60.51 54.6573 60.6841 54.6726C60.8843 54.6902 60.9834 54.4925 60.8543 54.3386C60.7765 54.2463 51.3053 44.7572 51.3053 44.7572L40.3501 42.8706ZM44.9502 28.3488C44.8759 28.1079 44.6681 28.0933 44.67 28.3443C44.6907 30.7253 44.0072 32.7712 39.6691 37.1167L36.2394 40.5519C34.6772 42.1169 33.2745 43.5445 32.4455 44.9721H35.8342L36.2349 44.5704L41.1573 39.634C45.2553 35.5268 45.8269 31.1823 44.9515 28.3488H44.9502ZM31.6594 51.2071C31.6594 51.4306 31.9144 51.4306 31.9603 51.2071C32.2992 49.5603 32.8141 48.4626 33.6181 47.3969H31.8083C31.7886 47.3969 31.7692 47.4007 31.751 47.4083C31.7329 47.4158 31.7164 47.4268 31.7025 47.4407C31.6886 47.4546 31.6776 47.4712 31.6701 47.4893C31.6626 47.5075 31.6587 47.527 31.6587 47.5467L31.6594 51.2071Z" fill="#002E5C"></path><path d="M57.8654 47.738C57.8654 46.8517 58.5049 46.2107 59.3896 46.2107C60.2331 46.2107 60.9141 46.8517 60.9141 47.738C60.9141 48.6242 60.2743 49.2652 59.3896 49.2652C58.5049 49.2652 57.8654 48.6233 57.8654 47.738ZM60.6776 47.738C60.6776 47.0184 60.1417 46.4314 59.3896 46.4314C58.6375 46.4314 58.0978 46.9766 58.0978 47.738C58.0978 48.4582 58.6378 49.0449 59.3896 49.0449C60.1002 49.0433 60.6782 48.4981 60.6782 47.738H60.6776ZM58.8205 46.8309H59.3523C59.805 46.8309 60.0087 47.0098 60.0087 47.3678C60.0087 47.6297 59.8493 47.7753 59.6845 47.8421L60.1681 48.6482H59.811L59.3966 47.928H59.1393V48.6482H58.8234L58.8205 46.8309ZM59.344 47.6715C59.5601 47.6715 59.6889 47.5508 59.6889 47.3761C59.6889 47.1803 59.5809 47.0973 59.3383 47.0973H59.1349V47.6722L59.344 47.6715Z" fill="#002E5C"></path><path d="M80.868 74H78.228L74.772 67.724H74.724C74.732 67.892 74.74 68.076 74.748 68.276C74.764 68.468 74.776 68.668 74.784 68.876C74.792 69.076 74.8 69.276 74.808 69.476C74.816 69.668 74.824 69.856 74.832 70.04V74H73.008V65.432H75.636L79.08 71.636H79.116C79.108 71.468 79.1 71.292 79.092 71.108C79.084 70.916 79.076 70.724 79.068 70.532C79.06 70.332 79.052 70.14 79.044 69.956C79.044 69.764 79.04 69.58 79.032 69.404V65.432H80.868V74ZM87.8909 74H82.8869V65.432H87.8909V67.088H84.9269V68.732H87.6749V70.388H84.9269V72.32H87.8909V74ZM92.8792 69.092H96.4192V73.616C95.9712 73.768 95.4832 73.892 94.9552 73.988C94.4352 74.076 93.8672 74.12 93.2512 74.12C92.4112 74.12 91.6872 73.956 91.0792 73.628C90.4712 73.3 90.0032 72.808 89.6752 72.152C89.3552 71.496 89.1952 70.68 89.1952 69.704C89.1952 68.808 89.3672 68.032 89.7112 67.376C90.0552 66.72 90.5592 66.212 91.2232 65.852C91.8952 65.492 92.7152 65.312 93.6832 65.312C94.1712 65.312 94.6432 65.36 95.0992 65.456C95.5632 65.552 95.9712 65.68 96.3232 65.84L95.6632 67.46C95.3832 67.316 95.0752 67.204 94.7392 67.124C94.4032 67.044 94.0512 67.004 93.6832 67.004C93.1632 67.004 92.7232 67.124 92.3632 67.364C92.0112 67.596 91.7472 67.92 91.5712 68.336C91.3952 68.744 91.3072 69.212 91.3072 69.74C91.3072 70.292 91.3832 70.768 91.5352 71.168C91.6872 71.568 91.9152 71.88 92.2192 72.104C92.5312 72.32 92.9272 72.428 93.4072 72.428C93.5432 72.428 93.6752 72.424 93.8032 72.416C93.9312 72.4 94.0512 72.384 94.1632 72.368C94.2752 72.352 94.3752 72.336 94.4632 72.32V70.736H92.8792V69.092ZM106.205 69.704C106.205 70.368 106.125 70.972 105.965 71.516C105.805 72.052 105.557 72.516 105.221 72.908C104.885 73.3 104.457 73.6 103.937 73.808C103.417 74.016 102.801 74.12 102.089 74.12C101.385 74.12 100.773 74.016 100.253 73.808C99.7325 73.592 99.3045 73.292 98.9685 72.908C98.6325 72.516 98.3805 72.048 98.2125 71.504C98.0525 70.96 97.9725 70.356 97.9725 69.692C97.9725 68.804 98.1165 68.032 98.4045 67.376C98.7005 66.72 99.1525 66.212 99.7605 65.852C100.377 65.484 101.157 65.3 102.101 65.3C103.053 65.3 103.829 65.484 104.429 65.852C105.037 66.212 105.485 66.724 105.773 67.388C106.061 68.044 106.205 68.816 106.205 69.704ZM100.121 69.704C100.121 70.264 100.189 70.748 100.325 71.156C100.461 71.556 100.673 71.864 100.961 72.08C101.257 72.296 101.633 72.404 102.089 72.404C102.561 72.404 102.941 72.296 103.229 72.08C103.517 71.864 103.725 71.556 103.853 71.156C103.989 70.748 104.057 70.264 104.057 69.704C104.057 68.856 103.905 68.192 103.601 67.712C103.305 67.232 102.805 66.992 102.101 66.992C101.637 66.992 101.257 67.104 100.961 67.328C100.673 67.544 100.461 67.856 100.325 68.264C100.189 68.664 100.121 69.144 100.121 69.704ZM104.777 62.948C104.649 63.06 104.485 63.196 104.285 63.356C104.085 63.516 103.869 63.684 103.637 63.86C103.413 64.036 103.193 64.204 102.977 64.364C102.761 64.516 102.577 64.644 102.425 64.748H101.081V64.592C101.209 64.44 101.365 64.264 101.549 64.064C101.733 63.856 101.913 63.644 102.089 63.428C102.273 63.204 102.421 63.004 102.533 62.828H104.777V62.948ZM111.591 67.004C111.279 67.004 110.999 67.068 110.751 67.196C110.511 67.316 110.307 67.496 110.139 67.736C109.971 67.976 109.843 68.264 109.755 68.6C109.667 68.936 109.623 69.316 109.623 69.74C109.623 70.316 109.695 70.804 109.839 71.204C109.983 71.604 110.203 71.908 110.499 72.116C110.803 72.324 111.187 72.428 111.651 72.428C112.011 72.428 112.367 72.384 112.719 72.296C113.071 72.2 113.443 72.08 113.835 71.936V73.664C113.459 73.824 113.079 73.94 112.695 74.012C112.311 74.084 111.895 74.12 111.447 74.12C110.543 74.12 109.799 73.94 109.215 73.58C108.639 73.212 108.211 72.7 107.931 72.044C107.659 71.38 107.523 70.608 107.523 69.728C107.523 69.08 107.611 68.488 107.787 67.952C107.963 67.408 108.223 66.94 108.567 66.548C108.919 66.156 109.347 65.852 109.851 65.636C110.355 65.42 110.939 65.312 111.603 65.312C112.019 65.312 112.447 65.364 112.887 65.468C113.335 65.572 113.763 65.72 114.171 65.912L113.535 67.544C113.215 67.392 112.895 67.264 112.575 67.16C112.255 67.056 111.927 67.004 111.591 67.004ZM119.134 74H114.97V72.836L116.026 72.392V67.04L114.97 66.596V65.432H119.134V66.596L118.078 67.04V72.392L119.134 72.836V74ZM128.423 69.704C128.423 70.368 128.343 70.972 128.183 71.516C128.023 72.052 127.775 72.516 127.439 72.908C127.103 73.3 126.675 73.6 126.155 73.808C125.635 74.016 125.019 74.12 124.307 74.12C123.603 74.12 122.991 74.016 122.471 73.808C121.951 73.592 121.523 73.292 121.187 72.908C120.851 72.516 120.599 72.048 120.431 71.504C120.271 70.96 120.191 70.356 120.191 69.692C120.191 68.804 120.335 68.032 120.623 67.376C120.919 66.72 121.371 66.212 121.979 65.852C122.595 65.484 123.375 65.3 124.319 65.3C125.271 65.3 126.047 65.484 126.647 65.852C127.255 66.212 127.703 66.724 127.991 67.388C128.279 68.044 128.423 68.816 128.423 69.704ZM122.339 69.704C122.339 70.264 122.407 70.748 122.543 71.156C122.679 71.556 122.891 71.864 123.179 72.08C123.475 72.296 123.851 72.404 124.307 72.404C124.779 72.404 125.159 72.296 125.447 72.08C125.735 71.864 125.943 71.556 126.071 71.156C126.207 70.748 126.275 70.264 126.275 69.704C126.275 68.856 126.123 68.192 125.819 67.712C125.523 67.232 125.023 66.992 124.319 66.992C123.855 66.992 123.475 67.104 123.179 67.328C122.891 67.544 122.679 67.856 122.543 68.264C122.407 68.664 122.339 69.144 122.339 69.704ZM135.394 71.516C135.394 72.004 135.274 72.448 135.034 72.848C134.794 73.24 134.434 73.552 133.954 73.784C133.474 74.008 132.87 74.12 132.142 74.12C131.806 74.12 131.494 74.1 131.206 74.06C130.918 74.02 130.642 73.964 130.378 73.892C130.122 73.812 129.87 73.712 129.622 73.592V71.732C130.054 71.932 130.494 72.1 130.942 72.236C131.398 72.372 131.834 72.44 132.25 72.44C132.514 72.44 132.726 72.408 132.886 72.344C133.054 72.272 133.174 72.18 133.246 72.068C133.326 71.948 133.366 71.812 133.366 71.66C133.366 71.476 133.302 71.32 133.174 71.192C133.054 71.056 132.874 70.928 132.634 70.808C132.394 70.68 132.102 70.536 131.758 70.376C131.502 70.264 131.25 70.136 131.002 69.992C130.762 69.84 130.542 69.668 130.342 69.476C130.15 69.276 129.994 69.04 129.874 68.768C129.762 68.488 129.706 68.16 129.706 67.784C129.706 67.248 129.83 66.8 130.078 66.44C130.334 66.072 130.69 65.792 131.146 65.6C131.602 65.408 132.138 65.312 132.754 65.312C133.258 65.312 133.722 65.368 134.146 65.48C134.57 65.592 134.982 65.736 135.382 65.912L134.734 67.508C134.35 67.34 133.99 67.212 133.654 67.124C133.326 67.028 133.006 66.98 132.694 66.98C132.478 66.98 132.298 67.012 132.154 67.076C132.01 67.132 131.902 67.216 131.83 67.328C131.758 67.432 131.722 67.556 131.722 67.7C131.722 67.868 131.778 68.016 131.89 68.144C132.002 68.264 132.178 68.388 132.418 68.516C132.658 68.644 132.974 68.8 133.366 68.984C133.79 69.176 134.154 69.384 134.458 69.608C134.762 69.832 134.994 70.096 135.154 70.4C135.314 70.696 135.394 71.068 135.394 71.516Z" fill="#00172E"></path></svg>