<svg xmlns="http://www.w3.org/2000/svg" width="212" height="212" viewBox="0 0 212 212" fill="none"><circle cx="106.364" cy="106.364" r="31.3636" fill="url(#paint0_linear_417_6804)"></circle><g clip-path="url(#clip0_417_6804)"><path d="M116.559 107.156C117.145 106.516 117.145 105.478 116.559 104.839L109.059 96.6574C108.473 96.0182 107.522 96.0182 106.936 96.6574C106.35 97.2966 106.35 98.3347 106.936 98.9739L111.881 104.364H97.5C96.6703 104.364 96 105.095 96 106C96 106.905 96.6703 107.636 97.5 107.636H111.877L106.941 113.026C106.355 113.665 106.355 114.703 106.941 115.343C107.527 115.982 108.478 115.982 109.064 115.343L116.564 107.161L116.559 107.156Z" fill="#F2F6FC"></path></g><defs><linearGradient id="paint0_linear_417_6804" x1="75" y1="75" x2="150.324" y2="100.461" gradientUnits="userSpaceOnUse"><stop stop-color="#3DADFE"></stop><stop offset="0.509663" stop-color="#5C87FE"></stop><stop offset="1" stop-color="#004D99"></stop></linearGradient><clipPath id="clip0_417_6804"><rect width="21" height="20" fill="white" transform="translate(96 96)"></rect></clipPath></defs></svg>