<svg xmlns="http://www.w3.org/2000/svg" width="212" height="212" viewBox="0 0 212 212" fill="none"><circle cx="106" cy="106" r="106" fill="white"></circle><circle cx="106.364" cy="106.364" r="31.3636" fill="url(#paint0_linear_85_2153)"></circle><g clip-path="url(#clip0_85_2153)"><path d="M116.559 107.156C117.145 106.516 117.145 105.478 116.559 104.839L109.059 96.6574C108.473 96.0182 107.522 96.0182 106.936 96.6574C106.35 97.2966 106.35 98.3347 106.936 98.9739L111.881 104.364H97.5C96.6703 104.364 96 105.095 96 106C96 106.905 96.6703 107.636 97.5 107.636H111.877L106.941 113.026C106.355 113.665 106.355 114.703 106.941 115.343C107.527 115.982 108.478 115.982 109.064 115.343L116.564 107.161L116.559 107.156Z" fill="#F2F6FC"></path></g><path d="M30.0453 93.7829C29.9961 94.1436 30.026 94.4774 30.1348 94.7842C30.2357 95.0806 30.4116 95.3448 30.6626 95.5768C30.9135 95.8089 31.2263 96.0022 31.6008 96.1569C31.9753 96.3116 32.4077 96.4224 32.8978 96.4892C33.5636 96.58 34.1391 96.5737 34.6242 96.4703C35.1093 96.3669 35.4954 96.1606 35.7825 95.8512C36.0708 95.5326 36.2516 95.1051 36.3247 94.5687C36.3815 94.1525 36.3867 93.7341 36.3405 93.3133C36.285 92.8913 36.205 92.4423 36.1003 91.9665L38.0978 92.2389C38.2235 92.6988 38.2977 93.1563 38.3204 93.6116C38.3431 94.0668 38.3191 94.5534 38.2485 95.0713C38.106 96.1162 37.7806 96.9479 37.2724 97.5662C36.7562 98.1741 36.0968 98.5881 35.2944 98.8083C34.4839 99.0181 33.5701 99.0536 32.5528 98.9149C31.8038 98.8127 31.1333 98.6176 30.5415 98.3297C29.9404 98.0405 29.4404 97.6662 29.0415 97.2067C28.6438 96.738 28.3599 96.1953 28.1896 95.5787C28.0194 94.962 27.9866 94.2699 28.0913 93.5023C28.1569 93.0215 28.2845 92.5349 28.4741 92.0427C28.6649 91.5412 28.9035 91.0698 29.1897 90.6284L30.976 91.6209C30.7499 91.9668 30.5514 92.3166 30.3808 92.6701C30.2101 93.0236 30.0983 93.3945 30.0453 93.7829Z" fill="#004D99"></path><path d="M37.2101 82.5671C37.8313 82.7372 38.357 82.9731 38.7873 83.2748C39.22 83.5674 39.5585 83.9214 39.8029 84.3367C40.0497 84.743 40.197 85.1946 40.2448 85.6915C40.286 86.177 40.2278 86.7078 40.07 87.2839C39.927 87.806 39.7129 88.2699 39.4276 88.6756C39.1358 89.0699 38.7835 89.3847 38.3707 89.62C37.9514 89.8439 37.4785 89.9805 36.9521 90.0299C36.4167 90.0769 35.8384 90.0153 35.2173 89.8452C34.3981 89.6209 33.7444 89.2871 33.2561 88.8438C32.7704 88.3914 32.4541 87.85 32.3074 87.2195C32.1607 86.5891 32.1909 85.8958 32.3979 85.1396C32.5926 84.4284 32.9125 83.8435 33.3574 83.3847C33.8024 82.9259 34.3503 82.6211 35.0013 82.4704C35.6547 82.3106 36.391 82.3428 37.2101 82.5671ZM35.8495 87.5362C36.3086 87.6619 36.708 87.7229 37.0478 87.7192C37.3875 87.7154 37.6655 87.6367 37.8817 87.483C38.089 87.3269 38.2358 87.0913 38.322 86.7762C38.4108 86.4521 38.4045 86.1746 38.3032 85.9437C38.1929 85.7103 37.9926 85.5054 37.7022 85.3291C37.4118 85.1529 37.037 85.0019 36.5779 84.8761C36.1188 84.7504 35.7239 84.6907 35.3932 84.6969C35.0625 84.7031 34.7935 84.7843 34.5862 84.9404C34.3814 85.0876 34.2346 85.3232 34.1459 85.6473C34.0202 86.1064 34.1033 86.492 34.3952 86.8042C34.6806 87.1049 35.1654 87.3489 35.8495 87.5362Z" fill="#004D99"></path><path d="M36.3038 74.6361C36.6228 73.8893 37.0854 73.3765 37.6917 73.0976C38.2931 72.8064 39.0487 72.8551 39.9585 73.2438L44.5676 75.2126L43.6437 77.3755L39.6397 75.6652C39.1505 75.4562 38.7466 75.3801 38.428 75.4369C38.1094 75.4936 37.875 75.6979 37.7247 76.0499C37.501 76.5734 37.5463 77.0139 37.8604 77.3714C38.166 77.7252 38.6836 78.058 39.4132 78.3696L42.6318 79.7444L41.7024 81.9203L34.6342 78.9011L35.3382 77.2531L36.3788 77.3475L36.4228 77.2445C36.257 76.991 36.1427 76.724 36.0799 76.4434C36.017 76.1628 36.0056 75.8687 36.0457 75.561C36.0858 75.2534 36.1718 74.9451 36.3038 74.6361Z" fill="#004D99"></path><path d="M39.5097 66.6193C39.9089 66.8611 40.2608 67.0908 40.5656 67.3082C40.8623 67.5208 41.0777 67.6786 41.2117 67.7816L41.277 67.6739C41.1326 67.3899 41.0482 67.115 41.0238 66.8492C40.9993 66.5834 41.0253 66.3154 41.1017 66.0452C41.1782 65.775 41.2962 65.5083 41.4558 65.2448C41.7315 64.7899 42.0596 64.4376 42.4401 64.1879C42.8205 63.9383 43.2468 63.8201 43.719 63.8334C44.1959 63.8387 44.7178 64.0131 45.2845 64.3565L49.5709 66.954L48.3447 68.9775L44.621 66.721C44.1581 66.4404 43.7689 66.3083 43.4535 66.3245C43.1349 66.3279 42.8765 66.4932 42.6782 66.8205C42.4847 67.1398 42.4161 67.442 42.4725 67.7272C42.5209 68.0075 42.6766 68.2819 42.9395 68.5504C43.2073 68.8108 43.5686 69.0789 44.0236 69.3547L47.0169 71.1686L45.7907 73.192L36.6911 67.6777L37.9173 65.6543L39.5097 66.6193Z" fill="#004D99"></path><path d="M47.1017 57.6057C47.5602 57.0402 48.0591 56.6397 48.5985 56.4042C49.1366 56.1555 49.6967 56.087 50.2791 56.1986C50.86 56.2972 51.4478 56.5874 52.0423 57.0694L52.8905 57.7571L49.8312 61.5307C50.2344 61.8336 50.649 61.9595 51.075 61.9083C51.501 61.8572 51.8932 61.6105 52.2518 61.1682C52.5633 60.784 52.8092 60.4066 52.9894 60.036C53.1697 59.6655 53.3152 59.2488 53.4261 58.786L54.7855 59.8881C54.7026 60.3015 54.5586 60.7015 54.3535 61.0879C54.1556 61.4801 53.8598 61.9191 53.466 62.4049C52.9781 63.0067 52.4344 63.455 51.8349 63.7499C51.2412 64.0376 50.6108 64.1333 49.9439 64.0372C49.2755 63.9279 48.5933 63.5911 47.8973 63.0268C47.1868 62.4508 46.7002 61.858 46.4374 61.2485C46.1674 60.633 46.0963 60.0167 46.2242 59.3995C46.3449 58.7764 46.6374 58.1785 47.1017 57.6057ZM48.4006 58.6047C48.1713 58.8874 48.0709 59.1965 48.0993 59.532C48.1264 59.8543 48.3174 60.1893 48.6722 60.5371L50.3386 58.4817C50.1283 58.3112 49.9075 58.1983 49.6761 58.1429C49.4506 58.0802 49.229 58.0867 49.0113 58.1626C48.7863 58.2326 48.5828 58.3799 48.4006 58.6047Z" fill="#004D99"></path><path d="M59.5067 56.1324C58.9533 56.661 58.3806 57.0209 57.7887 57.212C57.1972 57.3899 56.5935 57.3728 55.9778 57.1607C55.3625 56.9354 54.7389 56.492 54.107 55.8307C53.4623 55.1558 53.055 54.4929 52.8851 53.8421C52.7154 53.1781 52.7464 52.5418 52.9782 51.9331C53.21 51.3245 53.5992 50.7591 54.1458 50.2369C54.5103 49.8887 54.873 49.6132 55.2342 49.4102C55.602 49.2007 55.9555 49.0438 56.2945 48.9393L57.0267 50.6988C56.7002 50.83 56.4067 50.9619 56.1462 51.0946C55.8858 51.2273 55.6509 51.3935 55.4417 51.5934C55.2122 51.8126 55.0713 52.0569 55.019 52.3264C54.9601 52.5891 54.9965 52.8771 55.1279 53.1903C55.2661 53.4972 55.4996 53.8227 55.8284 54.1669C56.1572 54.5111 56.4719 54.7526 56.7724 54.8915C57.0664 55.0236 57.346 55.0663 57.6111 55.0196C57.8763 54.9728 58.1235 54.8399 58.353 54.6207C58.65 54.337 58.8847 54.0288 59.0574 53.6961C59.2368 53.3569 59.3737 53.0003 59.468 52.6261L60.8026 54.0231C60.715 54.3908 60.5748 54.7441 60.3823 55.083C60.1832 55.4151 59.8914 55.7649 59.5067 56.1324ZM61.7033 56.2024C61.9419 56.4521 62.091 56.7163 62.1506 56.9949C62.2235 57.2738 62.197 57.5637 62.0713 57.8645C61.9524 58.1588 61.7276 58.4639 61.3969 58.7798C61.2079 58.9603 61.0229 59.1113 60.8419 59.2325C60.6676 59.3474 60.5104 59.4395 60.3702 59.5089L59.5192 58.6181C59.6594 58.5487 59.7999 58.4661 59.9407 58.3703C60.0883 58.268 60.2127 58.1685 60.3139 58.0718C60.4219 57.9687 60.4871 57.8612 60.5094 57.7495C60.5385 57.6314 60.5047 57.5217 60.408 57.4204C60.292 57.299 60.1379 57.2525 59.9458 57.2811C59.7537 57.3098 59.4934 57.4358 59.1648 57.6594L58.8127 56.6017L59.7744 55.683L59.9532 56.0931C60.1204 55.9979 60.3036 55.9261 60.5027 55.8779C60.7151 55.8299 60.9231 55.8248 61.1269 55.8624C61.3307 55.9001 61.5228 56.0134 61.7033 56.2024Z" fill="#004D99"></path><path d="M61.3498 44.4148C62.1535 43.822 62.9154 43.5499 63.6356 43.5986C64.3502 43.6397 64.9762 44.0246 65.5136 44.7532L68.5386 48.8543L67.2204 49.8266L66.2336 49.2671L66.1886 49.3003C66.1765 49.6456 66.1292 49.9588 66.0467 50.24C65.9717 50.5157 65.8361 50.7722 65.6401 51.0096C65.4571 51.249 65.1929 51.4961 64.8474 51.7509C64.4868 52.0168 64.1075 52.1865 63.7093 52.2598C63.3186 52.3277 62.9326 52.276 62.5513 52.105C62.17 51.9339 61.8131 51.6231 61.4807 51.1724C60.9931 50.5114 60.8621 49.8542 61.0876 49.2008C61.3206 48.5419 61.8702 47.864 62.7363 47.1671L63.7704 46.3521L63.6375 46.1719C63.4158 45.8714 63.1763 45.7118 62.9189 45.6929C62.6689 45.6685 62.4087 45.756 62.1383 45.9555C61.8679 46.1549 61.6195 46.4078 61.3931 46.714C61.1611 47.0127 60.9419 47.3367 60.7357 47.686L59.2303 46.8479C59.4354 46.4183 59.7159 45.9968 60.072 45.5834C60.4281 45.17 60.8541 44.7804 61.3498 44.4148ZM64.0102 47.8801C63.5481 48.2442 63.2813 48.5743 63.2099 48.8705C63.1329 49.1593 63.1914 49.4351 63.3853 49.698C63.5571 49.9308 63.7493 50.05 63.9621 50.0554C64.1748 50.0608 64.3864 49.986 64.5967 49.8308C64.9121 49.5981 65.1095 49.3076 65.1889 48.9591C65.2626 48.6032 65.1776 48.26 64.9339 47.9295L64.5682 47.4337L64.0102 47.8801Z" fill="#004D99"></path><path d="M76.7596 35.9419C77.5029 35.6149 78.1911 35.5569 78.8243 35.7678C79.4623 35.9664 79.9804 36.5185 80.3788 37.424L82.3969 42.0118L80.244 42.9588L78.4908 38.9734C78.2766 38.4864 78.0339 38.1548 77.7626 37.9784C77.4913 37.8021 77.1805 37.7909 76.8302 37.945C76.309 38.1743 76.0409 38.5267 76.0259 39.0024C76.007 39.4695 76.1573 40.0662 76.4768 40.7924L77.8861 43.9961L75.7204 44.9488L72.6255 37.9134L74.2658 37.1918L74.9608 37.972L75.0633 37.9269C75.1156 37.6286 75.2148 37.3556 75.3607 37.1079C75.5066 36.8601 75.6994 36.6377 75.9389 36.4405C76.1785 36.2434 76.4521 36.0772 76.7596 35.9419Z" fill="#004D99"></path><path d="M90.5184 35.6974C90.6952 36.3166 90.7661 36.8884 90.7314 37.4128C90.7056 37.9346 90.5785 38.4076 90.3502 38.8319C90.1308 39.2536 89.8211 39.6137 89.421 39.9123C89.0273 40.1994 88.5433 40.4249 87.9689 40.5888C87.4483 40.7374 86.9406 40.7949 86.4458 40.7614C85.9574 40.7164 85.5055 40.5784 85.0902 40.3475C84.6813 40.1051 84.3192 39.7717 84.004 39.3472C83.6861 38.9138 83.4389 38.3875 83.2621 37.7682C83.0291 36.9515 82.9754 36.2194 83.1013 35.572C83.2361 34.9221 83.535 34.3709 83.9979 33.9185C84.4609 33.466 85.0693 33.1323 85.8232 32.9171C86.5322 32.7148 87.1983 32.6848 87.8213 32.8273C88.4443 32.9698 88.9891 33.2803 89.4556 33.7586C89.9311 34.2344 90.2854 34.8806 90.5184 35.6974ZM85.5642 37.1112C85.6949 37.5689 85.8499 37.942 86.0293 38.2306C86.2087 38.5191 86.4201 38.7159 86.6637 38.8211C86.9047 38.9174 87.1822 38.9206 87.4964 38.831C87.8195 38.7388 88.0535 38.5895 88.1984 38.3831C88.3408 38.1678 88.412 37.8903 88.4121 37.5505C88.4122 37.2108 88.347 36.8121 88.2163 36.3543C88.0857 35.8966 87.932 35.528 87.7552 35.2484C87.5783 34.9689 87.3694 34.781 87.1284 34.6848C86.8964 34.586 86.6188 34.5827 86.2957 34.6749C85.838 34.8055 85.5514 35.0766 85.4359 35.4881C85.3268 35.8881 85.3696 36.4291 85.5642 37.1112Z" fill="#004D99"></path><path d="M98.5752 36.0854C98.651 36.5837 98.6017 37.0349 98.4272 37.4391C98.2604 37.8327 97.9526 38.1674 97.5037 38.4434C97.0534 38.7102 96.4591 38.8997 95.7209 39.012C95.1858 39.0935 94.7103 39.1328 94.2944 39.1299C93.8879 39.1257 93.4689 39.0714 93.0377 38.9671L92.7513 37.0848C93.2237 37.2112 93.7082 37.2932 94.2049 37.3309C94.7107 37.3673 95.1252 37.3609 95.4481 37.3117C95.7987 37.2584 96.0455 37.1736 96.1883 37.0575C96.3311 36.9414 96.3899 36.8003 96.3646 36.6342C96.3464 36.5142 96.2887 36.4144 96.1916 36.3348C96.1038 36.2537 95.9308 36.1715 95.6726 36.088C95.4237 36.0032 95.0545 35.9036 94.5651 35.7892C94.0835 35.6642 93.6796 35.5227 93.3534 35.3646C93.0365 35.2052 92.7825 34.9936 92.5913 34.73C92.4094 34.4651 92.2868 34.1249 92.2237 33.7097C92.1142 32.99 92.3089 32.4081 92.8077 31.964C93.3145 31.5093 94.0292 31.2118 94.9519 31.0714C95.4409 30.997 95.91 30.9775 96.3591 31.0131C96.8082 31.0486 97.2796 31.1374 97.7733 31.2794L97.349 32.9583C97.083 32.8855 96.8191 32.8265 96.5573 32.7814C96.3048 32.7348 96.0643 32.7053 95.8358 32.6929C95.6073 32.6804 95.3962 32.6889 95.2025 32.7184C94.9441 32.7577 94.7513 32.8248 94.6241 32.9197C94.4956 33.0053 94.4418 33.1174 94.4629 33.2558C94.4783 33.3573 94.53 33.4485 94.6178 33.5296C94.7135 33.6 94.8798 33.6691 95.1167 33.7369C95.3628 33.8033 95.7167 33.8958 96.1785 34.0144C96.6388 34.1237 97.036 34.2521 97.37 34.3995C97.7039 34.547 97.9711 34.7518 98.1715 35.014C98.3719 35.2762 98.5065 35.6333 98.5752 36.0854Z" fill="#004D99"></path><path d="M107.215 35.7678C107.229 36.2716 107.125 36.7134 106.903 37.0933C106.689 37.4635 106.343 37.7582 105.864 37.9774C105.384 38.1872 104.771 38.3028 104.025 38.3242C103.484 38.3398 103.007 38.3208 102.595 38.2672C102.191 38.2134 101.782 38.1084 101.367 37.9523L101.312 36.0491C101.766 36.2321 102.237 36.3727 102.725 36.4707C103.223 36.5685 103.635 36.6127 103.961 36.6034C104.316 36.5932 104.571 36.5392 104.727 36.4413C104.883 36.3435 104.959 36.2106 104.954 36.0427C104.95 35.9214 104.905 35.8153 104.819 35.7244C104.741 35.6333 104.58 35.5305 104.334 35.4162C104.097 35.3016 103.743 35.1577 103.271 34.9845C102.808 34.8017 102.424 34.6119 102.12 34.4152C101.825 34.2183 101.599 33.9773 101.441 33.6924C101.293 33.4072 101.213 33.0547 101.201 32.6349C101.18 31.9072 101.444 31.3534 101.993 30.9735C102.552 30.584 103.297 30.3758 104.23 30.3491C104.725 30.3349 105.193 30.3728 105.634 30.4629C106.076 30.5529 106.533 30.6986 107.005 30.8998L106.379 32.5144C106.124 32.4096 105.869 32.3189 105.615 32.2422C105.37 32.1652 105.135 32.1065 104.91 32.0663C104.685 32.0261 104.474 32.0088 104.278 32.0144C104.017 32.0219 103.817 32.065 103.679 32.1436C103.541 32.2129 103.474 32.3176 103.478 32.4575C103.481 32.5601 103.521 32.657 103.599 32.7482C103.685 32.8297 103.842 32.9186 104.069 33.0148C104.305 33.1107 104.645 33.2457 105.089 33.4197C105.532 33.5844 105.911 33.7603 106.224 33.9474C106.538 34.1345 106.778 34.3704 106.945 34.655C107.112 34.9397 107.202 35.3106 107.215 35.7678Z" fill="#004D99"></path><path d="M117.579 35.1486C117.515 35.7895 117.371 36.3473 117.146 36.8222C116.93 37.298 116.638 37.6912 116.27 38.0019C115.911 38.3135 115.491 38.5346 115.009 38.6652C114.537 38.7875 114.004 38.8193 113.41 38.7607C112.871 38.7075 112.378 38.5745 111.93 38.3614C111.492 38.1401 111.123 37.8457 110.821 37.4783C110.53 37.1026 110.316 36.6594 110.179 36.1488C110.042 35.6289 110.006 35.0485 110.069 34.4076C110.153 33.5624 110.372 32.8619 110.727 32.306C111.091 31.7511 111.571 31.3484 112.168 31.0977C112.765 30.8471 113.454 30.7603 114.234 30.8373C114.968 30.9097 115.598 31.1267 116.125 31.4882C116.652 31.8497 117.045 32.3386 117.303 32.9549C117.57 33.5721 117.662 34.3034 117.579 35.1486ZM112.452 34.6427C112.405 35.1164 112.412 35.5204 112.473 35.8546C112.533 36.1889 112.658 36.4497 112.846 36.637C113.034 36.8151 113.291 36.9202 113.616 36.9522C113.951 36.9852 114.223 36.9324 114.434 36.7937C114.645 36.6458 114.814 36.4139 114.939 36.0979C115.064 35.782 115.149 35.3872 115.196 34.9135C115.243 34.4398 115.235 34.0405 115.174 33.7155C115.112 33.3905 114.987 33.139 114.798 32.961C114.619 32.7838 114.362 32.6788 114.027 32.6458C113.554 32.599 113.187 32.7458 112.929 33.086C112.68 33.4179 112.521 33.9368 112.452 34.6427Z" fill="#004D99"></path><path d="M124.929 38.4706C124.816 38.9618 124.605 39.3633 124.294 39.6751C123.994 39.9798 123.585 40.178 123.066 40.2697C122.549 40.3523 121.927 40.3102 121.199 40.1433C120.671 40.0224 120.215 39.8841 119.829 39.7287C119.452 39.5753 119.083 39.3709 118.72 39.1154L119.145 37.2595C119.538 37.5507 119.959 37.8051 120.407 38.0227C120.864 38.2424 121.252 38.3887 121.57 38.4617C121.916 38.541 122.176 38.5529 122.352 38.4973C122.527 38.4418 122.634 38.3322 122.671 38.1684C122.699 38.0502 122.682 37.9362 122.621 37.8264C122.569 37.7188 122.438 37.5787 122.229 37.4062C122.028 37.2358 121.721 37.0075 121.308 36.7213C120.906 36.428 120.583 36.148 120.338 35.8811C120.101 35.6163 119.943 35.3262 119.862 35.0108C119.79 34.6975 119.801 34.3362 119.895 33.9268C120.058 33.2172 120.453 32.7476 121.08 32.5179C121.718 32.2812 122.492 32.2672 123.402 32.4757C123.884 32.5863 124.328 32.7406 124.732 32.9387C125.137 33.1368 125.543 33.3926 125.949 33.7061L124.938 35.1116C124.717 34.9461 124.493 34.7943 124.267 34.6561C124.049 34.52 123.836 34.4042 123.628 34.3086C123.42 34.2131 123.221 34.1434 123.03 34.0996C122.775 34.0412 122.571 34.0328 122.418 34.0743C122.267 34.1067 122.176 34.1911 122.144 34.3275C122.121 34.4276 122.136 34.5315 122.188 34.6391C122.251 34.7398 122.38 34.8652 122.576 35.0153C122.78 35.1675 123.075 35.3836 123.461 35.6636C123.849 35.9345 124.171 36.1998 124.428 36.4597C124.684 36.7196 124.857 37.0082 124.947 37.3257C125.037 37.6432 125.031 38.0248 124.929 38.4706Z" fill="#004D99"></path><path d="M139.481 43.7423C139.242 44.2592 138.898 44.6709 138.448 44.9773C138.002 45.2752 137.469 45.4297 136.847 45.4408C136.229 45.4435 135.534 45.2669 134.763 44.911C134.407 44.7467 134.086 44.573 133.801 44.3899C133.515 44.2067 133.25 44.0125 133.006 43.8071C132.774 43.5972 132.556 43.3681 132.352 43.1198L133.261 41.1495C133.621 41.5725 134.005 41.9656 134.413 42.3286C134.829 42.6956 135.258 42.9808 135.699 43.1841C135.978 43.3132 136.218 43.3829 136.419 43.3933C136.632 43.3992 136.804 43.3604 136.935 43.277C137.079 43.1889 137.188 43.0644 137.262 42.9034C137.352 42.7085 137.36 42.512 137.287 42.3138C137.227 42.1111 137.099 41.8875 136.903 41.6431C136.711 41.3901 136.473 41.0949 136.186 40.7572C135.97 40.5134 135.766 40.2546 135.573 39.9809C135.393 39.7025 135.244 39.4128 135.126 39.1116C135.021 38.8059 134.971 38.4796 134.977 38.1328C134.995 37.7815 135.096 37.4067 135.28 37.0084C135.542 36.4406 135.892 36.0266 136.331 35.7665C136.782 35.5018 137.296 35.3792 137.873 35.3988C138.45 35.4183 139.064 35.5786 139.717 35.8797C140.251 36.1261 140.715 36.4123 141.109 36.7382C141.504 37.0641 141.87 37.418 142.208 37.8L140.741 39.1739C140.416 38.8082 140.097 38.4966 139.785 38.2392C139.484 37.9771 139.169 37.7699 138.838 37.6173C138.609 37.5117 138.403 37.4577 138.219 37.4551C138.039 37.444 137.884 37.4802 137.753 37.5636C137.626 37.6386 137.527 37.7523 137.456 37.9049C137.374 38.0828 137.361 38.267 137.417 38.4573C137.477 38.6392 137.603 38.8566 137.795 39.1095C137.986 39.3624 138.245 39.6822 138.57 40.0687C138.926 40.4794 139.209 40.8776 139.422 41.2635C139.634 41.6494 139.751 42.0425 139.772 42.4427C139.797 42.8345 139.7 43.2677 139.481 43.7423Z" fill="#004D99"></path><path d="M146.898 42.5796C147.515 42.966 147.974 43.4125 148.273 43.9193C148.585 44.4231 148.721 44.9708 148.681 45.5624C148.654 46.151 148.437 46.7697 148.031 47.4183L147.452 48.3439L143.334 45.766C143.083 46.2031 143.008 46.6299 143.111 47.0465C143.213 47.4631 143.506 47.8225 143.988 48.1246C144.408 48.3871 144.812 48.5853 145.202 48.7191C145.592 48.853 146.023 48.9468 146.496 49.0006L145.567 50.4839C145.147 50.4519 144.732 50.3576 144.324 50.2009C143.91 50.0522 143.438 49.812 142.908 49.4801C142.252 49.069 141.741 48.5839 141.375 48.0246C141.017 47.4703 140.846 46.8563 140.86 46.1826C140.887 45.5059 141.139 44.7878 141.614 44.0284C142.1 43.2531 142.629 42.698 143.202 42.3631C143.78 42.0202 144.383 41.8748 145.011 41.9267C145.644 41.9707 146.273 42.1884 146.898 42.5796ZM146.065 43.9903C145.756 43.7971 145.437 43.735 145.108 43.804C144.791 43.8701 144.482 44.1004 144.18 44.4949L146.422 45.899C146.566 45.6696 146.651 45.4366 146.678 45.2002C146.713 44.9687 146.679 44.7496 146.578 44.5427C146.481 44.328 146.31 44.1438 146.065 43.9903Z" fill="#004D99"></path><path d="M155.817 49.2713C155.911 49.3478 156.01 49.4403 156.115 49.5489C156.225 49.6502 156.306 49.7346 156.36 49.8021L154.814 51.3962C154.76 51.3288 154.686 51.2503 154.59 51.1607C154.501 51.0639 154.394 50.9655 154.271 50.8655C154.097 50.7243 153.905 50.6049 153.696 50.5073C153.493 50.4024 153.278 50.3419 153.05 50.3257C152.829 50.3023 152.601 50.3459 152.367 50.4565C152.139 50.5599 151.91 50.7529 151.681 51.0355L149.255 54.0251L147.418 52.5343L152.261 46.566L153.641 47.6863L153.13 48.8941L153.206 48.9559C153.487 48.847 153.779 48.7835 154.082 48.7652C154.391 48.7396 154.693 48.7679 154.987 48.8501C155.294 48.931 155.571 49.0714 155.817 49.2713Z" fill="#004D99"></path><path d="M154.533 58.9325L158.038 51.4926L159.748 53.267L157.513 57.3641C157.459 57.4555 157.387 57.5631 157.299 57.6869C157.224 57.8109 157.139 57.9314 157.045 58.0485C156.963 58.1658 156.879 58.2665 156.792 58.3507L156.831 58.391C156.925 58.3004 157.029 58.2132 157.142 58.1295C157.263 58.0525 157.38 57.9788 157.493 57.9083C157.62 57.838 157.736 57.7775 157.843 57.7267L162.05 55.6564L163.75 57.4207L156.185 60.6464L154.533 58.9325Z" fill="#004D99"></path><path d="M166.798 61.5469L160.697 66.2221L159.267 64.3553L165.367 59.68L166.798 61.5469ZM168.513 58.7681C168.718 59.0348 168.837 59.3135 168.872 59.6044C168.907 59.8952 168.754 60.1713 168.413 60.4324C168.08 60.6879 167.774 60.7639 167.494 60.6604C167.222 60.5512 166.984 60.3633 166.78 60.0966C166.564 59.8151 166.439 59.5289 166.404 59.238C166.383 58.9489 166.538 58.6766 166.872 58.4211C167.213 58.16 167.516 58.0803 167.782 58.182C168.054 58.2912 168.298 58.4866 168.513 58.7681Z" fill="#004D99"></path><path d="M164.546 72.4006C164.149 71.7464 163.921 71.1097 163.861 70.4906C163.815 69.8746 163.961 69.2887 164.301 68.7331C164.654 68.1806 165.221 67.667 166.002 67.1923C166.8 66.7079 167.535 66.4527 168.207 66.4267C168.892 66.4039 169.507 66.5711 170.052 66.9284C170.596 67.2857 171.065 67.7874 171.457 68.4336C171.718 68.8644 171.91 69.278 172.03 69.6743C172.155 70.0786 172.233 70.4576 172.262 70.8112L170.386 71.1476C170.328 70.8006 170.262 70.4856 170.189 70.2027C170.115 69.9197 170.004 69.6546 169.853 69.4073C169.689 69.1361 169.48 68.9459 169.228 68.8368C168.985 68.7228 168.696 68.6963 168.361 68.7573C168.032 68.8263 167.664 68.9843 167.257 69.2313C166.85 69.4784 166.546 69.7337 166.346 69.9973C166.154 70.256 166.052 70.5198 166.041 70.7888C166.029 71.0578 166.106 71.3279 166.271 71.5991C166.484 71.9502 166.734 72.2458 167.022 72.4859C167.315 72.7341 167.633 72.9445 167.979 73.1172L166.327 74.1199C165.987 73.9552 165.672 73.7424 165.383 73.4814C165.101 73.2156 164.822 72.8553 164.546 72.4006ZM164.005 74.5307C163.71 74.71 163.42 74.7987 163.135 74.797C162.847 74.8082 162.57 74.72 162.303 74.5325C162.041 74.353 161.791 74.0678 161.554 73.6769C161.418 73.4535 161.311 73.2404 161.231 73.0375C161.157 72.8426 161.1 72.6693 161.063 72.5174L162.116 71.878C162.154 72.0298 162.204 72.1848 162.267 72.343C162.335 72.5091 162.406 72.652 162.478 72.7716C162.556 72.8993 162.647 72.986 162.751 73.0319C162.86 73.0858 162.975 73.0764 163.094 73.0037C163.238 72.9165 163.316 72.776 163.33 72.5823C163.343 72.3885 163.276 72.1072 163.128 71.7382L164.237 71.6219L164.927 72.7587L164.488 72.8451C164.545 73.0288 164.576 73.2232 164.58 73.428C164.582 73.6457 164.542 73.85 164.461 74.0409C164.381 74.2318 164.229 74.3951 164.005 74.5307Z" fill="#004D99"></path><path d="M173.469 81.7275C172.88 81.9893 172.324 82.1398 171.8 82.1788C171.28 82.2265 170.794 82.167 170.342 82.0004C169.893 81.8424 169.493 81.5862 169.141 81.2319C168.802 80.8824 168.511 80.4348 168.268 79.889C168.048 79.3945 167.92 78.8998 167.884 78.4052C167.86 77.9153 167.933 77.4485 168.103 77.0049C168.286 76.5661 168.565 76.1608 168.941 75.7892C169.326 75.4137 169.812 75.0951 170.401 74.8333C171.177 74.488 171.894 74.3322 172.553 74.366C173.215 74.4084 173.803 74.627 174.316 75.0219C174.828 75.4169 175.244 75.9725 175.563 76.6888C175.863 77.3624 175.986 78.0177 175.932 78.6545C175.878 79.2914 175.647 79.8743 175.239 80.4033C174.835 80.9408 174.245 81.3822 173.469 81.7275ZM171.374 77.0205C170.939 77.214 170.591 77.4198 170.331 77.6379C170.07 77.856 169.905 78.0929 169.835 78.3488C169.774 78.601 169.809 78.8762 169.942 79.1747C170.079 79.4817 170.259 79.6924 170.484 79.807C170.717 79.9178 171.002 79.9494 171.338 79.9018C171.675 79.8543 172.06 79.7338 172.495 79.5403C172.93 79.3467 173.274 79.1428 173.526 78.9285C173.778 78.7143 173.934 78.4811 173.996 78.229C174.061 77.9854 174.025 77.7101 173.889 77.4031C173.695 76.9682 173.387 76.7225 172.963 76.6658C172.552 76.6139 172.022 76.7321 171.374 77.0205Z" fill="#004D99"></path><path d="M174.214 89.7591C173.731 89.9041 173.278 89.9185 172.853 89.8023C172.44 89.6925 172.065 89.4346 171.729 89.0288C171.402 88.6204 171.131 88.0586 170.916 87.3434C170.761 86.825 170.655 86.3597 170.6 85.9476C170.547 85.5444 170.542 85.122 170.585 84.6804L172.408 84.1329C172.349 84.6183 172.336 85.1095 172.368 85.6066C172.403 86.1126 172.468 86.522 172.562 86.8349C172.664 87.1745 172.782 87.407 172.917 87.5321C173.052 87.6572 173.2 87.6956 173.361 87.6473C173.477 87.6124 173.568 87.5413 173.633 87.434C173.701 87.3357 173.758 87.1529 173.805 86.8856C173.854 86.6272 173.901 86.2477 173.945 85.7471C174.001 85.2527 174.085 84.8329 174.196 84.4878C174.309 84.1517 174.483 83.8705 174.717 83.6443C174.954 83.427 175.274 83.258 175.676 83.1372C176.373 82.9279 176.977 83.039 177.486 83.4707C178.007 83.9086 178.402 84.5746 178.671 85.4685C178.813 85.9423 178.898 86.404 178.926 86.8536C178.954 87.3033 178.932 87.7825 178.86 88.2912L177.138 88.1065C177.173 87.8329 177.195 87.5634 177.203 87.2979C177.213 87.0413 177.209 86.799 177.189 86.5711C177.169 86.3431 177.131 86.1353 177.075 85.9475C177 85.6972 176.906 85.5158 176.795 85.4032C176.692 85.2879 176.573 85.2503 176.439 85.2906C176.341 85.3201 176.258 85.3841 176.19 85.4824C176.134 85.587 176.088 85.7614 176.055 86.0054C176.023 86.2584 175.981 86.6218 175.929 87.0956C175.885 87.5668 175.814 87.978 175.714 88.3294C175.615 88.6807 175.45 88.974 175.218 89.2091C174.987 89.4443 174.652 89.6276 174.214 89.7591Z" fill="#004D99"></path><path d="M178.439 98.083C178.996 98.0304 179.451 98.0812 179.803 98.2355C180.155 98.3898 180.42 98.6179 180.599 98.9198C180.787 99.2208 180.899 99.5618 180.934 99.9428C180.971 100.333 180.926 100.694 180.797 101.024C180.679 101.354 180.456 101.629 180.13 101.847C179.813 102.064 179.38 102.199 178.832 102.251C178.293 102.301 177.843 102.25 177.482 102.097C177.13 101.942 176.86 101.715 176.672 101.414C176.484 101.113 176.372 100.767 176.335 100.377C176.299 99.9958 176.345 99.6399 176.473 99.3091C176.601 98.9783 176.824 98.7041 177.141 98.4867C177.467 98.2684 177.9 98.1339 178.439 98.083Z" fill="#004D99"></path><path d="M181.252 117.1C181.291 116.738 181.252 116.406 181.135 116.102C181.026 115.808 180.843 115.549 180.586 115.324C180.329 115.099 180.011 114.914 179.632 114.77C179.254 114.625 178.818 114.526 178.327 114.473C177.659 114.4 177.084 114.422 176.601 114.539C176.119 114.656 175.739 114.873 175.461 115.19C175.181 115.516 175.012 115.948 174.954 116.487C174.908 116.904 174.914 117.323 174.972 117.742C175.039 118.162 175.131 118.609 175.249 119.082L173.245 118.864C173.107 118.408 173.02 117.952 172.985 117.498C172.95 117.043 172.96 116.556 173.017 116.037C173.131 114.988 173.433 114.148 173.924 113.516C174.424 112.894 175.071 112.462 175.868 112.22C176.672 111.988 177.585 111.928 178.605 112.039C179.357 112.121 180.032 112.297 180.632 112.569C181.241 112.841 181.751 113.202 182.162 113.65C182.572 114.108 182.871 114.643 183.058 115.255C183.245 115.866 183.297 116.557 183.213 117.327C183.161 117.81 183.046 118.3 182.87 118.797C182.693 119.303 182.468 119.781 182.194 120.23L180.381 119.287C180.597 118.935 180.786 118.58 180.947 118.222C181.108 117.864 181.21 117.49 181.252 117.1Z" fill="#004D99"></path><path d="M174.397 128.508C173.771 128.355 173.239 128.133 172.801 127.843C172.36 127.563 172.012 127.218 171.756 126.81C171.499 126.41 171.339 125.963 171.278 125.467C171.223 124.983 171.267 124.451 171.409 123.871C171.537 123.345 171.739 122.875 172.013 122.462C172.294 122.06 172.637 121.736 173.044 121.489C173.457 121.254 173.926 121.104 174.45 121.041C174.984 120.979 175.564 121.025 176.19 121.178C177.015 121.38 177.677 121.695 178.177 122.125C178.675 122.564 179.006 123.097 179.17 123.723C179.334 124.349 179.323 125.043 179.137 125.805C178.961 126.521 178.658 127.114 178.225 127.585C177.793 128.056 177.254 128.376 176.607 128.544C175.958 128.722 175.222 128.71 174.397 128.508ZM175.621 123.503C175.158 123.39 174.758 123.34 174.418 123.353C174.079 123.366 173.803 123.452 173.591 123.612C173.388 123.774 173.248 124.013 173.17 124.331C173.09 124.657 173.104 124.934 173.212 125.162C173.328 125.393 173.534 125.592 173.829 125.76C174.124 125.928 174.503 126.069 174.965 126.182C175.428 126.295 175.824 126.344 176.155 126.329C176.485 126.314 176.752 126.225 176.955 126.064C177.155 125.911 177.296 125.671 177.375 125.345C177.489 124.883 177.395 124.499 177.095 124.195C176.801 123.902 176.31 123.672 175.621 123.503Z" fill="#004D99"></path><path d="M175.519 136.411C175.221 137.166 174.773 137.691 174.174 137.987C173.581 138.294 172.824 138.266 171.904 137.903L167.243 136.061L168.107 133.873L172.157 135.473C172.651 135.669 173.057 135.734 173.374 135.669C173.691 135.603 173.92 135.392 174.06 135.037C174.27 134.507 174.212 134.068 173.889 133.719C173.573 133.374 173.047 133.055 172.309 132.764L169.054 131.478L169.924 129.277L177.072 132.102L176.413 133.769L175.37 133.703L175.329 133.807C175.502 134.056 175.623 134.319 175.694 134.598C175.764 134.877 175.784 135.171 175.752 135.479C175.721 135.788 175.643 136.099 175.519 136.411Z" fill="#004D99"></path><path d="M172.534 144.513C172.128 144.282 171.77 144.062 171.46 143.853C171.157 143.648 170.938 143.497 170.801 143.397L170.738 143.507C170.891 143.787 170.982 144.059 171.014 144.324C171.046 144.589 171.027 144.858 170.958 145.13C170.889 145.402 170.779 145.672 170.626 145.94C170.363 146.402 170.045 146.763 169.671 147.023C169.298 147.283 168.875 147.413 168.402 147.412C167.926 147.42 167.399 147.26 166.823 146.932L162.467 144.453L163.638 142.397L167.422 144.551C167.892 144.818 168.285 144.94 168.6 144.915C168.918 144.903 169.172 144.731 169.361 144.398C169.546 144.074 169.606 143.77 169.542 143.486C169.486 143.207 169.323 142.937 169.053 142.676C168.778 142.423 168.409 142.165 167.947 141.902L164.905 140.17L166.076 138.114L175.323 143.377L174.152 145.434L172.534 144.513Z" fill="#004D99"></path><path d="M165.192 153.73C164.749 154.308 164.261 154.722 163.728 154.972C163.197 155.236 162.639 155.319 162.054 155.224C161.47 155.141 160.875 154.867 160.267 154.402L159.401 153.737L162.356 149.881C161.944 149.59 161.526 149.475 161.102 149.538C160.678 149.601 160.292 149.858 159.946 150.31C159.645 150.703 159.41 151.087 159.24 151.462C159.07 151.837 158.935 152.258 158.837 152.723L157.448 151.659C157.52 151.243 157.653 150.84 157.847 150.448C158.034 150.05 158.318 149.603 158.698 149.107C159.17 148.492 159.701 148.029 160.292 147.718C160.878 147.414 161.505 147.301 162.175 147.379C162.846 147.47 163.537 147.788 164.248 148.333C164.974 148.889 165.477 149.469 165.756 150.071C166.043 150.679 166.131 151.293 166.02 151.913C165.916 152.539 165.64 153.145 165.192 153.73ZM163.866 152.767C164.087 152.478 164.179 152.167 164.142 151.832C164.106 151.511 163.906 151.181 163.541 150.843L161.932 152.943C162.147 153.108 162.371 153.215 162.603 153.264C162.831 153.32 163.052 153.308 163.267 153.226C163.49 153.15 163.69 152.997 163.866 152.767Z" fill="#004D99"></path><path d="M152.831 155.542C153.37 154.999 153.932 154.623 154.519 154.416C155.105 154.222 155.709 154.223 156.33 154.418C156.952 154.626 157.587 155.052 158.237 155.696C158.9 156.353 159.325 157.005 159.513 157.651C159.701 158.31 159.687 158.947 159.472 159.561C159.257 160.176 158.883 160.752 158.351 161.289C157.996 161.647 157.641 161.932 157.286 162.145C156.924 162.365 156.575 162.531 156.239 162.645L155.459 160.906C155.781 160.766 156.071 160.626 156.328 160.486C156.585 160.347 156.815 160.174 157.019 159.968C157.242 159.743 157.376 159.495 157.421 159.224C157.473 158.96 157.429 158.673 157.289 158.363C157.142 158.061 156.9 157.742 156.562 157.406C156.224 157.071 155.902 156.839 155.598 156.708C155.301 156.584 155.02 156.549 154.756 156.603C154.493 156.657 154.249 156.796 154.026 157.022C153.737 157.314 153.51 157.628 153.347 157.965C153.177 158.309 153.05 158.67 152.966 159.046L151.593 157.686C151.671 157.316 151.801 156.959 151.984 156.615C152.174 156.278 152.457 155.92 152.831 155.542ZM150.633 155.532C150.388 155.289 150.232 155.029 150.165 154.752C150.084 154.476 150.103 154.185 150.22 153.881C150.331 153.583 150.547 153.272 150.869 152.947C151.053 152.762 151.234 152.606 151.412 152.48C151.583 152.36 151.737 152.264 151.876 152.191L152.751 153.058C152.612 153.131 152.474 153.217 152.336 153.317C152.191 153.423 152.07 153.526 151.971 153.626C151.866 153.732 151.804 153.841 151.784 153.953C151.759 154.072 151.795 154.181 151.895 154.279C152.014 154.398 152.169 154.44 152.361 154.406C152.552 154.372 152.809 154.239 153.131 154.007L153.512 155.054L152.576 155.999L152.386 155.594C152.221 155.694 152.04 155.77 151.842 155.824C151.631 155.878 151.424 155.888 151.219 155.856C151.014 155.824 150.819 155.716 150.633 155.532Z" fill="#004D99"></path><path d="M151.309 167.306C150.522 167.921 149.768 168.213 149.046 168.184C148.331 168.163 147.695 167.795 147.138 167.081L144.002 163.065L145.293 162.057L146.294 162.589L146.339 162.555C146.341 162.209 146.38 161.895 146.455 161.611C146.522 161.334 146.651 161.074 146.84 160.831C147.016 160.587 147.274 160.332 147.612 160.068C147.965 159.792 148.34 159.613 148.736 159.528C149.125 159.45 149.512 159.491 149.898 159.651C150.284 159.812 150.649 160.113 150.993 160.554C151.499 161.202 151.648 161.855 151.44 162.515C151.225 163.18 150.695 163.872 149.848 164.593L148.836 165.435L148.974 165.612C149.204 165.906 149.448 166.059 149.706 166.071C149.956 166.089 150.214 165.994 150.479 165.787C150.744 165.581 150.985 165.321 151.203 165.009C151.427 164.704 151.637 164.374 151.834 164.019L153.361 164.816C153.168 165.251 152.899 165.68 152.554 166.103C152.21 166.526 151.795 166.927 151.309 167.306ZM148.555 163.915C149.007 163.538 149.265 163.201 149.328 162.903C149.397 162.612 149.331 162.338 149.13 162.08C148.952 161.852 148.756 161.738 148.544 161.739C148.331 161.739 148.121 161.82 147.915 161.981C147.606 162.222 147.417 162.518 147.347 162.868C147.283 163.226 147.378 163.567 147.63 163.891L148.009 164.376L148.555 163.915Z" fill="#004D99"></path><path d="M136.137 176.197C135.403 176.544 134.717 176.621 134.078 176.427C133.435 176.246 132.902 175.708 132.479 174.814L130.336 170.283L132.462 169.278L134.324 173.214C134.551 173.695 134.803 174.02 135.079 174.188C135.355 174.357 135.666 174.36 136.012 174.196C136.526 173.953 136.785 173.593 136.787 173.117C136.793 172.65 136.626 172.058 136.287 171.34L134.791 168.176L136.93 167.165L140.216 174.113L138.596 174.879L137.88 174.118L137.778 174.166C137.734 174.466 137.643 174.741 137.504 174.993C137.364 175.245 137.178 175.472 136.944 175.676C136.71 175.88 136.441 176.053 136.137 176.197Z" fill="#004D99"></path><path d="M122.39 176.818C122.196 176.203 122.11 175.634 122.13 175.109C122.142 174.586 122.256 174.11 122.472 173.68C122.68 173.252 122.98 172.884 123.372 172.574C123.757 172.276 124.235 172.038 124.805 171.858C125.321 171.696 125.827 171.624 126.322 171.644C126.812 171.676 127.267 171.801 127.689 172.021C128.104 172.252 128.475 172.575 128.802 172.991C129.132 173.416 129.393 173.935 129.587 174.549C129.842 175.359 129.916 176.09 129.808 176.74C129.691 177.393 129.407 177.953 128.957 178.418C128.506 178.882 127.907 179.233 127.159 179.468C126.456 179.69 125.791 179.738 125.164 179.613C124.538 179.487 123.985 179.192 123.505 178.727C123.017 178.264 122.645 177.628 122.39 176.818ZM127.304 175.269C127.16 174.815 126.995 174.446 126.808 174.163C126.621 173.879 126.404 173.688 126.158 173.59C125.914 173.5 125.637 173.504 125.325 173.602C125.005 173.703 124.775 173.859 124.636 174.069C124.499 174.289 124.435 174.568 124.445 174.908C124.454 175.247 124.53 175.644 124.673 176.098C124.816 176.552 124.98 176.916 125.164 177.191C125.349 177.465 125.563 177.647 125.806 177.737C126.041 177.829 126.318 177.825 126.639 177.724C127.093 177.581 127.372 177.302 127.476 176.888C127.574 176.485 127.517 175.945 127.304 175.269Z" fill="#004D99"></path><path d="M114.325 176.65C114.236 176.154 114.273 175.702 114.436 175.293C114.592 174.895 114.891 174.552 115.332 174.264C115.775 173.985 116.364 173.779 117.098 173.646C117.631 173.55 118.105 173.498 118.521 173.49C118.928 173.483 119.348 173.525 119.782 173.618L120.12 175.492C119.644 175.378 119.157 175.31 118.66 175.285C118.153 175.263 117.739 175.281 117.418 175.339C117.069 175.402 116.824 175.493 116.685 175.613C116.545 175.733 116.49 175.876 116.52 176.041C116.542 176.16 116.602 176.259 116.701 176.336C116.791 176.414 116.966 176.492 117.227 176.568C117.478 176.646 117.85 176.735 118.342 176.836C118.827 176.948 119.234 177.079 119.565 177.228C119.886 177.378 120.146 177.583 120.344 177.841C120.533 178.101 120.665 178.438 120.739 178.851C120.869 179.568 120.69 180.155 120.203 180.612C119.709 181.081 119.003 181.397 118.084 181.563C117.598 181.651 117.129 181.683 116.679 181.66C116.229 181.637 115.756 181.561 115.258 181.432L115.637 179.742C115.904 179.808 116.17 179.86 116.433 179.898C116.686 179.937 116.928 179.96 117.156 179.966C117.385 179.973 117.596 179.958 117.789 179.923C118.046 179.877 118.237 179.805 118.361 179.706C118.488 179.617 118.538 179.504 118.513 179.366C118.495 179.265 118.441 179.175 118.351 179.097C118.254 179.029 118.085 178.964 117.847 178.903C117.599 178.843 117.243 178.761 116.778 178.655C116.315 178.558 115.914 178.44 115.576 178.302C115.238 178.164 114.966 177.967 114.758 177.71C114.551 177.453 114.406 177.1 114.325 176.65Z" fill="#004D99"></path><path d="M105.698 177.204C105.669 176.701 105.761 176.256 105.973 175.87C106.177 175.494 106.515 175.19 106.988 174.958C107.462 174.735 108.071 174.603 108.817 174.561C109.357 174.531 109.834 174.537 110.248 174.579C110.652 174.622 111.064 174.715 111.484 174.86L111.59 176.761C111.132 176.591 110.657 176.463 110.166 176.378C109.666 176.294 109.253 176.261 108.927 176.279C108.573 176.299 108.319 176.36 108.166 176.462C108.013 176.564 107.941 176.699 107.95 176.867C107.957 176.988 108.005 177.093 108.094 177.182C108.174 177.271 108.338 177.369 108.587 177.476C108.827 177.584 109.185 177.719 109.662 177.879C110.129 178.049 110.518 178.228 110.828 178.416C111.128 178.605 111.361 178.84 111.526 179.12C111.682 179.401 111.772 179.752 111.795 180.171C111.836 180.898 111.587 181.459 111.048 181.853C110.501 182.258 109.761 182.487 108.829 182.539C108.335 182.566 107.867 182.541 107.423 182.463C106.979 182.385 106.518 182.252 106.04 182.064L106.622 180.433C106.88 180.531 107.137 180.615 107.393 180.684C107.64 180.755 107.877 180.807 108.103 180.841C108.329 180.875 108.54 180.886 108.736 180.875C108.997 180.861 109.195 180.812 109.331 180.73C109.467 180.657 109.531 180.55 109.523 180.411C109.517 180.308 109.475 180.212 109.395 180.123C109.306 180.044 109.147 179.96 108.918 179.87C108.679 179.78 108.336 179.655 107.887 179.493C107.439 179.34 107.056 179.175 106.738 178.996C106.419 178.818 106.173 178.589 105.998 178.309C105.823 178.029 105.723 177.66 105.698 177.204Z" fill="#004D99"></path><path d="M95.3549 178.106C95.4006 177.464 95.5294 176.902 95.7414 176.421C95.9441 175.94 96.2252 175.539 96.5849 175.218C96.9352 174.897 97.3495 174.664 97.8275 174.52C98.2956 174.385 98.8276 174.339 99.4234 174.381C99.9634 174.42 100.46 174.539 100.914 174.74C101.357 174.949 101.735 175.233 102.046 175.592C102.347 175.96 102.574 176.397 102.725 176.904C102.875 177.42 102.928 177.999 102.882 178.641C102.822 179.488 102.622 180.195 102.282 180.76C101.933 181.325 101.464 181.74 100.874 182.007C100.284 182.274 99.5984 182.38 98.8164 182.324C98.0809 182.272 97.4448 182.072 96.9081 181.725C96.3713 181.378 95.9655 180.9 95.6907 180.291C95.4066 179.682 95.2947 178.953 95.3549 178.106ZM100.494 178.471C100.528 177.997 100.51 177.593 100.44 177.261C100.37 176.928 100.238 176.671 100.045 176.489C99.8519 176.316 99.5922 176.218 99.2664 176.195C98.9312 176.171 98.6603 176.231 98.4535 176.375C98.2461 176.529 98.0842 176.766 97.9679 177.085C97.8517 177.404 97.7766 177.801 97.7429 178.276C97.7091 178.751 97.7275 179.15 97.7981 179.473C97.8687 179.796 98.0008 180.044 98.1943 180.217C98.3786 180.389 98.6383 180.487 98.9734 180.511C99.4482 180.544 99.8103 180.388 100.06 180.041C100.299 179.702 100.444 179.179 100.494 178.471Z" fill="#004D99"></path><path d="M87.9163 174.986C88.0154 174.492 88.2161 174.085 88.5183 173.765C88.8096 173.452 89.2133 173.243 89.7295 173.137C90.2439 173.04 90.8672 173.065 91.5993 173.212C92.13 173.319 92.5903 173.444 92.9801 173.589C93.3607 173.732 93.7358 173.926 94.1054 174.172L93.7308 176.039C93.3302 175.758 92.9029 175.516 92.4491 175.31C91.9861 175.103 91.5945 174.967 91.2742 174.903C90.9265 174.833 90.6657 174.829 90.4917 174.889C90.3178 174.949 90.2143 175.062 90.1813 175.226C90.1574 175.345 90.1775 175.459 90.2415 175.567C90.2963 175.673 90.4307 175.81 90.6448 175.976C90.8497 176.141 91.1626 176.361 91.5834 176.636C91.9932 176.918 92.3244 177.189 92.5768 177.449C92.8201 177.707 92.9865 177.993 93.076 178.306C93.1563 178.617 93.1552 178.979 93.0725 179.391C92.9293 180.104 92.5474 180.585 91.9267 180.831C91.2951 181.085 90.5217 181.121 89.6066 180.937C89.1216 180.84 88.6742 180.698 88.2643 180.511C87.8544 180.324 87.4418 180.079 87.0264 179.777L87.9993 178.344C88.2243 178.504 88.4521 178.649 88.6827 178.781C88.9041 178.911 89.12 179.021 89.3304 179.111C89.5409 179.201 89.7422 179.265 89.9344 179.304C90.1906 179.355 90.3947 179.358 90.5466 179.312C90.6967 179.276 90.7856 179.189 90.8131 179.052C90.8333 178.951 90.816 178.847 90.7611 178.741C90.6953 178.642 90.5627 178.521 90.3632 178.376C90.1547 178.229 89.8537 178.021 89.4603 177.752C89.0651 177.492 88.7358 177.235 88.4724 176.983C88.209 176.73 88.0279 176.446 87.9293 176.131C87.8306 175.816 87.8263 175.435 87.9163 174.986Z" fill="#004D99"></path><path d="M73.2261 170.114C73.4505 169.591 73.7832 169.17 74.2245 168.852C74.662 168.542 75.1915 168.372 75.8128 168.344C76.4305 168.325 77.1296 168.482 77.9102 168.817C78.2705 168.971 78.5959 169.136 78.8863 169.312C79.1767 169.487 79.4469 169.674 79.6969 169.872C79.9347 170.076 80.1589 170.299 80.3697 170.542L79.5146 172.536C79.1433 172.123 78.7488 171.741 78.3309 171.389C77.9045 171.033 77.4682 170.76 77.0221 170.569C76.7391 170.447 76.497 170.384 76.296 170.379C76.0828 170.379 75.9118 170.423 75.7831 170.51C75.6422 170.602 75.5368 170.729 75.4669 170.892C75.3823 171.089 75.3792 171.286 75.4576 171.482C75.5238 171.683 75.658 171.903 75.8601 172.142C76.0587 172.39 76.3056 172.678 76.6009 173.008C76.8239 173.246 77.0353 173.499 77.235 173.767C77.4225 174.041 77.5793 174.326 77.7055 174.624C77.8194 174.927 77.8782 175.252 77.8819 175.598C77.8732 175.95 77.7825 176.328 77.6097 176.731C77.3633 177.306 77.0243 177.729 76.5929 178.001C76.1493 178.278 75.6388 178.414 75.0616 178.411C74.4844 178.407 73.8655 178.264 73.205 177.98C72.6645 177.749 72.1927 177.475 71.7896 177.16C71.3864 176.845 71.0108 176.501 70.6628 176.129L72.0913 174.715C72.4259 175.072 72.7531 175.375 73.0729 175.624C73.3805 175.877 73.7015 176.076 74.0361 176.219C74.2677 176.319 74.4754 176.367 74.6592 176.365C74.8394 176.371 74.9938 176.33 75.1225 176.243C75.2475 176.165 75.3431 176.049 75.4093 175.894C75.4866 175.714 75.4945 175.53 75.4333 175.341C75.3684 175.161 75.2366 174.947 75.0381 174.699C74.8396 174.452 74.5725 174.139 74.2367 173.762C73.8704 173.361 73.5757 172.97 73.3527 172.59C73.1297 172.211 73.0023 171.821 72.9704 171.421C72.9349 171.03 73.0202 170.595 73.2261 170.114Z" fill="#004D99"></path><path d="M65.8431 171.479C65.2157 171.11 64.7454 170.676 64.4323 170.178C64.1064 169.683 63.9554 169.139 63.9792 168.547C63.9903 167.957 64.1899 167.333 64.5782 166.673L65.1321 165.732L69.3187 168.197C69.5582 167.753 69.6211 167.324 69.5071 166.911C69.3932 166.497 69.0909 166.146 68.6003 165.857C68.174 165.606 67.7643 165.419 67.3711 165.296C66.9778 165.173 66.5442 165.091 66.07 165.05L66.9578 163.542C67.3789 163.562 67.7958 163.645 68.2084 163.791C68.6257 163.928 69.1039 164.155 69.6428 164.472C70.3103 164.865 70.8345 165.336 71.2153 165.885C71.588 166.43 71.7764 167.039 71.7805 167.713C71.7718 168.39 71.5401 169.115 71.0856 169.887C70.6216 170.675 70.1078 171.244 69.5441 171.595C68.9756 171.953 68.3767 172.115 67.7473 172.081C67.1132 172.054 66.4785 171.853 65.8431 171.479ZM66.6378 170.047C66.9515 170.231 67.2721 170.284 67.5996 170.207C67.9143 170.132 68.2172 169.893 68.5083 169.491L66.2281 168.148C66.0908 168.382 66.0119 168.617 65.9915 168.854C65.963 169.086 66.0025 169.304 66.1098 169.508C66.2125 169.72 66.3884 169.9 66.6378 170.047Z" fill="#004D99"></path><path d="M56.7447 165.034C56.6484 164.96 56.5467 164.87 56.4396 164.764C56.3268 164.666 56.2427 164.584 56.1874 164.518L57.6892 162.882C57.7445 162.948 57.8212 163.025 57.9192 163.112C58.0115 163.206 58.1206 163.301 58.2465 163.398C58.4242 163.534 58.619 163.648 58.8308 163.74C59.0369 163.84 59.2538 163.894 59.4815 163.904C59.7034 163.922 59.9299 163.872 60.1607 163.755C60.3859 163.645 60.6093 163.446 60.8308 163.157L63.1741 160.102L65.0514 161.542L60.3734 167.641L58.9627 166.559L59.4407 165.337L59.363 165.278C59.0854 165.394 58.7953 165.466 58.4926 165.492C58.1842 165.526 57.882 165.506 57.586 165.432C57.2769 165.36 56.9965 165.227 56.7447 165.034Z" fill="#004D99"></path><path d="M57.7636 155.341L54.4635 162.874L52.706 161.147L54.8278 156.991C54.8798 156.898 54.9481 156.788 55.0328 156.662C55.1043 156.536 55.1858 156.413 55.2771 156.294C55.3553 156.174 55.4369 156.071 55.5219 155.985L55.482 155.945C55.3904 156.039 55.2889 156.129 55.1774 156.215C55.0593 156.296 54.9445 156.372 54.833 156.446C54.7082 156.52 54.5933 156.583 54.4881 156.637L50.3394 158.822L48.5919 157.105L56.066 153.673L57.7636 155.341Z" fill="#004D99"></path><path d="M45.4319 153.063L51.4023 148.223L52.8835 150.05L46.9131 154.89L45.4319 153.063ZM43.7929 155.888C43.5813 155.627 43.4541 155.352 43.4115 155.062C43.3688 154.772 43.5142 154.492 43.8477 154.222C44.1739 153.957 44.478 153.873 44.76 153.969C45.0347 154.07 45.2778 154.252 45.4894 154.513C45.7128 154.788 45.8458 155.071 45.8885 155.361C45.9181 155.649 45.7697 155.925 45.4435 156.19C45.11 156.46 44.8088 156.548 44.54 156.454C44.2653 156.352 44.0163 156.164 43.7929 155.888Z" fill="#004D99"></path><path d="M47.386 142.152C47.8009 142.795 48.0465 143.425 48.1227 144.043C48.186 144.657 48.0555 145.247 47.7312 145.812C47.394 146.374 46.8411 146.902 46.0726 147.398C45.2883 147.904 44.5606 148.18 43.8894 148.224C43.2054 148.265 42.5863 148.115 42.0322 147.773C41.4781 147.431 40.9961 146.942 40.5862 146.307C40.313 145.883 40.1107 145.475 39.9793 145.082C39.8429 144.681 39.7554 144.305 39.7166 143.952L41.5825 143.564C41.6499 143.91 41.7241 144.223 41.8054 144.504C41.8866 144.784 42.0057 145.046 42.1625 145.289C42.3346 145.556 42.548 145.741 42.8028 145.843C43.0497 145.95 43.3394 145.969 43.6718 145.898C43.9992 145.82 44.3628 145.652 44.7628 145.394C45.1628 145.136 45.4593 144.873 45.6523 144.604C45.8374 144.34 45.932 144.073 45.9361 143.804C45.9401 143.535 45.8561 143.267 45.684 143.001C45.4614 142.655 45.2029 142.367 44.9087 142.135C44.6093 141.895 44.2849 141.693 43.9352 141.53L45.5586 140.482C45.9032 140.638 46.2237 140.842 46.5203 141.095C46.8089 141.353 47.0975 141.705 47.386 142.152ZM47.8685 140.008C48.1587 139.821 48.4462 139.724 48.7311 139.718C49.0187 139.699 49.2984 139.78 49.5701 139.96C49.8368 140.132 50.0941 140.41 50.3421 140.795C50.4838 141.014 50.5971 141.224 50.6821 141.425C50.7621 141.618 50.823 141.789 50.8647 141.94L49.8295 142.608C49.7878 142.457 49.7331 142.304 49.6655 142.147C49.5929 141.983 49.5187 141.842 49.4428 141.725C49.3618 141.599 49.2686 141.515 49.1631 141.472C49.0525 141.421 48.9384 141.434 48.8208 141.51C48.6796 141.601 48.605 141.743 48.5969 141.937C48.5888 142.131 48.6636 142.411 48.8212 142.776L47.7162 142.922L46.9951 141.805L47.4315 141.706C47.3695 141.524 47.3335 141.331 47.3236 141.126C47.3165 140.909 47.3507 140.703 47.4261 140.51C47.5014 140.317 47.6489 140.15 47.8685 140.008Z" fill="#004D99"></path><path d="M38.2118 133.073C38.7928 132.795 39.3447 132.629 39.8675 132.576C40.3862 132.514 40.8739 132.56 41.3304 132.714C41.7828 132.86 42.1897 133.105 42.551 133.45C42.8999 133.79 43.2031 134.229 43.4608 134.768C43.6943 135.257 43.836 135.748 43.8857 136.241C43.923 136.73 43.8626 137.199 43.7044 137.647C43.5338 138.091 43.2656 138.503 42.8998 138.885C42.5257 139.271 42.0481 139.603 41.4671 139.881C40.7008 140.247 39.9881 140.422 39.3288 140.406C38.6654 140.382 38.072 140.18 37.5485 139.799C37.0251 139.418 36.5942 138.874 36.256 138.167C35.9379 137.502 35.7971 136.85 35.8333 136.212C35.8696 135.574 36.0846 134.985 36.4782 134.445C36.8677 133.897 37.4456 133.439 38.2118 133.073ZM40.4343 137.721C40.8638 137.515 41.2057 137.3 41.4602 137.075C41.7146 136.85 41.8733 136.609 41.9363 136.351C41.9909 136.097 41.9477 135.823 41.8068 135.528C41.6618 135.225 41.4755 135.019 41.2478 134.911C41.0117 134.807 40.7262 134.783 40.3912 134.84C40.0562 134.896 39.674 135.027 39.2446 135.233C38.8152 135.438 38.4774 135.651 38.2314 135.872C37.9854 136.093 37.8351 136.331 37.7805 136.584C37.7219 136.83 37.7651 137.104 37.91 137.407C38.1154 137.836 38.4306 138.074 38.8556 138.119C39.2682 138.159 39.7944 138.027 40.4343 137.721Z" fill="#004D99"></path><path d="M37.2472 125.064C37.7257 124.906 38.1789 124.88 38.6065 124.984C39.0224 125.083 39.404 125.33 39.7512 125.727C40.0895 126.126 40.3757 126.68 40.6099 127.389C40.7797 127.903 40.898 128.365 40.9647 128.776C41.0285 129.177 41.0451 129.599 41.0144 130.042L39.2064 130.639C39.252 130.152 39.2519 129.661 39.206 129.165C39.1573 128.66 39.0816 128.253 38.9792 127.942C38.8679 127.606 38.7431 127.377 38.6047 127.255C38.4664 127.134 38.3174 127.099 38.1579 127.152C38.0427 127.19 37.9539 127.264 37.8916 127.373C37.8264 127.473 37.7743 127.657 37.7352 127.926C37.6931 128.185 37.6567 128.566 37.6258 129.068C37.5831 129.563 37.5111 129.985 37.4098 130.333C37.3056 130.672 37.1395 130.958 36.9116 131.191C36.6808 131.414 36.366 131.592 35.9672 131.724C35.2759 131.952 34.6696 131.858 34.1484 131.44C33.6153 131.016 33.2024 130.362 32.9097 129.475C32.7546 129.006 32.657 128.546 32.6169 128.098C32.5768 127.649 32.5855 127.169 32.6429 126.659L34.3692 126.796C34.3419 127.071 34.3278 127.341 34.3271 127.606C34.3235 127.863 34.3346 128.105 34.3605 128.333C34.3865 128.56 34.4302 128.767 34.4917 128.953C34.5736 129.201 34.672 129.38 34.7868 129.489C34.8928 129.602 35.0122 129.636 35.1451 129.592C35.2426 129.56 35.324 129.494 35.3892 129.394C35.4426 129.287 35.4829 129.112 35.5101 128.867C35.5345 128.613 35.5664 128.249 35.6061 127.774C35.6369 127.302 35.6971 126.889 35.7866 126.535C35.8761 126.181 36.0333 125.883 36.2583 125.642C36.4833 125.4 36.8129 125.208 37.2472 125.064Z" fill="#004D99"></path><path d="M32.7967 116.859C32.2409 116.927 31.7848 116.889 31.4287 116.744C31.0726 116.599 30.8012 116.379 30.6145 116.082C30.4186 115.786 30.2974 115.448 30.2511 115.068C30.2036 114.679 30.2394 114.318 30.3584 113.983C30.4682 113.65 30.6832 113.37 31.0034 113.143C31.3143 112.917 31.7431 112.771 32.2897 112.704C32.827 112.638 33.2784 112.677 33.6438 112.821C33.9999 112.965 34.276 113.186 34.4719 113.481C34.6678 113.777 34.7895 114.12 34.837 114.509C34.8834 114.889 34.847 115.246 34.728 115.58C34.6089 115.914 34.3939 116.194 34.083 116.42C33.7628 116.647 33.3341 116.794 32.7967 116.859Z" fill="#004D99"></path><defs><linearGradient id="paint0_linear_85_2153" x1="75" y1="75" x2="150.324" y2="100.461" gradientUnits="userSpaceOnUse"><stop stop-color="#3DADFE"></stop><stop offset="0.509663" stop-color="#5C87FE"></stop><stop offset="1" stop-color="#004D99"></stop></linearGradient><clipPath id="clip0_85_2153"><rect width="21" height="20" fill="white" transform="translate(96 96)"></rect></clipPath></defs></svg>