<svg xmlns="http://www.w3.org/2000/svg" width="16" height="16" viewBox="0 0 16 16" fill="none"><g clip-path="url(#clip0_338_4809)"><path d="M2 6.50313L8 2.05938L14 6.50313V7.98438L9.04688 11.6562C8.74375 11.8812 8.37813 12 8 12C7.62187 12 7.25625 11.8781 6.95312 11.6562L2 7.98438V6.50313ZM8 0C7.62187 0 7.25625 0.121875 6.95312 0.34375L0.809375 4.89687C0.3 5.275 0 5.86875 0 6.50313V14C0 15.1031 0.896875 16 2 16H14C15.1031 16 16 15.1031 16 14V6.50313C16 5.86875 15.7 5.27187 15.1906 4.89687L9.04688 0.34375C8.74375 0.121875 8.37813 0 8 0Z" fill="#6694C2"></path></g><defs><clipPath id="clip0_338_4809"><rect width="16" height="16" fill="white"></rect></clipPath></defs></svg>