<svg xmlns="http://www.w3.org/2000/svg" width="120" height="120" viewBox="0 0 120 120" fill="none"><rect width="120" height="120" rx="16" fill="#004D99"></rect><path d="M69.8869 66.4779C65.8847 70.4849 63.9483 72.3927 62.9483 77.2521C62.8737 77.6153 62.4591 77.6153 62.4591 77.2521V71.299C62.4591 67.4819 65.8557 63.9922 69.9009 59.9416L73.1544 56.6839C77.7111 52.1212 78.8111 46.8337 75.1876 43.6906C74.8845 43.4276 75.042 43.1054 75.4384 43.2865C79.9573 45.3488 83.5217 52.8408 75.7721 60.5985L69.8869 66.4779ZM62.4431 81.7784V87.772C62.4431 88.1352 62.8576 88.1352 62.9322 87.772C63.9323 82.9142 65.8681 80.967 69.8698 76.9595L76.2105 70.624C83.9569 62.8674 85.2974 55.3603 81.3573 50.5362C81.0946 50.2145 80.8122 50.407 80.9837 50.7956C83.588 56.6994 77.3421 62.954 74.3679 65.9347L69.8848 70.4237C65.8396 74.4717 62.4431 77.9619 62.4431 81.7784ZM45.2595 62.4959C37.5125 70.2535 41.0749 77.7455 45.5937 79.8079C45.9901 79.989 46.1476 79.6668 45.8445 79.4037C42.2205 76.2606 43.3211 70.9731 47.8777 66.4105L60.7534 53.5179C64.7991 49.4668 68.1951 45.9771 68.1951 42.1601V36.2054C68.1951 35.8422 67.7806 35.8422 67.706 36.2054C66.706 41.0638 64.7696 42.9726 60.7679 46.9801L45.2595 62.4959ZM68.2112 31.6806V25.687C68.2112 25.3238 67.7967 25.3238 67.722 25.687C66.7225 30.5454 64.7867 32.4921 60.7845 36.4996L44.8216 52.4699C37.0778 60.2275 35.7347 67.734 39.6748 72.5582C39.9375 72.8799 40.2199 72.6874 40.0484 72.2988C37.4436 66.3975 43.69 60.1403 46.6642 57.1622L60.7694 43.0379C64.8147 38.9874 68.2112 35.4972 68.2112 31.6806ZM43.1402 43.7088C36.4793 50.3805 35.5503 57.4377 36.9742 62.0434C37.0954 62.4346 37.4333 62.4585 37.4302 62.0507C37.3965 58.1828 38.5074 54.8591 45.5579 47.7993L60.7575 32.5829C64.8028 28.5323 68.1993 25.0426 68.1993 21.2255V15.2724C68.1993 14.9092 67.7847 14.9092 67.7096 15.2724C66.7101 20.1308 64.7691 22.0474 60.7663 26.0549L43.1402 43.7088ZM52.4567 91.9969C52.4247 91.9969 52.3931 91.9906 52.3635 91.9784C52.334 91.9661 52.3072 91.9481 52.2846 91.9255C52.2621 91.9028 52.2442 91.8759 52.232 91.8463C52.2198 91.8168 52.2136 91.7851 52.2137 91.7531V88.2966C52.2136 88.2646 52.2198 88.2329 52.232 88.2033C52.2442 88.1737 52.2621 88.1468 52.2846 88.1242C52.3072 88.1015 52.334 88.0836 52.3635 88.0713C52.3931 88.059 52.4247 88.0527 52.4567 88.0527H58.2927C58.3571 88.0527 58.419 88.0271 58.4647 87.9815C58.5103 87.9359 58.536 87.874 58.5362 87.8094C58.5206 84.7057 56.1843 82.5972 46.8259 84.2294L26.6147 87.7056C26.6147 87.7056 11.2208 103.119 11.0944 103.271C10.8845 103.521 11.0457 103.841 11.3711 103.813C11.6514 103.789 44.9994 98.0191 44.9994 98.0191C52.6536 96.7261 56.8263 100.374 58.075 103.791C58.1854 104.093 58.5414 104.047 58.5414 103.758C58.5414 103.551 58.5414 92.2371 58.5414 92.2371C58.5414 92.2052 58.5351 92.1735 58.5229 92.144C58.5107 92.1145 58.4928 92.0877 58.4702 92.0651C58.4476 92.0425 58.4208 92.0246 58.3913 92.0123C58.3619 92.0001 58.3303 91.9938 58.2984 91.9938L52.4567 91.9969ZM76.5804 84.644L69.8962 91.3411C65.851 95.3922 62.4545 98.8819 62.4545 102.699L62.4581 103.762C62.4581 104.05 62.8167 104.096 62.9245 103.794C64.1732 100.377 68.3464 96.7292 76.0006 98.0222C76.0006 98.0222 109.346 103.792 109.629 103.817C109.954 103.845 110.115 103.524 109.906 103.274C109.779 103.124 94.3858 87.7087 94.3858 87.7087L76.5804 84.644ZM84.0569 61.053C83.9362 60.6618 83.5984 60.6379 83.6015 61.0457C83.6351 64.9136 82.5242 68.2373 75.4737 75.2966L69.8993 80.8772C67.3604 83.4195 65.0805 85.7387 63.7333 88.0579H69.2408L69.8921 87.4052L77.8924 79.3861C84.5528 72.7138 85.4818 65.6561 84.059 61.053H84.0569ZM62.4555 98.1866C62.4555 98.5498 62.87 98.5498 62.9447 98.1866C63.4955 95.5115 64.3323 93.7283 65.6391 91.9969H62.6975C62.6656 91.9969 62.634 92.0032 62.6045 92.0154C62.575 92.0277 62.5482 92.0456 62.5257 92.0682C62.5031 92.0908 62.4852 92.1176 62.473 92.1471C62.4608 92.1767 62.4545 92.2083 62.4545 92.2403L62.4555 98.1866Z" fill="white"></path></svg>