<svg xmlns="http://www.w3.org/2000/svg" width="40" height="40" viewBox="0 0 40 40" fill="none"><rect y="4.3869e-05" width="40" height="40" rx="20" fill="#F2F6FC"></rect><path d="M26.7063 20.7063C27.0969 20.3157 27.0969 19.6813 26.7063 19.2907L21.7063 14.2907C21.3156 13.9 20.6813 13.9 20.2906 14.2907C19.9 14.6813 19.9 15.3157 20.2906 15.7063L23.5875 19H14C13.4469 19 13 19.4469 13 20C13 20.5532 13.4469 21 14 21H23.5844L20.2937 24.2938C19.9031 24.6844 19.9031 25.3188 20.2937 25.7094C20.6844 26.1 21.3188 26.1 21.7094 25.7094L26.7094 20.7094L26.7063 20.7063Z" fill="#004D99"></path></svg>