<svg xmlns="http://www.w3.org/2000/svg" width="24" height="24" viewBox="0 0 24 24" fill="none"><path d="M14.2756 13.8817C13.3054 14.9622 12.836 15.4767 12.5935 16.7871C12.5754 16.885 12.4749 16.885 12.4749 16.7871V15.1817C12.4749 14.1524 13.2983 13.2114 14.279 12.1191L15.0677 11.2406C16.1724 10.0102 16.4391 8.58438 15.5606 7.7368C15.4872 7.66586 15.5253 7.57898 15.6214 7.62781C16.7169 8.18396 17.581 10.2043 15.7023 12.2962L14.2756 13.8817ZM12.4711 18.0077V19.6239C12.4711 19.7219 12.5715 19.7219 12.5896 19.6239C12.8321 18.3139 13.3014 17.7888 14.2715 16.7082L15.8086 14.9997C17.6865 12.9081 18.0115 10.8837 17.0563 9.58279C16.9926 9.49604 16.9242 9.54795 16.9658 9.65274C17.5971 11.2448 16.0829 12.9314 15.3619 13.7352L14.2751 14.9457C13.2944 16.0373 12.4711 16.9785 12.4711 18.0077ZM8.30533 12.8079C6.42728 14.8998 7.29088 16.9201 8.38635 17.4763C8.48245 17.5251 8.52063 17.4382 8.44715 17.3673C7.5686 16.5197 7.83541 15.0939 8.94005 13.8635L12.0614 10.3869C13.0422 9.29443 13.8655 8.35339 13.8655 7.32406V5.7183C13.8655 5.62037 13.765 5.62037 13.7469 5.7183C13.5045 7.02843 13.0351 7.54316 12.0649 8.62384L8.30533 12.8079ZM13.8694 4.49814V2.88189C13.8694 2.78395 13.7689 2.78395 13.7508 2.88189C13.5085 4.19201 13.0392 4.71696 12.069 5.79763L8.19919 10.1042C6.32189 12.1962 5.9963 14.2204 6.95147 15.5213C7.01515 15.6081 7.08361 15.5561 7.04204 15.4514C6.41058 13.86 7.92485 12.1727 8.64587 11.3696L12.0653 7.56079C13.046 6.46851 13.8694 5.52733 13.8694 4.49814ZM7.79157 7.7417C6.17681 9.54081 5.95158 11.4439 6.29677 12.6859C6.32616 12.7914 6.40806 12.7978 6.40731 12.6878C6.39915 11.6448 6.66846 10.7485 8.37768 8.84476L12.0624 4.74144C13.0431 3.64916 13.8665 2.70812 13.8665 1.67879V0.0734533C13.8665 -0.0244844 13.766 -0.0244844 13.7478 0.0734533C13.5055 1.38358 13.0349 1.90041 12.0646 2.98108L7.79157 7.7417ZM10.0501 20.7632C10.0424 20.7632 10.0347 20.7615 10.0275 20.7582C10.0204 20.7549 10.0139 20.7501 10.0084 20.7439C10.0029 20.7378 9.99859 20.7306 9.99564 20.7226C9.99268 20.7146 9.99117 20.7061 9.99119 20.6975V19.7654C9.99117 19.7567 9.99268 19.7482 9.99564 19.7402C9.99859 19.7322 10.0029 19.725 10.0084 19.7189C10.0139 19.7128 10.0204 19.7079 10.0275 19.7046C10.0347 19.7013 10.0424 19.6996 10.0501 19.6996H11.4649C11.4805 19.6996 11.4955 19.6927 11.5066 19.6804C11.5177 19.6681 11.5239 19.6514 11.5239 19.634C11.5202 18.797 10.9538 18.2284 8.68506 18.6686L3.78538 19.606C3.78538 19.606 0.0535262 23.7623 0.0228765 23.8033C-0.027997 23.8708 0.0110668 23.9572 0.0899521 23.9497C0.157909 23.943 8.24227 22.3872 8.24227 22.3872C10.0978 22.0385 11.1094 23.0221 11.4121 23.9435C11.4389 24.025 11.5252 24.0126 11.5252 23.9349C11.5252 23.8789 11.5252 20.828 11.5252 20.828C11.5252 20.8194 11.5237 20.8108 11.5207 20.8029C11.5177 20.7949 11.5134 20.7877 11.5079 20.7816C11.5025 20.7755 11.496 20.7707 11.4888 20.7674C11.4817 20.7641 11.474 20.7624 11.4663 20.7624L10.0501 20.7632ZM15.8983 18.7804L14.2779 20.5864C13.2972 21.6788 12.4738 22.6198 12.4738 23.6492L12.4747 23.9357C12.4747 24.0135 12.5616 24.0258 12.5877 23.9444C12.8905 23.0229 13.9022 22.0393 15.7577 22.388C15.7577 22.388 23.8415 23.9438 23.91 23.9505C23.9889 23.9582 24.028 23.8716 23.9771 23.8042C23.9465 23.7637 20.2147 19.6068 20.2147 19.6068L15.8983 18.7804ZM17.7108 12.4188C17.6815 12.3133 17.5996 12.3069 17.6004 12.4168C17.6085 13.4599 17.3392 14.3561 15.63 16.2598L14.2786 17.7646C13.6631 18.4502 13.1104 19.0756 12.7838 19.701H14.119L14.2769 19.525L16.2163 17.3625C17.831 15.5633 18.0557 13.6601 17.7108 12.4188ZM12.4741 22.4324C12.4741 22.5303 12.5746 22.5303 12.5926 22.4324C12.7262 21.711 12.929 21.2301 13.2458 20.7632H12.5327C12.525 20.7632 12.5173 20.7649 12.5102 20.7682C12.503 20.7715 12.4965 20.7763 12.4911 20.7824C12.4856 20.7885 12.4813 20.7958 12.4783 20.8037C12.4753 20.8117 12.4738 20.8202 12.4738 20.8288L12.4741 22.4324Z" fill="white"></path></svg>