<svg xmlns="http://www.w3.org/2000/svg" width="16" height="16" viewBox="0 0 16 16" fill="none"><g clip-path="url(#clip0_378_4368)"><path d="M13 6.24C13 7.617 12.5344 8.889 11.75 9.921L15.7063 13.722C16.0969 14.097 16.0969 14.706 15.7063 15.081C15.3156 15.456 14.6812 15.456 14.2906 15.081L10.3344 11.28C9.25938 12.036 7.93437 12.48 6.5 12.48C2.90937 12.48 0 9.687 0 6.24C0 2.793 2.90937 0 6.5 0C10.0906 0 13 2.793 13 6.24ZM6.5 10.56C7.09095 10.56 7.67611 10.4483 8.22208 10.2312C8.76804 10.0141 9.26412 9.69585 9.68198 9.2947C10.0998 8.89355 10.4313 8.41732 10.6575 7.89319C10.8836 7.36907 11 6.80731 11 6.24C11 5.67269 10.8836 5.11093 10.6575 4.58681C10.4313 4.06268 10.0998 3.58645 9.68198 3.1853C9.26412 2.78415 8.76804 2.46594 8.22208 2.24884C7.67611 2.03174 7.09095 1.92 6.5 1.92C5.90905 1.92 5.32389 2.03174 4.77792 2.24884C4.23196 2.46594 3.73588 2.78415 3.31802 3.1853C2.90016 3.58645 2.56869 4.06268 2.34254 4.58681C2.1164 5.11093 2 5.67269 2 6.24C2 6.80731 2.1164 7.36907 2.34254 7.89319C2.56869 8.41732 2.90016 8.89355 3.31802 9.2947C3.73588 9.69585 4.23196 10.0141 4.77792 10.2312C5.32389 10.4483 5.90905 10.56 6.5 10.56Z" fill="#002E5C"></path></g><defs><clipPath id="clip0_378_4368"><rect width="16" height="16" fill="white"></rect></clipPath></defs></svg>