<svg xmlns="http://www.w3.org/2000/svg" width="127" height="85" viewBox="0 0 127 85" fill="none"><rect width="127" height="85" fill="#002E5C"></rect><g style="mix-blend-mode:multiply" opacity="0.4"><path d="M98.1134 30.0438C96.7892 31.5185 96.1486 32.2206 95.8177 34.009C95.793 34.1427 95.6559 34.1427 95.6559 34.009V31.8181C95.6559 30.4132 96.7796 29.1289 98.118 27.6382L99.1945 26.4392C100.702 24.76 101.066 22.814 99.8672 21.6572C99.7669 21.5604 99.819 21.4418 99.9502 21.5085C101.445 22.2675 102.625 25.0248 100.061 27.8799L98.1134 30.0438ZM95.6506 35.6749V37.8807C95.6506 38.0144 95.7877 38.0144 95.8124 37.8807C96.1433 36.0929 96.7838 35.3762 98.1078 33.9013L100.206 31.5696C102.769 28.7149 103.212 25.9521 101.909 24.1766C101.822 24.0582 101.728 24.1291 101.785 24.2721C102.647 26.4449 100.58 28.7468 99.596 29.8438L98.1127 31.4959C96.7743 32.9857 95.6506 34.2702 95.6506 35.6749ZM89.9652 28.5782C87.402 31.4333 88.5806 34.1906 90.0758 34.9497C90.2069 35.0163 90.259 34.8977 90.1587 34.8009C88.9597 33.6441 89.3238 31.6981 90.8314 30.0189L95.0915 25.274C96.4301 23.7831 97.5537 22.4987 97.5537 21.0939V18.9024C97.5537 18.7687 97.4165 18.7687 97.3918 18.9024C97.061 20.6904 96.4203 21.3929 95.0963 22.8678L89.9652 28.5782ZM97.559 17.2371V15.0312C97.559 14.8976 97.4218 14.8976 97.3971 15.0312C97.0664 16.8193 96.426 17.5357 95.1018 19.0106L89.8203 24.8883C87.2582 27.7434 86.8138 30.506 88.1174 32.2815C88.2043 32.3999 88.2978 32.329 88.241 32.186C87.3792 30.0142 89.4459 27.7113 90.4299 26.6152L95.0968 21.417C96.4352 19.9262 97.559 18.6417 97.559 17.2371ZM89.264 21.6639C87.0602 24.1193 86.7528 26.7166 87.2239 28.4117C87.264 28.5557 87.3758 28.5645 87.3748 28.4144C87.3636 26.9908 87.7312 25.7676 90.0639 23.1693L95.0929 17.5691C96.4313 16.0784 97.555 14.7941 97.555 13.3892V11.1983C97.555 11.0646 97.4179 11.0646 97.393 11.1983C97.0623 12.9863 96.4201 13.6917 95.0958 15.1666L89.264 21.6639ZM92.3464 39.4357C92.3359 39.4357 92.3254 39.4333 92.3156 39.4288C92.3059 39.4243 92.297 39.4177 92.2895 39.4094C92.2821 39.401 92.2761 39.3911 92.2721 39.3802C92.2681 39.3693 92.266 39.3577 92.266 39.3459V38.0738C92.266 38.062 92.2681 38.0503 92.2721 38.0395C92.2761 38.0286 92.2821 38.0187 92.2895 38.0103C92.297 38.002 92.3059 37.9954 92.3156 37.9909C92.3254 37.9864 92.3359 37.984 92.3464 37.984H94.2773C94.2987 37.984 94.3191 37.9746 94.3343 37.9578C94.3494 37.941 94.3579 37.9183 94.3579 37.8945C94.3528 36.7522 93.5798 35.9762 90.4834 36.5769L83.7963 37.8563C83.7963 37.8563 78.7031 43.5289 78.6613 43.5848C78.5919 43.6769 78.6452 43.7949 78.7528 43.7845C78.8456 43.7754 89.8791 41.652 89.8791 41.652C92.4116 41.1762 93.7922 42.5185 94.2053 43.7761C94.2418 43.8873 94.3596 43.8705 94.3596 43.7643C94.3596 43.6879 94.3596 39.5241 94.3596 39.5241C94.3596 39.5123 94.3575 39.5007 94.3535 39.4898C94.3495 39.4789 94.3435 39.4691 94.3361 39.4607C94.3286 39.4524 94.3197 39.4458 94.31 39.4413C94.3002 39.4368 94.2898 39.4345 94.2792 39.4345L92.3464 39.4357ZM100.328 36.7295L98.1165 39.1943C96.7781 40.6852 95.6543 41.9696 95.6543 43.3744L95.6555 43.7655C95.6555 43.8716 95.7742 43.8884 95.8098 43.7773C96.223 42.5197 97.6037 41.1773 100.136 41.6532C100.136 41.6532 111.169 43.7765 111.262 43.7857C111.37 43.7962 111.423 43.678 111.354 43.586C111.312 43.5308 106.219 37.8574 106.219 37.8574L100.328 36.7295ZM102.802 28.0472C102.762 27.9032 102.65 27.8944 102.651 28.0445C102.662 29.468 102.295 30.6913 99.9619 33.2893L98.1175 35.3432C97.2775 36.2789 96.5232 37.1324 96.0774 37.986H97.8996L98.1151 37.7457L100.762 34.7944C102.966 32.3388 103.272 29.7413 102.802 28.0472ZM95.6547 41.7137C95.6547 41.8474 95.7918 41.8474 95.8165 41.7137C95.9987 40.7291 96.2756 40.0729 96.708 39.4357H95.7347C95.7242 39.4357 95.7137 39.438 95.704 39.4425C95.6942 39.447 95.6853 39.4536 95.6779 39.4619C95.6704 39.4702 95.6645 39.4801 95.6604 39.4909C95.6564 39.5018 95.6543 39.5134 95.6543 39.5252L95.6547 41.7137Z" fill="url(#paint0_linear_379_6764)"></path></g><g style="mix-blend-mode:multiply" opacity="0.4"><path d="M33.6596 53.2894C32.3354 54.7641 31.6948 55.4662 31.3639 57.2546C31.3392 57.3883 31.2021 57.3883 31.2021 57.2546V55.0637C31.2021 53.6588 32.3258 52.3745 33.6642 50.8838L34.7407 49.6848C36.2483 48.0056 36.6123 46.0596 35.4134 44.9028C35.3131 44.806 35.3653 44.6874 35.4964 44.7541C36.9915 45.5131 38.1708 48.2704 35.6068 51.1255L33.6596 53.2894ZM31.1968 58.9205V61.1263C31.1968 61.26 31.3339 61.26 31.3586 61.1263C31.6895 59.3385 32.33 58.6218 33.654 57.1469L35.7518 54.8152C38.3148 51.9605 38.7583 49.1977 37.4547 47.4222C37.3678 47.3038 37.2744 47.3747 37.3311 47.5177C38.1928 49.6905 36.1263 51.9924 35.1422 53.0894L33.6589 54.7415C32.3205 56.2313 31.1968 57.5159 31.1968 58.9205ZM25.5114 51.8238C22.9482 54.6789 24.1269 57.4362 25.622 58.1953C25.7531 58.2619 25.8052 58.1433 25.7049 58.0465C24.5059 56.8897 24.87 54.9437 26.3776 53.2645L30.6377 48.5196C31.9763 47.0287 33.0999 45.7443 33.0999 44.3395V42.148C33.0999 42.0143 32.9627 42.0143 32.938 42.148C32.6072 43.936 31.9665 44.6385 30.6425 46.1134L25.5114 51.8238ZM33.1052 40.4827V38.2768C33.1052 38.1432 32.968 38.1432 32.9434 38.2768C32.6127 40.0649 31.9722 40.7813 30.648 42.2562L25.3665 48.1339C22.8044 50.989 22.36 53.7516 23.6636 55.5271C23.7505 55.6455 23.844 55.5747 23.7872 55.4316C22.9254 53.2598 24.9921 50.9569 25.9761 49.8608L30.643 44.6626C31.9814 43.1718 33.1052 41.8873 33.1052 40.4827ZM24.8102 44.9095C22.6064 47.3649 22.299 49.9622 22.7701 51.6573C22.8102 51.8013 22.922 51.8101 22.921 51.66C22.9098 50.2364 23.2774 49.0132 25.6101 46.4149L30.6391 40.8147C31.9775 39.324 33.1013 38.0397 33.1013 36.6348V34.4439C33.1013 34.3102 32.9641 34.3102 32.9392 34.4439C32.6085 36.2319 31.9663 36.9373 30.642 38.4122L24.8102 44.9095ZM27.8926 62.6813C27.8821 62.6813 27.8716 62.6789 27.8618 62.6744C27.8521 62.6699 27.8432 62.6633 27.8357 62.655C27.8283 62.6466 27.8223 62.6367 27.8183 62.6258C27.8143 62.615 27.8122 62.6033 27.8122 62.5915V61.3194C27.8122 61.3076 27.8143 61.296 27.8183 61.2851C27.8223 61.2742 27.8283 61.2643 27.8357 61.2559C27.8432 61.2476 27.8521 61.241 27.8618 61.2365C27.8716 61.232 27.8821 61.2296 27.8926 61.2296H29.8235C29.8449 61.2297 29.8653 61.2202 29.8805 61.2034C29.8956 61.1866 29.9041 61.1639 29.9041 61.1401C29.899 59.9978 29.126 59.2218 26.0296 59.8225L19.3426 61.1019C19.3426 61.1019 14.2493 66.7745 14.2075 66.8304C14.1381 66.9225 14.1914 67.0405 14.299 67.0302C14.3918 67.021 25.4253 64.8976 25.4253 64.8976C27.9578 64.4218 29.3384 65.7642 29.7515 67.0218C29.7881 67.1329 29.9058 67.1161 29.9058 67.0099C29.9058 66.9335 29.9058 62.7697 29.9058 62.7697C29.9058 62.7579 29.9038 62.7463 29.8997 62.7354C29.8957 62.7245 29.8897 62.7147 29.8823 62.7063C29.8748 62.698 29.8659 62.6914 29.8562 62.6869C29.8464 62.6824 29.836 62.6801 29.8254 62.6801L27.8926 62.6813ZM35.8742 59.9751L33.6627 62.4399C32.3243 63.9308 31.2005 65.2152 31.2005 66.62L31.2017 67.0111C31.2017 67.1172 31.3204 67.134 31.356 67.0229C31.7692 65.7653 33.1499 64.4229 35.6824 64.8988C35.6824 64.8988 46.7151 67.0221 46.8087 67.0313C46.9164 67.0418 46.9697 66.9236 46.9002 66.8316C46.8584 66.7764 41.7653 61.103 41.7653 61.103L35.8742 59.9751ZM38.3479 51.2928C38.308 51.1488 38.1962 51.14 38.1972 51.2901C38.2084 52.7136 37.8408 53.9369 35.5081 56.5349L33.6637 58.5888C32.8237 59.5245 32.0694 60.378 31.6236 61.2316H33.4458L33.6613 60.9913L36.3083 58.04C38.512 55.5844 38.8187 52.9869 38.3479 51.2928ZM31.2009 64.9593C31.2009 65.093 31.338 65.093 31.3627 64.9593C31.5449 63.9748 31.8218 63.3185 32.2542 62.6813H31.2809C31.2704 62.6813 31.2599 62.6836 31.2502 62.6881C31.2404 62.6926 31.2315 62.6992 31.2241 62.7075C31.2166 62.7158 31.2107 62.7257 31.2066 62.7365C31.2026 62.7474 31.2005 62.759 31.2005 62.7708L31.2009 64.9593Z" fill="url(#paint1_linear_379_6764)"></path></g><defs><linearGradient id="paint0_linear_379_6764" x1="95.0077" y1="11.098" x2="95.0077" y2="43.8532" gradientUnits="userSpaceOnUse"><stop stop-color="#001E3E"></stop><stop offset="1" stop-color="#B2CAE0"></stop><stop offset="1" stop-color="#002955"></stop></linearGradient><linearGradient id="paint1_linear_379_6764" x1="30.5539" y1="34.3436" x2="30.5539" y2="67.0988" gradientUnits="userSpaceOnUse"><stop stop-color="#001325"></stop><stop offset="1" stop-color="#B2CAE0"></stop><stop offset="1" stop-color="#D3DFEA"></stop></linearGradient></defs></svg>