<svg width="243" height="72" viewBox="0 0 243 72" fill="none" xmlns="http://www.w3.org/2000/svg">
<g clip-path="url(#clip0_701_2)">
<mask id="mask0_701_2" style="mask-type:luminance" maskUnits="userSpaceOnUse" x="-82" y="-66" width="393" height="222">
<path d="M-81.5649 -65.6341H310.808V155.076H-81.5649V-65.6341Z" fill="white"/>
</mask>
<g mask="url(#mask0_701_2)">
<path d="M72.1146 63.3284H70.7037V70.0829H71.8735C74.2013 70.0829 75.3715 68.925 75.3715 66.6574C75.3715 64.3657 74.1893 63.3284 72.1146 63.3284ZM72.0181 71.0117H69.6179V62.3997H72.2715C74.8647 62.3997 76.5171 63.8593 76.5171 66.6212C76.5171 69.5281 74.8526 71.0117 72.0181 71.0117Z" fill="#0B335E"/>
</g>
<mask id="mask1_701_2" style="mask-type:luminance" maskUnits="userSpaceOnUse" x="-82" y="-66" width="393" height="222">
<path d="M-81.5649 -65.6341H310.808V155.076H-81.5649V-65.6341Z" fill="white"/>
</mask>
<g mask="url(#mask1_701_2)">
<path d="M78.251 71.0117V62.3997H83.0635V63.3524H79.3365V66.0424H82.5689V66.9831H79.3365V70.0587H83.3289L82.9668 71.0117H78.251Z" fill="#0B335E"/>
</g>
<mask id="mask2_701_2" style="mask-type:luminance" maskUnits="userSpaceOnUse" x="-82" y="-66" width="393" height="222">
<path d="M-81.5649 -65.6341H310.808V155.076H-81.5649V-65.6341Z" fill="white"/>
</mask>
<g mask="url(#mask2_701_2)">
<path d="M85.8175 63.3284V66.7299H86.686C88.3262 66.7299 89.1224 66.2472 89.1224 64.9808C89.1224 63.8711 88.435 63.3284 86.9151 63.3284H85.8175ZM90.244 64.9326C90.244 66.3558 89.3879 67.6584 86.8066 67.6584H85.8175V71.0117H84.7319V62.3997H87.0116C89.2671 62.3997 90.244 63.3284 90.244 64.9326Z" fill="#0B335E"/>
</g>
<mask id="mask3_701_2" style="mask-type:luminance" maskUnits="userSpaceOnUse" x="-82" y="-66" width="393" height="222">
<path d="M-81.5649 -65.6341H310.808V155.076H-81.5649V-65.6341Z" fill="white"/>
</mask>
<g mask="url(#mask3_701_2)">
<path d="M94.3213 64.7758C94.2489 64.5829 93.9957 63.7867 93.9113 63.4853C93.7908 63.9797 93.634 64.4985 93.5374 64.7758L92.5605 67.381H95.2865L94.3213 64.7758ZM95.612 68.346H92.1986L91.1733 71.0117H90.0757L93.4407 62.3634H94.4179L97.7711 71.0117H96.6494L95.612 68.346Z" fill="#0B335E"/>
</g>
<mask id="mask4_701_2" style="mask-type:luminance" maskUnits="userSpaceOnUse" x="-82" y="-66" width="393" height="222">
<path d="M-81.5649 -65.6341H310.808V155.076H-81.5649V-65.6341Z" fill="white"/>
</mask>
<g mask="url(#mask4_701_2)">
<path d="M100.061 63.3406V66.537H101.351C102.75 66.537 103.366 65.9821 103.366 64.8964C103.366 63.7746 102.702 63.3406 101.291 63.3406H100.061ZM104.487 64.8481C104.487 66.2231 103.631 66.8505 102.763 67.1519L105.126 71.0117H103.86L101.773 67.4535H100.061V71.0117H98.9751V62.3997H101.351C103.486 62.3997 104.487 63.2079 104.487 64.8481Z" fill="#0B335E"/>
</g>
<mask id="mask5_701_2" style="mask-type:luminance" maskUnits="userSpaceOnUse" x="-82" y="-66" width="393" height="222">
<path d="M-81.5649 -65.6341H310.808V155.076H-81.5649V-65.6341Z" fill="white"/>
</mask>
<g mask="url(#mask5_701_2)">
<path d="M108.115 71.0117V63.3524H105.425L105.787 62.3997H111.878V63.3524H109.2V71.0117H108.115Z" fill="#0B335E"/>
</g>
<mask id="mask6_701_2" style="mask-type:luminance" maskUnits="userSpaceOnUse" x="-82" y="-66" width="393" height="222">
<path d="M-81.5649 -65.6341H310.808V155.076H-81.5649V-65.6341Z" fill="white"/>
</mask>
<g mask="url(#mask6_701_2)">
<path d="M115.394 64.7758C115.322 64.5829 115.069 63.7867 114.984 63.4853C114.864 63.9797 114.707 64.4985 114.61 64.7758L113.633 67.381H116.359L115.394 64.7758ZM116.685 68.346H113.271L112.246 71.0117H111.149L114.514 62.3634H115.491L118.844 71.0117H117.722L116.685 68.346Z" fill="#0B335E"/>
</g>
<mask id="mask7_701_2" style="mask-type:luminance" maskUnits="userSpaceOnUse" x="-82" y="-66" width="393" height="222">
<path d="M-81.5649 -65.6341H310.808V155.076H-81.5649V-65.6341Z" fill="white"/>
</mask>
<g mask="url(#mask7_701_2)">
<path d="M121.013 63.4611H120.965C121.013 63.9556 121.049 64.8722 121.049 65.7892V71.0116H120.048V62.3998H121.652L124.306 69.4558H124.354L127.056 62.3998H128.648V71.0116H127.574V65.7166C127.574 64.8844 127.623 63.9918 127.659 63.4733H127.61L124.74 71.0116H123.847L121.013 63.4611Z" fill="#0B335E"/>
</g>
<mask id="mask8_701_2" style="mask-type:luminance" maskUnits="userSpaceOnUse" x="-82" y="-66" width="393" height="222">
<path d="M-81.5649 -65.6341H310.808V155.076H-81.5649V-65.6341Z" fill="white"/>
</mask>
<g mask="url(#mask8_701_2)">
<path d="M130.799 71.0117V62.3997H135.612V63.3524H131.885V66.0424H135.117V66.9831H131.885V70.0587H135.877L135.515 71.0117H130.799Z" fill="#0B335E"/>
</g>
<mask id="mask9_701_2" style="mask-type:luminance" maskUnits="userSpaceOnUse" x="-82" y="-66" width="393" height="222">
<path d="M-81.5649 -65.6341H310.808V155.076H-81.5649V-65.6341Z" fill="white"/>
</mask>
<g mask="url(#mask9_701_2)">
<path d="M142.841 71.0117L138.233 63.8592H138.185C138.221 64.4259 138.281 65.3186 138.281 66.199V71.0117H137.28V62.3997H138.535L143.13 69.528H143.178C143.154 69.1422 143.094 68.0443 143.094 67.2606V62.3997H144.107V71.0117H142.841Z" fill="#0B335E"/>
</g>
<mask id="mask10_701_2" style="mask-type:luminance" maskUnits="userSpaceOnUse" x="-82" y="-66" width="393" height="222">
<path d="M-81.5649 -65.6341H310.808V155.076H-81.5649V-65.6341Z" fill="white"/>
</mask>
<g mask="url(#mask10_701_2)">
<path d="M148.052 71.0117V63.3524H145.362L145.724 62.3997H151.815V63.3524H149.137V71.0117H148.052Z" fill="#0B335E"/>
</g>
<mask id="mask11_701_2" style="mask-type:luminance" maskUnits="userSpaceOnUse" x="-82" y="-66" width="393" height="222">
<path d="M-81.5649 -65.6341H310.808V155.076H-81.5649V-65.6341Z" fill="white"/>
</mask>
<g mask="url(#mask11_701_2)">
<path d="M156.361 70.1914C158.316 70.1914 159.184 68.8647 159.184 66.6936C159.184 64.5227 158.316 63.2199 156.373 63.2199C154.419 63.2199 153.527 64.5227 153.527 66.6936C153.527 68.8647 154.419 70.1914 156.361 70.1914ZM156.361 71.1323C153.672 71.1323 152.381 69.3472 152.381 66.6815C152.381 64.04 153.672 62.2671 156.373 62.2671C158.955 62.2671 160.33 64.0159 160.33 66.6936C160.33 69.3593 158.955 71.1323 156.361 71.1323Z" fill="#0B335E"/>
</g>
<mask id="mask12_701_2" style="mask-type:luminance" maskUnits="userSpaceOnUse" x="-82" y="-66" width="393" height="222">
<path d="M-81.5649 -65.6341H310.808V155.076H-81.5649V-65.6341Z" fill="white"/>
</mask>
<g mask="url(#mask12_701_2)">
<path d="M167.989 63.3284H166.578V70.0829H167.748C170.076 70.0829 171.246 68.925 171.246 66.6574C171.246 64.3657 170.064 63.3284 167.989 63.3284ZM167.893 71.0117H165.492V62.3997H168.146C170.739 62.3997 172.392 63.8593 172.392 66.6212C172.392 69.5281 170.727 71.0117 167.893 71.0117Z" fill="#0B335E"/>
</g>
<mask id="mask13_701_2" style="mask-type:luminance" maskUnits="userSpaceOnUse" x="-82" y="-66" width="393" height="222">
<path d="M-81.5649 -65.6341H310.808V155.076H-81.5649V-65.6341Z" fill="white"/>
</mask>
<g mask="url(#mask13_701_2)">
<path d="M174.126 71.0117V62.3997H178.938V63.3524H175.211V66.0424H178.444V66.9831H175.211V70.0587H179.204L178.842 71.0117H174.126Z" fill="#0B335E"/>
</g>
<mask id="mask14_701_2" style="mask-type:luminance" maskUnits="userSpaceOnUse" x="-82" y="-66" width="393" height="222">
<path d="M-81.5649 -65.6341H310.808V155.076H-81.5649V-65.6341Z" fill="white"/>
</mask>
<g mask="url(#mask14_701_2)">
<path d="M189.649 71.0117L185.042 63.8592H184.994C185.03 64.4259 185.09 65.3186 185.09 66.199V71.0117H184.089V62.3997H185.343L189.939 69.528H189.987C189.963 69.1422 189.903 68.0443 189.903 67.2606V62.3997H190.916V71.0117H189.649Z" fill="#0B335E"/>
</g>
<mask id="mask15_701_2" style="mask-type:luminance" maskUnits="userSpaceOnUse" x="-82" y="-66" width="393" height="222">
<path d="M-81.5649 -65.6341H310.808V155.076H-81.5649V-65.6341Z" fill="white"/>
</mask>
<g mask="url(#mask15_701_2)">
<path d="M193.061 71.0117V62.3997H197.873V63.3524H194.146V66.0424H197.379V66.9831H194.146V70.0587H198.139L197.777 71.0117H193.061Z" fill="#0B335E"/>
</g>
<mask id="mask16_701_2" style="mask-type:luminance" maskUnits="userSpaceOnUse" x="-82" y="-66" width="393" height="222">
<path d="M-81.5649 -65.6341H310.808V155.076H-81.5649V-65.6341Z" fill="white"/>
</mask>
<g mask="url(#mask16_701_2)">
<path d="M206.085 66.4645V70.6859C205.157 70.9876 204.264 71.1323 203.058 71.1323C200.38 71.1323 198.933 69.4318 198.933 66.7058C198.933 64.016 200.573 62.2791 203.396 62.2791C204.361 62.2791 205.229 62.4721 205.965 62.7858L205.603 63.7385C204.988 63.4732 204.156 63.2321 203.335 63.2321C201.273 63.2321 200.067 64.5588 200.067 66.7058C200.067 68.7682 200.995 70.1914 203.311 70.1914C204.071 70.1914 204.566 70.0951 205 69.9864V67.4294H203.106L203.468 66.4645H206.085Z" fill="#0B335E"/>
</g>
<mask id="mask17_701_2" style="mask-type:luminance" maskUnits="userSpaceOnUse" x="-82" y="-66" width="393" height="222">
<path d="M-81.5649 -65.6341H310.808V155.076H-81.5649V-65.6341Z" fill="white"/>
</mask>
<g mask="url(#mask17_701_2)">
<path d="M213.208 59.7461C212.906 60.1926 212.05 61.1212 211.484 61.5555H210.784V61.4108C211.134 60.9645 211.652 60.1683 211.93 59.6255H213.208V59.7461ZM211.508 70.1914C213.462 70.1914 214.33 68.8647 214.33 66.6935C214.33 64.5226 213.462 63.2198 211.519 63.2198C209.566 63.2198 208.673 64.5226 208.673 66.6935C208.673 68.8647 209.566 70.1914 211.508 70.1914ZM211.508 71.1323C208.818 71.1323 207.527 69.3472 207.527 66.6817C207.527 64.0401 208.818 62.2671 211.519 62.2671C214.101 62.2671 215.476 64.016 215.476 66.6935C215.476 69.3592 214.101 71.1323 211.508 71.1323Z" fill="#0B335E"/>
</g>
<mask id="mask18_701_2" style="mask-type:luminance" maskUnits="userSpaceOnUse" x="-82" y="-66" width="393" height="222">
<path d="M-81.5649 -65.6341H310.808V155.076H-81.5649V-65.6341Z" fill="white"/>
</mask>
<g mask="url(#mask18_701_2)">
<path d="M217.966 66.7057C217.966 68.8405 218.955 70.1795 220.933 70.1795C221.681 70.1795 222.598 70.0107 223.152 69.7452L223.466 70.5774C222.501 71.0237 221.862 71.1322 220.776 71.1322C218.135 71.1322 216.82 69.4076 216.82 66.6935C216.82 64.0883 218.292 62.2791 220.957 62.2791C221.838 62.2791 222.61 62.424 223.261 62.7495L222.899 63.7025C222.368 63.4611 221.717 63.232 220.945 63.232C219.1 63.232 217.966 64.5467 217.966 66.7057Z" fill="#0B335E"/>
</g>
<mask id="mask19_701_2" style="mask-type:luminance" maskUnits="userSpaceOnUse" x="-82" y="-66" width="393" height="222">
<path d="M-81.5649 -65.6341H310.808V155.076H-81.5649V-65.6341Z" fill="white"/>
</mask>
<g mask="url(#mask19_701_2)">
<path d="M224.413 71.0117L224.775 70.0467H225.427V63.3524H224.413V62.3997H227.525L227.163 63.3524H226.512V70.0467H227.525V71.0117H224.413Z" fill="#0B335E"/>
</g>
<mask id="mask20_701_2" style="mask-type:luminance" maskUnits="userSpaceOnUse" x="-82" y="-66" width="393" height="222">
<path d="M-81.5649 -65.6341H310.808V155.076H-81.5649V-65.6341Z" fill="white"/>
</mask>
<g mask="url(#mask20_701_2)">
<path d="M232.416 70.1914C234.37 70.1914 235.239 68.8647 235.239 66.6936C235.239 64.5227 234.37 63.2199 232.428 63.2199C230.474 63.2199 229.582 64.5227 229.582 66.6936C229.582 68.8647 230.474 70.1914 232.416 70.1914ZM232.416 71.1323C229.727 71.1323 228.436 69.3472 228.436 66.6815C228.436 64.04 229.727 62.2671 232.428 62.2671C235.009 62.2671 236.385 64.0159 236.385 66.6936C236.385 69.3593 235.009 71.1323 232.416 71.1323Z" fill="#0B335E"/>
</g>
<mask id="mask21_701_2" style="mask-type:luminance" maskUnits="userSpaceOnUse" x="-82" y="-66" width="393" height="222">
<path d="M-81.5649 -65.6341H310.808V155.076H-81.5649V-65.6341Z" fill="white"/>
</mask>
<g mask="url(#mask21_701_2)">
<path d="M239.924 71.1322C238.959 71.1322 238.103 70.9875 237.56 70.722L237.898 69.8296C238.272 69.9984 239.056 70.1913 239.972 70.1913C241.251 70.1913 241.914 69.6608 241.914 68.8043C241.914 67.9601 241.444 67.5982 239.888 67.0315C238.416 66.5006 237.669 65.8131 237.669 64.4743C237.669 63.1112 238.79 62.2791 240.419 62.2791C241.359 62.2791 242.143 62.472 242.795 62.7616L242.445 63.6902C241.842 63.437 241.142 63.232 240.395 63.232C239.321 63.232 238.766 63.7384 238.766 64.4862C238.766 65.3547 239.249 65.7044 240.648 66.2232C242.168 66.7901 243 67.3568 243 68.7079C243 70.2398 241.806 71.1322 239.924 71.1322Z" fill="#0B335E"/>
</g>
<mask id="mask22_701_2" style="mask-type:luminance" maskUnits="userSpaceOnUse" x="-82" y="-66" width="393" height="222">
<path d="M-81.5649 -65.6341H310.808V155.076H-81.5649V-65.6341Z" fill="white"/>
</mask>
<g mask="url(#mask22_701_2)">
<path d="M69.2114 27.932L69.8543 26.2178H71.0112V14.3267H69.2114V12.6339H74.7394L74.0963 14.3267H72.9396V26.2178H74.7394V27.932H69.2114Z" fill="#0B335E"/>
</g>
<mask id="mask23_701_2" style="mask-type:luminance" maskUnits="userSpaceOnUse" x="-82" y="-66" width="393" height="222">
<path d="M-81.5649 -65.6341H310.808V155.076H-81.5649V-65.6341Z" fill="white"/>
</mask>
<g mask="url(#mask23_701_2)">
<path d="M83.0945 20.1116C83.0945 18.4403 82.3018 17.6047 80.7378 17.6047C79.1736 17.6047 78.3811 18.4618 78.3811 20.1329C78.3811 21.7185 79.1736 22.5112 80.7591 22.5112C82.3235 22.5112 83.0945 21.697 83.0945 20.1116ZM84.3801 29.3033C84.3801 28.6821 84.2087 28.2748 83.866 28.0604C83.5016 27.8465 82.8162 27.7392 81.7876 27.7392H79.8164C78.2095 27.7392 77.4168 28.4248 77.4168 29.8175C77.4168 31.0173 78.3595 31.6386 80.2451 31.6386C83.0089 31.6386 84.3801 30.8673 84.3801 29.3033ZM75.6169 29.8819C75.6169 28.4033 76.4526 27.4606 78.1238 27.0535C77.4597 26.7321 77.1167 26.1752 77.1167 25.4464C77.1167 24.6539 77.5882 23.9898 78.5095 23.4327C77.2024 22.897 76.5167 21.5258 76.5167 20.1972C76.5167 17.5189 78.188 16.2334 80.802 16.2334C81.402 16.2334 81.9162 16.2978 82.3662 16.4476H86.33L85.7727 17.9047H84.2733C84.7231 18.5047 84.9587 19.2545 84.9587 20.1329C84.9587 22.5112 83.2231 23.8183 80.7378 23.8183C80.352 23.8183 80.0522 23.7968 79.8378 23.7539C79.1307 24.1396 78.7882 24.611 78.7882 25.1466C78.7882 25.7252 79.3666 26.0252 80.4805 26.0252H82.4303C84.7443 26.0252 86.18 27.075 86.18 29.1319C86.18 31.7671 84.2087 33.0742 80.2664 33.0742C77.5882 33.0742 75.6169 32.153 75.6169 29.8819Z" fill="#0B335E"/>
</g>
<mask id="mask24_701_2" style="mask-type:luminance" maskUnits="userSpaceOnUse" x="-82" y="-66" width="393" height="222">
<path d="M-81.5649 -65.6341H310.808V155.076H-81.5649V-65.6341Z" fill="white"/>
</mask>
<g mask="url(#mask24_701_2)">
<path d="M94.8569 16.362L94.6211 18.0975C94.2569 18.0119 93.764 17.9477 93.3786 17.9477C91.6 17.9477 90.0361 19.4902 90.0361 21.8042V27.9319H88.1506V16.4477H89.6932L89.9075 18.5475H89.9932C90.7217 17.2833 91.9 16.2335 93.5071 16.2335C93.9355 16.2335 94.4711 16.2762 94.8569 16.362Z" fill="#0B335E"/>
</g>
<mask id="mask25_701_2" style="mask-type:luminance" maskUnits="userSpaceOnUse" x="-82" y="-66" width="393" height="222">
<path d="M-81.5649 -65.6341H310.808V155.076H-81.5649V-65.6341Z" fill="white"/>
</mask>
<g mask="url(#mask25_701_2)">
<path d="M97.0633 21.0544H102.913C102.891 19.1046 102.034 17.7763 100.127 17.7763C98.3277 17.7763 97.2562 18.9975 97.0633 21.0544ZM104.884 21.4186V22.5542H97.0204C97.0845 25.1465 98.3918 26.5395 100.684 26.5395C101.799 26.5395 102.934 26.3251 103.834 25.9822L104.369 27.3964C103.191 27.9107 102.162 28.1464 100.599 28.1464C97.3206 28.1464 95.0706 26.1107 95.0706 22.2757C95.0706 18.5046 97.1062 16.2335 100.149 16.2335C103.084 16.2335 104.884 18.2904 104.884 21.4186Z" fill="#0B335E"/>
</g>
<mask id="mask26_701_2" style="mask-type:luminance" maskUnits="userSpaceOnUse" x="-82" y="-66" width="393" height="222">
<path d="M-81.5649 -65.6341H310.808V155.076H-81.5649V-65.6341Z" fill="white"/>
</mask>
<g mask="url(#mask26_701_2)">
<path d="M107.968 12.1411C108.547 12.1411 109.061 12.5053 109.061 13.3409C109.061 14.1551 108.547 14.5407 107.968 14.5407C107.347 14.5407 106.854 14.1551 106.854 13.3409C106.854 12.5053 107.347 12.1411 107.968 12.1411ZM105.504 31.51C106.726 30.9532 107.004 30.1388 107.004 28.1033V16.4476H108.89V28.2106C108.89 30.4602 108.29 32.2386 106.104 33.0742L105.504 31.51Z" fill="#0B335E"/>
</g>
<mask id="mask27_701_2" style="mask-type:luminance" maskUnits="userSpaceOnUse" x="-82" y="-66" width="393" height="222">
<path d="M-81.5649 -65.6341H310.808V155.076H-81.5649V-65.6341Z" fill="white"/>
</mask>
<g mask="url(#mask27_701_2)">
<path d="M116.581 22.3828C113.71 22.4899 112.788 23.304 112.788 24.7611C112.788 26.0466 113.646 26.6251 114.888 26.6251C116.816 26.6251 118.274 25.5751 118.274 23.3469V22.3186L116.581 22.3828ZM120.138 20.1117V27.932H118.766L118.402 26.3038H118.316C117.309 27.5678 116.388 28.1464 114.46 28.1464C112.382 28.1464 110.839 27.0751 110.839 24.7395C110.839 22.4469 112.596 21.183 116.345 21.0757L118.295 21.0115V20.3259C118.295 18.419 117.417 17.7763 115.917 17.7763C114.717 17.7763 113.624 18.2048 112.681 18.6546L112.103 17.2406C113.11 16.705 114.524 16.255 116.024 16.255C118.809 16.255 120.138 17.4333 120.138 20.1117Z" fill="#0B335E"/>
</g>
<mask id="mask28_701_2" style="mask-type:luminance" maskUnits="userSpaceOnUse" x="-82" y="-66" width="393" height="222">
<path d="M-81.5649 -65.6341H310.808V155.076H-81.5649V-65.6341Z" fill="white"/>
</mask>
<g mask="url(#mask28_701_2)">
<path d="M134.128 16.8548C133.999 16.5119 133.549 15.0979 133.399 14.5623C133.185 15.4406 132.906 16.3621 132.735 16.8548L130.999 21.4828H135.842L134.128 16.8548ZM136.42 23.197H130.357L128.536 27.932H126.586L132.564 12.5696H134.299L140.255 27.932H138.263L136.42 23.197Z" fill="#0B335E"/>
</g>
<mask id="mask29_701_2" style="mask-type:luminance" maskUnits="userSpaceOnUse" x="-82" y="-66" width="393" height="222">
<path d="M-81.5649 -65.6341H310.808V155.076H-81.5649V-65.6341Z" fill="white"/>
</mask>
<g mask="url(#mask29_701_2)">
<path d="M148.932 22.5755V22.2326C148.932 19.3832 148.161 17.7976 145.611 17.7976C143.575 17.7976 142.568 19.533 142.568 22.2543C142.568 24.9968 143.575 26.582 145.632 26.582C148.053 26.582 148.932 25.2537 148.932 22.5755ZM140.619 22.2114C140.619 18.269 142.504 16.2336 145.354 16.2336C147.132 16.2336 148.204 16.9834 148.911 17.9261H149.039C148.996 17.562 148.911 16.6619 148.911 16.2336V12.3769L150.796 11.6484V27.932H149.275L148.996 26.3893H148.911C148.225 27.375 147.132 28.1464 145.332 28.1464C142.483 28.1464 140.619 26.1537 140.619 22.2114Z" fill="#0B335E"/>
</g>
<mask id="mask30_701_2" style="mask-type:luminance" maskUnits="userSpaceOnUse" x="-82" y="-66" width="393" height="222">
<path d="M-81.5649 -65.6341H310.808V155.076H-81.5649V-65.6341Z" fill="white"/>
</mask>
<g mask="url(#mask30_701_2)">
<path d="M152.359 16.4477H154.373L156.816 23.2184C157.159 24.1611 157.609 25.5538 157.737 26.2609H157.823C157.973 25.5538 158.466 24.1396 158.787 23.2184L161.23 16.4477H163.244L158.873 27.9319H156.709L152.359 16.4477Z" fill="#0B335E"/>
</g>
<mask id="mask31_701_2" style="mask-type:luminance" maskUnits="userSpaceOnUse" x="-82" y="-66" width="393" height="222">
<path d="M-81.5649 -65.6341H310.808V155.076H-81.5649V-65.6341Z" fill="white"/>
</mask>
<g mask="url(#mask31_701_2)">
<path d="M165.921 21.0544H171.771C171.749 19.1046 170.892 17.7763 168.985 17.7763C167.186 17.7763 166.114 18.9975 165.921 21.0544ZM173.742 21.4186V22.5542H165.879C165.943 25.1465 167.25 26.5395 169.542 26.5395C170.656 26.5395 171.792 26.3251 172.692 25.9822L173.228 27.3964C172.049 27.9107 171.021 28.1464 169.457 28.1464C166.179 28.1464 163.929 26.1107 163.929 22.2757C163.929 18.5046 165.964 16.2335 169.007 16.2335C171.942 16.2335 173.742 18.2904 173.742 21.4186Z" fill="#0B335E"/>
</g>
<mask id="mask32_701_2" style="mask-type:luminance" maskUnits="userSpaceOnUse" x="-82" y="-66" width="393" height="222">
<path d="M-81.5649 -65.6341H310.808V155.076H-81.5649V-65.6341Z" fill="white"/>
</mask>
<g mask="url(#mask32_701_2)">
<path d="M185.461 20.4545V27.9321H183.597V20.583C183.597 18.7403 182.783 17.8191 181.026 17.8191C178.476 17.8191 177.662 19.2974 177.662 21.9756V27.9321H175.776V16.4478H177.298L177.576 18.012H177.683C178.433 16.812 179.847 16.2336 181.304 16.2336C184.047 16.2336 185.461 17.4976 185.461 20.4545Z" fill="#0B335E"/>
</g>
<mask id="mask33_701_2" style="mask-type:luminance" maskUnits="userSpaceOnUse" x="-82" y="-66" width="393" height="222">
<path d="M-81.5649 -65.6341H310.808V155.076H-81.5649V-65.6341Z" fill="white"/>
</mask>
<g mask="url(#mask33_701_2)">
<path d="M193.131 26.325L193.645 27.6748C193.238 27.9319 192.423 28.1463 191.545 28.1463C189.745 28.1463 188.181 27.375 188.181 24.5896V14.5193L190.067 13.8122V16.4477H193.388V17.9047H190.067V24.5467C190.067 25.9394 190.817 26.6036 191.866 26.6036C192.295 26.6036 192.873 26.4536 193.131 26.325Z" fill="#0B335E"/>
</g>
<mask id="mask34_701_2" style="mask-type:luminance" maskUnits="userSpaceOnUse" x="-82" y="-66" width="393" height="222">
<path d="M-81.5649 -65.6341H310.808V155.076H-81.5649V-65.6341Z" fill="white"/>
</mask>
<g mask="url(#mask34_701_2)">
<path d="M197.651 27.932H195.765V16.4477H197.651V27.932ZM197.822 13.341C197.822 14.1552 197.308 14.5408 196.729 14.5408C196.108 14.5408 195.615 14.1552 195.615 13.341C195.615 12.5054 196.108 12.1412 196.729 12.1412C197.308 12.1412 197.822 12.5054 197.822 13.341Z" fill="#0B335E"/>
</g>
<mask id="mask35_701_2" style="mask-type:luminance" maskUnits="userSpaceOnUse" x="-82" y="-66" width="393" height="222">
<path d="M-81.5649 -65.6341H310.808V155.076H-81.5649V-65.6341Z" fill="white"/>
</mask>
<g mask="url(#mask35_701_2)">
<path d="M203.757 28.1464C202.15 28.1464 201.036 27.8891 200.157 27.4178L200.714 25.9609C201.464 26.2822 202.707 26.6251 203.8 26.6251C205.707 26.6251 206.521 25.9609 206.521 24.9324C206.521 24.0753 205.942 23.5611 203.693 22.704C201.464 21.8471 200.136 21.1613 200.136 19.2761C200.136 17.3263 201.871 16.2335 204.442 16.2335C205.835 16.2335 207.035 16.5335 208.106 17.0048L207.528 18.5261C206.542 18.0975 205.428 17.7763 204.314 17.7763C202.771 17.7763 201.936 18.3119 201.936 19.1688C201.936 20.133 202.686 20.5188 204.893 21.3544C207.078 22.1684 208.342 22.9184 208.342 24.7611C208.342 26.9893 206.564 28.1464 203.757 28.1464Z" fill="#0B335E"/>
</g>
<mask id="mask36_701_2" style="mask-type:luminance" maskUnits="userSpaceOnUse" x="-82" y="-66" width="393" height="222">
<path d="M-81.5649 -65.6341H310.808V155.076H-81.5649V-65.6341Z" fill="white"/>
</mask>
<g mask="url(#mask36_701_2)">
<path d="M215.605 26.325L216.119 27.6748C215.712 27.9319 214.898 28.1463 214.019 28.1463C212.219 28.1463 210.655 27.375 210.655 24.5896V14.5193L212.541 13.8122V16.4477H215.862V17.9047H212.541V24.5467C212.541 25.9394 213.291 26.6036 214.341 26.6036C214.769 26.6036 215.348 26.4536 215.605 26.325Z" fill="#0B335E"/>
</g>
<mask id="mask37_701_2" style="mask-type:luminance" maskUnits="userSpaceOnUse" x="-82" y="-66" width="393" height="222">
<path d="M-81.5649 -65.6341H310.808V155.076H-81.5649V-65.6341Z" fill="white"/>
</mask>
<g mask="url(#mask37_701_2)">
<path d="M222.717 22.3828C219.846 22.4899 218.925 23.304 218.925 24.7611C218.925 26.0466 219.782 26.6251 221.025 26.6251C222.953 26.6251 224.41 25.5751 224.41 23.3469V22.3186L222.717 22.3828ZM226.274 20.1117V27.932H224.903L224.539 26.3038H224.453C223.446 27.5678 222.525 28.1464 220.596 28.1464C218.518 28.1464 216.975 27.0751 216.975 24.7395C216.975 22.4469 218.732 21.183 222.482 21.0757L224.432 21.0115V20.3259C224.432 18.419 223.553 17.7763 222.053 17.7763C220.854 17.7763 219.761 18.2048 218.818 18.6546L218.24 17.2406C219.247 16.705 220.661 16.255 222.16 16.255C224.946 16.255 226.274 17.4333 226.274 20.1117Z" fill="#0B335E"/>
</g>
<mask id="mask38_701_2" style="mask-type:luminance" maskUnits="userSpaceOnUse" x="-82" y="-66" width="393" height="222">
<path d="M-81.5649 -65.6341H310.808V155.076H-81.5649V-65.6341Z" fill="white"/>
</mask>
<g mask="url(#mask38_701_2)">
<path d="M76.9888 45.5514V45.2085C76.9888 42.359 76.2177 40.7734 73.6679 40.7734C71.6325 40.7734 70.6254 42.5088 70.6254 45.2301C70.6254 47.9726 71.6325 49.5579 73.6894 49.5579C76.1104 49.5579 76.9888 48.2295 76.9888 45.5514ZM68.6758 45.1872C68.6758 41.2449 70.5612 39.2094 73.4108 39.2094C75.189 39.2094 76.2604 39.9592 76.9675 40.902H77.0961C77.0532 40.5378 76.9675 39.6378 76.9675 39.2094V35.3527L78.853 34.6242V50.9079H77.3317L77.0532 49.3652H76.9675C76.2819 50.3508 75.189 51.1223 73.3894 51.1223C70.5398 51.1223 68.6758 49.1295 68.6758 45.1872Z" fill="#0B335E"/>
</g>
<mask id="mask39_701_2" style="mask-type:luminance" maskUnits="userSpaceOnUse" x="-82" y="-66" width="393" height="222">
<path d="M-81.5649 -65.6341H310.808V155.076H-81.5649V-65.6341Z" fill="white"/>
</mask>
<g mask="url(#mask39_701_2)">
<path d="M86.0944 49.558C88.4083 49.558 89.4581 47.8654 89.4581 45.1442C89.4581 42.4233 88.4083 40.7947 86.0731 40.7947C83.7377 40.7947 82.7306 42.4233 82.7306 45.1442C82.7306 47.8654 83.7587 49.558 86.0944 49.558ZM86.0514 51.1221C83.0089 51.1221 80.7808 48.9579 80.7808 45.1442C80.7808 41.352 82.8162 39.2093 86.1156 39.2093C89.2227 39.2093 91.4079 41.352 91.4079 45.1442C91.4079 48.9579 89.3296 51.1221 86.0514 51.1221Z" fill="#0B335E"/>
</g>
<mask id="mask40_701_2" style="mask-type:luminance" maskUnits="userSpaceOnUse" x="-82" y="-66" width="393" height="222">
<path d="M-81.5649 -65.6341H310.808V155.076H-81.5649V-65.6341Z" fill="white"/>
</mask>
<g mask="url(#mask40_701_2)">
<path d="M101.713 51.1222C99.9984 51.1222 98.4772 50.8649 97.5132 50.3936L98.1132 48.8082C98.7774 49.1082 100.17 49.4509 101.798 49.4509C104.069 49.4509 105.248 48.5082 105.248 46.9869C105.248 45.4871 104.412 44.8442 101.648 43.8373C99.0344 42.8946 97.7061 41.6734 97.7061 39.295C97.7061 36.8739 99.6986 35.3956 102.591 35.3956C104.262 35.3956 105.655 35.7385 106.812 36.2525L106.191 37.9025C105.119 37.4523 103.877 37.0881 102.548 37.0881C100.641 37.0881 99.6559 37.9879 99.6559 39.3165C99.6559 40.859 100.513 41.4804 102.998 42.4017C105.698 43.4088 107.176 44.4159 107.176 46.8155C107.176 49.5366 105.055 51.1222 101.713 51.1222Z" fill="#0B335E"/>
</g>
<mask id="mask41_701_2" style="mask-type:luminance" maskUnits="userSpaceOnUse" x="-82" y="-66" width="393" height="222">
<path d="M-81.5649 -65.6341H310.808V155.076H-81.5649V-65.6341Z" fill="white"/>
</mask>
<g mask="url(#mask41_701_2)">
<path d="M116.453 34.7098C115.917 35.5027 114.396 37.1523 113.389 37.9238H112.147V37.6667C112.768 36.874 113.689 35.4598 114.182 34.4956H116.453V34.7098ZM110.497 44.0301H116.346C116.324 42.0803 115.468 40.752 113.561 40.752C111.761 40.752 110.69 41.9732 110.497 44.0301ZM118.317 44.3945V45.5299H110.454C110.518 48.1224 111.825 49.5152 114.118 49.5152C115.232 49.5152 116.367 49.3008 117.267 48.9581L117.803 50.3722C116.625 50.8864 115.596 51.1223 114.032 51.1223C110.754 51.1223 108.504 49.0866 108.504 45.2514C108.504 41.4805 110.54 39.2094 113.582 39.2094C116.517 39.2094 118.317 41.2661 118.317 44.3945Z" fill="#0B335E"/>
</g>
<mask id="mask42_701_2" style="mask-type:luminance" maskUnits="userSpaceOnUse" x="-82" y="-66" width="393" height="222">
<path d="M-81.5649 -65.6341H310.808V155.076H-81.5649V-65.6341Z" fill="white"/>
</mask>
<g mask="url(#mask42_701_2)">
<path d="M125.28 49.3009L125.794 50.6507C125.387 50.9078 124.573 51.1222 123.694 51.1222C121.895 51.1222 120.33 50.3509 120.33 47.5655V37.4952L122.216 36.7881V39.4235H125.537V40.8806H122.216V47.5226C122.216 48.9153 122.966 49.5795 124.016 49.5795C124.444 49.5795 125.023 49.4295 125.28 49.3009Z" fill="#0B335E"/>
</g>
<mask id="mask43_701_2" style="mask-type:luminance" maskUnits="userSpaceOnUse" x="-82" y="-66" width="393" height="222">
<path d="M-81.5649 -65.6341H310.808V155.076H-81.5649V-65.6341Z" fill="white"/>
</mask>
<g mask="url(#mask43_701_2)">
<path d="M129.8 50.9079H127.914V39.4236H129.8V50.9079ZM129.971 36.3167C129.971 37.1311 129.457 37.5165 128.879 37.5165C128.257 37.5165 127.765 37.1311 127.765 36.3167C127.765 35.4813 128.257 35.1169 128.879 35.1169C129.457 35.1169 129.971 35.4813 129.971 36.3167Z" fill="#0B335E"/>
</g>
<mask id="mask44_701_2" style="mask-type:luminance" maskUnits="userSpaceOnUse" x="-82" y="-66" width="393" height="222">
<path d="M-81.5649 -65.6341H310.808V155.076H-81.5649V-65.6341Z" fill="white"/>
</mask>
<g mask="url(#mask44_701_2)">
<path d="M149.404 43.4303V50.9079H147.54V43.516C147.54 41.7161 146.79 40.7949 145.205 40.7949C142.977 40.7949 142.098 42.1232 142.098 44.566V50.9079H140.234V43.516C140.234 41.7161 139.484 40.7949 137.877 40.7949C135.563 40.7949 134.814 42.2732 134.814 44.9514V50.9079H132.928V39.4236H134.449L134.728 40.9878H134.835C135.542 39.7878 136.849 39.2095 138.22 39.2095C139.977 39.2095 141.177 39.8307 141.734 41.1376H141.841C142.612 39.8307 144.027 39.2095 145.526 39.2095C148.119 39.2095 149.404 40.4734 149.404 43.4303Z" fill="#0B335E"/>
</g>
<mask id="mask45_701_2" style="mask-type:luminance" maskUnits="userSpaceOnUse" x="-82" y="-66" width="393" height="222">
<path d="M-81.5649 -65.6341H310.808V155.076H-81.5649V-65.6341Z" fill="white"/>
</mask>
<g mask="url(#mask45_701_2)">
<path d="M156.774 49.558C159.088 49.558 160.138 47.8654 160.138 45.1442C160.138 42.4233 159.088 40.7947 156.753 40.7947C154.417 40.7947 153.41 42.4233 153.41 45.1442C153.41 47.8654 154.439 49.558 156.774 49.558ZM156.731 51.1221C153.689 51.1221 151.46 48.9579 151.46 45.1442C151.46 41.352 153.496 39.2093 156.795 39.2093C159.902 39.2093 162.088 41.352 162.088 45.1442C162.088 48.9579 160.009 51.1221 156.731 51.1221Z" fill="#0B335E"/>
</g>
<mask id="mask46_701_2" style="mask-type:luminance" maskUnits="userSpaceOnUse" x="-82" y="-66" width="393" height="222">
<path d="M-81.5649 -65.6341H310.808V155.076H-81.5649V-65.6341Z" fill="white"/>
</mask>
<g mask="url(#mask46_701_2)">
<path d="M173.614 37.2596H171.107V49.258H173.185C177.32 49.258 179.399 47.2011 179.399 43.1732C179.399 39.1023 177.299 37.2596 173.614 37.2596ZM173.442 50.9078H169.178V35.6098H173.892C178.499 35.6098 181.434 38.2023 181.434 43.1088C181.434 48.2726 178.477 50.9078 173.442 50.9078Z" fill="#0B335E"/>
</g>
<mask id="mask47_701_2" style="mask-type:luminance" maskUnits="userSpaceOnUse" x="-82" y="-66" width="393" height="222">
<path d="M-81.5649 -65.6341H310.808V155.076H-81.5649V-65.6341Z" fill="white"/>
</mask>
<g mask="url(#mask47_701_2)">
<path d="M185.59 50.9079H183.704V39.4236H185.59V50.9079ZM185.761 36.3167C185.761 37.1311 185.247 37.5165 184.669 37.5165C184.047 37.5165 183.554 37.1311 183.554 36.3167C183.554 35.4813 184.047 35.1169 184.669 35.1169C185.247 35.1169 185.761 35.4813 185.761 36.3167Z" fill="#0B335E"/>
</g>
<mask id="mask48_701_2" style="mask-type:luminance" maskUnits="userSpaceOnUse" x="-82" y="-66" width="393" height="222">
<path d="M-81.5649 -65.6341H310.808V155.076H-81.5649V-65.6341Z" fill="white"/>
</mask>
<g mask="url(#mask48_701_2)">
<path d="M193.281 45.3585C190.41 45.4656 189.489 46.2798 189.489 47.7369C189.489 49.0223 190.346 49.6009 191.589 49.6009C193.517 49.6009 194.974 48.5509 194.974 46.3227V45.2944L193.281 45.3585ZM196.838 43.0875V50.9078H195.467L195.103 49.2796H195.017C194.01 50.5436 193.089 51.1221 191.16 51.1221C189.082 51.1221 187.539 50.0509 187.539 47.7152C187.539 45.4227 189.296 44.1587 193.046 44.0514L194.996 43.9873V43.3016C194.996 41.3948 194.117 40.752 192.617 40.752C191.417 40.752 190.325 41.1806 189.382 41.6304L188.803 40.2164C189.811 39.6808 191.225 39.2308 192.724 39.2308C195.51 39.2308 196.838 40.4091 196.838 43.0875Z" fill="#0B335E"/>
</g>
<mask id="mask49_701_2" style="mask-type:luminance" maskUnits="userSpaceOnUse" x="-82" y="-66" width="393" height="222">
<path d="M-81.5649 -65.6341H310.808V155.076H-81.5649V-65.6341Z" fill="white"/>
</mask>
<g mask="url(#mask49_701_2)">
<path d="M198.659 36.2096C198.851 36.2096 198.98 36.1028 198.98 35.9313C198.98 35.7598 198.873 35.674 198.659 35.674H198.466V36.2096H198.659ZM198.166 35.4169H198.659C199.087 35.4169 199.28 35.5884 199.28 35.9313C199.28 36.1669 199.13 36.2955 198.98 36.3596L199.43 37.1096H199.087L198.701 36.4453H198.466V37.1096H198.166V35.4169ZM199.901 36.274C199.901 35.6096 199.408 35.0528 198.701 35.0528C197.994 35.0528 197.502 35.5669 197.502 36.274C197.502 36.9382 197.994 37.474 198.701 37.474C199.366 37.474 199.901 36.9809 199.901 36.274ZM197.287 36.274C197.287 35.4386 197.866 34.8384 198.701 34.8384C199.494 34.8384 200.116 35.4386 200.116 36.274C200.116 37.0882 199.516 37.688 198.701 37.688C197.866 37.688 197.287 37.0882 197.287 36.274Z" fill="#0B335E"/>
</g>
<mask id="mask50_701_2" style="mask-type:luminance" maskUnits="userSpaceOnUse" x="-82" y="-66" width="393" height="222">
<path d="M-81.5649 -65.4808H310.808V155.229H-81.5649V-65.4808Z" fill="white"/>
</mask>
<g mask="url(#mask50_701_2)">
<path d="M29.4814 47.7506C29.4814 47.9578 29.7189 47.9586 29.7616 47.7506C30.0771 46.2199 30.5566 45.1995 31.3062 44.2088L29.6208 44.2098C29.5438 44.2098 29.4814 44.2722 29.4814 44.3492V47.7506ZM41.8577 26.5036C41.7885 26.2798 41.5947 26.2649 41.5968 26.4995C41.6158 28.7125 40.9792 30.6141 36.94 34.6535L33.745 37.8458C32.291 39.2998 30.9837 40.6278 30.211 41.9545H33.3661C33.4871 41.8333 33.6112 41.7095 33.7393 41.5811L38.3231 36.9928C42.1404 33.1756 42.6727 29.1374 41.8577 26.5036ZM37.5741 40.0018L33.745 43.8338C31.4274 46.1515 29.4814 48.1485 29.4814 50.3323L29.4837 50.9405C29.4837 51.1056 29.6891 51.1315 29.7522 50.9586C30.4677 49.0037 32.8585 46.9166 37.2439 47.6564C37.2439 47.6564 56.3484 50.9576 56.509 50.9717C56.6956 50.9883 56.7879 50.8046 56.6676 50.6613C56.5952 50.5755 47.7758 41.7565 47.7758 41.7565L37.5741 40.0018ZM23.7528 44.2088C23.6759 44.2088 23.6134 44.1465 23.6134 44.0694V42.0926C23.6134 42.0158 23.6759 41.9535 23.7528 41.9535L27.0965 41.9543C27.1736 41.9543 27.2359 41.892 27.2359 41.8149C27.2271 40.0392 25.8886 38.8329 20.5257 39.7662L8.946 41.7565C8.946 41.7565 0.126394 50.5755 0.0540506 50.6613C-0.0661137 50.8046 0.0260534 50.9883 0.212635 50.9717C0.373263 50.9576 19.4777 47.6564 19.4777 47.6564C23.8631 46.9166 26.254 49.0037 26.9694 50.9586C27.0328 51.1315 27.2382 51.1056 27.2382 50.9405C27.2382 50.8213 27.2386 44.3482 27.2386 44.3482C27.2386 44.2711 27.1762 44.2088 27.0994 44.2088H23.7528ZM18.4151 16.5798C14.5978 20.3971 14.0655 24.435 14.8804 27.069C14.9497 27.2928 15.1435 27.3075 15.1414 27.0731C15.1224 24.8601 15.759 22.9583 19.7982 18.9191L28.5062 10.2138C30.8239 7.8961 32.7698 5.89908 32.7698 3.71528V0.308992C32.7698 0.10177 32.5323 0.100953 32.4894 0.308992C31.9166 3.08871 30.8047 4.18552 28.5117 6.47845L18.4151 16.5798ZM32.778 9.69734V6.26795C32.778 6.06073 32.5405 6.05992 32.4978 6.26795C31.9248 9.04767 30.8159 10.1618 28.523 12.4546L19.3774 21.5926C14.9391 26.0309 14.1711 30.3264 16.4285 33.0865C16.5791 33.2706 16.7409 33.1604 16.6426 32.9383C15.1504 29.5616 18.729 25.9814 20.4329 24.2775L28.5144 16.1958C30.832 13.8782 32.778 11.8811 32.778 9.69734ZM19.6284 27.3292C15.1896 31.7679 17.2306 36.0546 19.8196 37.2346C20.0467 37.3382 20.137 37.1539 19.9633 37.0034C17.8872 35.2049 18.5177 32.1797 21.1284 29.569L28.5052 22.192C30.8229 19.8743 32.7688 17.8775 32.7688 15.6935V12.2872C32.7688 12.08 32.5313 12.0794 32.4884 12.2872C31.9156 15.0671 30.8061 16.1592 28.5132 18.4522L19.6284 27.3292ZM29.4733 38.3622V41.7916C29.4733 41.9988 29.7107 41.9995 29.7534 41.7916C30.3263 39.0119 31.4353 37.8977 33.7283 35.6048L37.3608 31.98C41.7991 27.5417 42.5671 23.2463 40.3097 20.486C40.1591 20.302 39.9972 20.4122 40.0955 20.6343C41.5878 24.011 38.0092 27.5912 36.3052 29.2952L33.7368 31.8638C31.4192 34.1814 29.4733 36.1784 29.4733 38.3622ZM33.7379 29.6074C31.4449 31.9003 30.3357 32.9924 29.7628 35.7722C29.7199 35.9802 29.4824 35.9794 29.4824 35.7722V32.3661C29.4824 30.1821 31.4284 28.1853 33.746 25.8676L35.6098 24.0036C38.2205 21.3929 38.851 18.3678 36.7749 16.5692C36.6012 16.4188 36.6915 16.2344 36.9185 16.3378C39.5076 17.5178 41.5485 21.8047 37.1098 26.2434L33.7379 29.6074Z" fill="#0B335E"/>
</g>
<mask id="mask51_701_2" style="mask-type:luminance" maskUnits="userSpaceOnUse" x="-82" y="-66" width="393" height="222">
<path d="M-81.5649 -65.6341H310.808V155.076H-81.5649V-65.6341Z" fill="white"/>
</mask>
<g mask="url(#mask51_701_2)">
<path d="M55.2593 44.3096C55.4604 44.3096 55.5806 44.1974 55.5806 44.0347C55.5806 43.853 55.48 43.7756 55.2556 43.7756H55.066V44.3096H55.2593ZM54.7721 43.5281H55.2671C55.6887 43.5281 55.8781 43.6944 55.8781 44.0271C55.8781 44.2707 55.7312 44.406 55.5765 44.4681L56.0253 45.2186H55.6928L55.3057 44.5493H55.066V45.2186H54.7721V43.5281ZM56.5012 44.3713C56.5012 43.7022 56.002 43.1568 55.302 43.1568C54.6019 43.1568 54.0989 43.6634 54.0989 44.3713C54.0989 45.0406 54.6019 45.5858 55.302 45.5858C55.9635 45.5858 56.5012 45.0792 56.5012 44.3713ZM53.8823 44.3713C53.8823 43.5475 54.478 42.9518 55.302 42.9518C56.0872 42.9518 56.7215 43.5475 56.7215 44.3713C56.7215 45.1955 56.1258 45.7908 55.302 45.7908C54.478 45.7908 53.8823 45.1955 53.8823 44.3713Z" fill="#0B335E"/>
</g>
</g>
<defs>
<clipPath id="clip0_701_2">
<rect width="243" height="71.1323" fill="white"/>
</clipPath>
</defs>
</svg>
